<svg xmlns="http://www.w3.org/2000/svg" width="23.668" height="25.104" viewBox="0 0 23.668 25.104">
  <g id="angular-icon" transform="translate(-1.48 -1.469)">
    <path id="Path_17" data-name="Path 17" d="M47.43,8.116,35.441,4.027v25.1L45.488,23.57,47.43,8.116Z" transform="translate(-22.282 -2.557)" fill="#a6120d"/>
    <path id="Path_18" data-name="Path 18" d="M4.2,8.189,5.982,23.643l9.892,5.487V4.026L4.2,8.188Z" transform="translate(-2.716 -2.557)" fill="#dd1b16"/>
    <g id="Group_38" data-name="Group 38" transform="translate(3.524 5.753)">
      <path id="Path_19" data-name="Path 19" d="M20.2,13.612,18.3,14.5h-2l-.938,2.347-1.745.032L18.3,6.466,20.2,13.613Zm-.183-.446L18.317,9.8l-1.393,3.3H18.3l1.711.058Z" transform="translate(-8.62 -4.085)" fill="#fff"/>
      <path id="Path_20" data-name="Path 20" d="M35.441,6.466,35.453,9.8l1.581,3.307h-1.59l0,1.385,2.2,0,1.027,2.38,1.67.031-4.9-10.443Z" transform="translate(-25.757 -4.084)" fill="#fff"/>
    </g>
  </g>
</svg>
