<svg xmlns="http://www.w3.org/2000/svg" xmlns:xlink="http://www.w3.org/1999/xlink" viewBox="0 0 203.35 201.97"><defs><style>.cls-1{isolation:isolate;}.cls-2{fill:url(#linear-gradient);}.cls-10,.cls-11,.cls-12,.cls-13,.cls-14,.cls-15,.cls-16,.cls-29,.cls-3,.cls-30,.cls-36,.cls-39,.cls-4,.cls-41,.cls-46,.cls-47,.cls-48,.cls-49,.cls-5,.cls-50,.cls-51,.cls-59,.cls-6,.cls-60,.cls-61,.cls-62,.cls-63,.cls-64,.cls-65,.cls-66,.cls-67,.cls-68,.cls-69,.cls-8{mix-blend-mode:multiply;}.cls-3{fill:url(#linear-gradient-2);}.cls-4{fill:url(#linear-gradient-3);}.cls-5{fill:url(#linear-gradient-4);}.cls-6{fill:url(#linear-gradient-5);}.cls-7{fill:#ffb300;}.cls-8{fill:url(#linear-gradient-6);}.cls-9{fill:#ffd54f;}.cls-10{fill:url(#linear-gradient-7);}.cls-11{fill:url(#linear-gradient-8);}.cls-12{fill:url(#linear-gradient-9);}.cls-13{fill:url(#linear-gradient-10);}.cls-14{fill:url(#linear-gradient-11);}.cls-15{fill:url(#linear-gradient-12);}.cls-16{fill:url(#linear-gradient-13);}.cls-17,.cls-18{fill:#fff;}.cls-18,.cls-26,.cls-27,.cls-37,.cls-42,.cls-43{mix-blend-mode:overlay;}.cls-19,.cls-37,.cls-43,.cls-54{fill:none;}.cls-19,.cls-37,.cls-43{stroke:#fff;stroke-miterlimit:10;}.cls-19,.cls-43,.cls-54{stroke-linecap:round;}.cls-19{stroke-width:2.17px;}.cls-20{fill:#656e79;}.cls-21{fill:#2e3b47;}.cls-22{fill:#cbdfef;}.cls-23{fill:#f8fbff;}.cls-24{fill:#abc3d3;}.cls-25{fill:#263238;}.cls-26{fill:url(#linear-gradient-14);}.cls-27{fill:url(#linear-gradient-15);}.cls-28{fill:url(#radial-gradient);}.cls-29{fill:url(#linear-gradient-16);}.cls-30{fill:url(#linear-gradient-17);}.cls-31{fill:#ec407a;}.cls-32{fill:#c4dfe8;}.cls-33{fill:#929bad;}.cls-34,.cls-42{fill:#ebfbff;}.cls-35{fill:#d32f2f;}.cls-36,.cls-39,.cls-41{opacity:0.8;}.cls-36{fill:url(#linear-gradient-18);}.cls-37{stroke-width:0.87px;stroke-dasharray:4.37;}.cls-38{fill:#26dfed;}.cls-39{fill:url(#linear-gradient-19);}.cls-40{fill:#b71a1a;}.cls-41{fill:url(#linear-gradient-20);}.cls-43{stroke-width:0.76px;stroke-dasharray:3.79;}.cls-44{fill:#6d4c41;}.cls-45{fill:#689f38;}.cls-46{fill:url(#linear-gradient-21);}.cls-47{fill:url(#linear-gradient-22);}.cls-48{fill:url(#linear-gradient-23);}.cls-49{fill:url(#linear-gradient-24);}.cls-50{fill:url(#linear-gradient-25);}.cls-51{fill:url(#linear-gradient-26);}.cls-52,.cls-55,.cls-57{opacity:0.7;}.cls-53,.cls-55{fill:#6fc9c5;}.cls-54{stroke:#f8fbff;stroke-linejoin:round;stroke-width:0.53px;}.cls-56,.cls-57{fill:#ffee58;}.cls-58{fill:#88a6b7;}.cls-59{fill:url(#linear-gradient-27);}.cls-60{fill:url(#linear-gradient-28);}.cls-61{fill:url(#linear-gradient-29);}.cls-62{fill:url(#linear-gradient-30);}.cls-63{fill:url(#linear-gradient-31);}.cls-64{fill:url(#linear-gradient-32);}.cls-65{fill:url(#linear-gradient-33);}.cls-66{fill:url(#linear-gradient-34);}.cls-67{fill:url(#linear-gradient-35);}.cls-68{fill:url(#linear-gradient-36);}.cls-69{fill:url(#linear-gradient-37);}</style><linearGradient id="linear-gradient" x1="0.58" y1="98.84" x2="203.88" y2="98.84" gradientTransform="translate(-0.76 2.29) rotate(-0.07)" gradientUnits="userSpaceOnUse"><stop offset="0" stop-color="#fa7a38"/><stop offset="1" stop-color="#fa7a38"/></linearGradient><linearGradient id="linear-gradient-2" x1="40.29" y1="132.62" x2="62.92" y2="132.62" gradientUnits="userSpaceOnUse"><stop offset="0" stop-color="#ad68a4"/><stop offset="0.11" stop-color="#b170a9" stop-opacity="0.95"/><stop offset="0.3" stop-color="#bd86b6" stop-opacity="0.8"/><stop offset="0.54" stop-color="#d0a9cb" stop-opacity="0.57"/><stop offset="0.81" stop-color="#ebdae9" stop-opacity="0.25"/><stop offset="1" stop-color="#fff" stop-opacity="0"/></linearGradient><linearGradient id="linear-gradient-3" x1="49.34" y1="138.83" x2="71.97" y2="138.83" xlink:href="#linear-gradient-2"/><linearGradient id="linear-gradient-4" x1="54.53" y1="134.13" x2="77.16" y2="134.13" xlink:href="#linear-gradient-2"/><linearGradient id="linear-gradient-5" x1="44.78" y1="129.1" x2="127.17" y2="129.1" xlink:href="#linear-gradient-2"/><linearGradient id="linear-gradient-6" x1="78.89" y1="123.24" x2="49.77" y2="123.24" gradientUnits="userSpaceOnUse"><stop offset="0" stop-color="#e089d3" stop-opacity="0"/><stop offset="1" stop-color="#e089d3"/></linearGradient><linearGradient id="linear-gradient-7" x1="74.45" y1="121.67" x2="53.49" y2="111" xlink:href="#linear-gradient-6"/><linearGradient id="linear-gradient-8" x1="78.89" y1="117.75" x2="49.77" y2="117.75" xlink:href="#linear-gradient-6"/><linearGradient id="linear-gradient-9" x1="72.3" y1="120.15" x2="64.07" y2="101.25" xlink:href="#linear-gradient-6"/><linearGradient id="linear-gradient-10" x1="73.33" y1="111.92" x2="42.85" y2="111.92" xlink:href="#linear-gradient-6"/><linearGradient id="linear-gradient-11" x1="71.11" y1="111.38" x2="64.68" y2="96.46" xlink:href="#linear-gradient-6"/><linearGradient id="linear-gradient-12" x1="76.36" y1="104.39" x2="45.88" y2="104.39" xlink:href="#linear-gradient-6"/><linearGradient id="linear-gradient-13" x1="115.39" y1="203.18" x2="166.71" y2="90.89" xlink:href="#linear-gradient-2"/><linearGradient id="linear-gradient-14" x1="107.22" y1="130.51" x2="154.52" y2="83.21" gradientUnits="userSpaceOnUse"><stop offset="0" stop-color="#fff"/><stop offset="0.16" stop-color="#d8dbdd" stop-opacity="0.79"/><stop offset="0.39" stop-color="#a4aab0" stop-opacity="0.51"/><stop offset="0.6" stop-color="#7b838c" stop-opacity="0.29"/><stop offset="0.78" stop-color="#5d6772" stop-opacity="0.13"/><stop offset="0.92" stop-color="#4b5562" stop-opacity="0.04"/><stop offset="1" stop-color="#444f5c" stop-opacity="0"/></linearGradient><linearGradient id="linear-gradient-15" x1="98.28" y1="121.46" x2="145.92" y2="73.83" xlink:href="#linear-gradient-14"/><radialGradient id="radial-gradient" cx="98.48" cy="130.3" r="42.21" gradientUnits="userSpaceOnUse"><stop offset="0" stop-color="#fff"/><stop offset="1" stop-color="#fff" stop-opacity="0"/></radialGradient><linearGradient id="linear-gradient-16" x1="100.14" y1="151.81" x2="100.14" y2="131.55" gradientUnits="userSpaceOnUse"><stop offset="0" stop-color="#fff" stop-opacity="0"/><stop offset="1" stop-color="#ffb300"/></linearGradient><linearGradient id="linear-gradient-17" x1="95.24" y1="149.03" x2="108.18" y2="132.91" xlink:href="#linear-gradient-16"/><linearGradient id="linear-gradient-18" x1="94.12" y1="84.2" x2="116.73" y2="84.2" gradientUnits="userSpaceOnUse"><stop offset="0" stop-color="#fff" stop-opacity="0"/><stop offset="1" stop-color="#662d8d"/></linearGradient><linearGradient id="linear-gradient-19" x1="89.16" y1="74.78" x2="89.16" y2="110.71" xlink:href="#linear-gradient-18"/><linearGradient id="linear-gradient-20" x1="110.46" y1="109.63" x2="121.47" y2="109.63" xlink:href="#linear-gradient-18"/><linearGradient id="linear-gradient-21" x1="26.43" y1="145.57" x2="49.06" y2="145.57" xlink:href="#linear-gradient-2"/><linearGradient id="linear-gradient-22" x1="149.39" y1="187.49" x2="158.59" y2="187.49" xlink:href="#linear-gradient-2"/><linearGradient id="linear-gradient-23" x1="160.08" y1="180.35" x2="173.67" y2="180.35" xlink:href="#linear-gradient-2"/><linearGradient id="linear-gradient-24" x1="41.96" y1="162.39" x2="51.16" y2="162.39" xlink:href="#linear-gradient-2"/><linearGradient id="linear-gradient-25" x1="51.3" y1="166.77" x2="60.5" y2="166.77" xlink:href="#linear-gradient-2"/><linearGradient id="linear-gradient-26" x1="138.96" y1="187.49" x2="148.16" y2="187.49" xlink:href="#linear-gradient-2"/><linearGradient id="linear-gradient-27" x1="54.21" y1="134.18" x2="58.32" y2="137.44" gradientUnits="userSpaceOnUse"><stop offset="0" stop-color="#fff" stop-opacity="0"/><stop offset="1" stop-color="#abc3d3"/></linearGradient><linearGradient id="linear-gradient-28" x1="58.95" y1="134.71" x2="58.95" y2="140.9" xlink:href="#linear-gradient-27"/><linearGradient id="linear-gradient-29" x1="49.98" y1="162.73" x2="53.55" y2="165.56" xlink:href="#linear-gradient-27"/><linearGradient id="linear-gradient-30" x1="54.1" y1="163.2" x2="54.1" y2="168.57" xlink:href="#linear-gradient-27"/><linearGradient id="linear-gradient-31" x1="2830.78" y1="182.12" x2="2834.89" y2="185.38" gradientTransform="matrix(-1, 0, 0, 1, 2974.64, 0)" xlink:href="#linear-gradient-27"/><linearGradient id="linear-gradient-32" x1="2835.52" y1="182.66" x2="2835.52" y2="188.85" gradientTransform="matrix(-1, 0, 0, 1, 2974.64, 0)" xlink:href="#linear-gradient-27"/><linearGradient id="linear-gradient-33" x1="76.31" y1="185.09" x2="85.51" y2="185.09" xlink:href="#linear-gradient-2"/><linearGradient id="linear-gradient-34" x1="80.57" y1="189.02" x2="101.02" y2="189.02" xlink:href="#linear-gradient-2"/><linearGradient id="linear-gradient-35" x1="80.41" y1="188.75" x2="104.91" y2="188.75" xlink:href="#linear-gradient-2"/><linearGradient id="linear-gradient-36" x1="2888.66" y1="184.85" x2="2891.85" y2="187.39" gradientTransform="matrix(-1, 0, 0, 1, 2974.64, 0)" xlink:href="#linear-gradient-27"/><linearGradient id="linear-gradient-37" x1="2892.35" y1="185.27" x2="2892.35" y2="190.08" gradientTransform="matrix(-1, 0, 0, 1, 2974.64, 0)" xlink:href="#linear-gradient-27"/></defs><title>Asset 1</title><g class="cls-1"><g id="Layer_2" data-name="Layer 2"><g id="Layer_1-2" data-name="Layer 1"><path class="cls-2" d="M45.58.19,203.11,0l.24,201.77-159.5.2C21.37,202,2.26,185,.23,162.65c0-.47-.08-.94-.11-1.41a56,56,0,0,1,10.22-35.82,40.08,40.08,0,0,0,2.73-42.55C7.85,73.25,3.73,63.11,1.85,53.2c0-.18-.07-.36-.1-.53A44.55,44.55,0,0,1,45.58.19Z"/><path class="cls-3" d="M56,132.62c0,1.1-2.06,2-4.6,2s-4.6-.89-4.6-2,2.06-2,4.6-2S56,131.53,56,132.62Z"/><ellipse class="cls-4" cx="60.44" cy="138.83" rx="4.6" ry="1.99"/><ellipse class="cls-5" cx="65.63" cy="134.13" rx="4.6" ry="1.99"/><ellipse class="cls-6" cx="85.17" cy="129.1" rx="16.75" ry="7.23"/><path class="cls-7" d="M81.67,119.25a10.58,10.58,0,0,0-2.28-1.74c-5.48-3.16-14.37-3.16-19.85,0a10.58,10.58,0,0,0-2.28,1.74H55.43v4c0,2.08,1.37,4.15,4.11,5.74,5.48,3.16,14.37,3.16,19.85,0,2.75-1.59,4.12-3.66,4.12-5.74h0v-4Z"/><path class="cls-8" d="M81.67,119.25a10.58,10.58,0,0,0-2.28-1.74c-5.48-3.16-14.37-3.16-19.85,0a10.58,10.58,0,0,0-2.28,1.74H55.43v4c0,2.08,1.37,4.15,4.11,5.74,5.48,3.16,14.37,3.16,19.85,0,2.75-1.59,4.12-3.66,4.12-5.74h0v-4Z"/><ellipse class="cls-9" cx="69.47" cy="119.14" rx="14.04" ry="8.11"/><path class="cls-7" d="M62.46,115.09a15.51,15.51,0,0,1,14,0c3.87,2.24,3.87,5.86,0,8.09a15.51,15.51,0,0,1-14,0c-3.87-2.23-3.87-5.85,0-8.09m-.79-.45c-4.3,2.48-4.3,6.52,0,9a17.26,17.26,0,0,0,15.59,0c4.3-2.48,4.3-6.52,0-9a17.2,17.2,0,0,0-15.59,0Z"/><path class="cls-7" d="M67.21,117.44a4.73,4.73,0,0,1,.85-.24,4.3,4.3,0,0,1,.78-.08,3.3,3.3,0,0,1,.66.06,2,2,0,0,1,.49.16c.07,0,.1.07.09.11a.14.14,0,0,1-.09.12l-.51.29a.65.65,0,0,1-.24.09H69a2,2,0,0,0-.65,0,2.25,2.25,0,0,0-.81.3,2,2,0,0,0-.32.23.74.74,0,0,0-.18.25.29.29,0,0,0,0,.22.46.46,0,0,0,.18.19.89.89,0,0,0,.36.11,1.43,1.43,0,0,0,.44,0,5,5,0,0,0,.61-.19l.84-.31a9.35,9.35,0,0,1,1-.3,4.12,4.12,0,0,1,.81-.11,2.51,2.51,0,0,1,.69.08,3.1,3.1,0,0,1,.63.26A1.21,1.21,0,0,1,73,119a.69.69,0,0,1,.13.44,1,1,0,0,1-.18.49,2.35,2.35,0,0,1-.5.5l.5.29s.08.06.08.11a.14.14,0,0,1-.08.11l-.6.35a.38.38,0,0,1-.19,0,.4.4,0,0,1-.2,0l-.5-.29a5.34,5.34,0,0,1-.8.26,5.74,5.74,0,0,1-.8.12,4.74,4.74,0,0,1-.76,0,2.32,2.32,0,0,1-.66-.21c-.06,0-.09-.07-.09-.12a.19.19,0,0,1,.09-.11l.52-.3a.61.61,0,0,1,.23-.09,1.1,1.1,0,0,1,.25,0,2.72,2.72,0,0,0,.31,0,1.55,1.55,0,0,0,.37,0,2.72,2.72,0,0,0,.43-.11,4.59,4.59,0,0,0,.52-.24,3.29,3.29,0,0,0,.39-.27.88.88,0,0,0,.25-.27.43.43,0,0,0,.06-.26c0-.08-.07-.15-.19-.22a.75.75,0,0,0-.37-.09,1.91,1.91,0,0,0-.48.08c-.19,0-.41.13-.66.22l-.88.31a7.25,7.25,0,0,1-.86.25,3.33,3.33,0,0,1-.75.09,2.25,2.25,0,0,1-.69-.08,2.77,2.77,0,0,1-.65-.28,1.19,1.19,0,0,1-.42-.37.76.76,0,0,1-.14-.43.81.81,0,0,1,.15-.45,1.72,1.72,0,0,1,.41-.46l-.5-.28a.12.12,0,0,1-.08-.12.12.12,0,0,1,.08-.11l.59-.35a.42.42,0,0,1,.2,0,.4.4,0,0,1,.2,0Z"/><ellipse class="cls-10" cx="69.47" cy="119.14" rx="14.04" ry="8.11"/><path class="cls-7" d="M81.67,113.76A10.58,10.58,0,0,0,79.39,112c-5.48-3.17-14.37-3.17-19.85,0a10.58,10.58,0,0,0-2.28,1.74H55.43v4c0,2.08,1.37,4.15,4.11,5.73,5.48,3.17,14.37,3.17,19.85,0,2.75-1.58,4.12-3.65,4.12-5.73h0v-4Z"/><path class="cls-11" d="M81.67,113.76A10.58,10.58,0,0,0,79.39,112c-5.48-3.17-14.37-3.17-19.85,0a10.58,10.58,0,0,0-2.28,1.74H55.43v4c0,2.08,1.37,4.15,4.11,5.73,5.48,3.17,14.37,3.17,19.85,0,2.75-1.58,4.12-3.65,4.12-5.73h0v-4Z"/><path class="cls-9" d="M79.39,107.91c5.49,3.17,5.49,8.3,0,11.47s-14.37,3.16-19.85,0-5.48-8.3,0-11.47S73.91,104.75,79.39,107.91Z"/><path class="cls-7" d="M62.46,109.6a15.51,15.51,0,0,1,14,0c3.87,2.23,3.87,5.85,0,8.09a15.51,15.51,0,0,1-14,0c-3.87-2.24-3.87-5.86,0-8.09m-.79-.46c-4.3,2.48-4.3,6.52,0,9a17.2,17.2,0,0,0,15.59,0c4.3-2.48,4.3-6.52,0-9a17.26,17.26,0,0,0-15.59,0Z"/><path class="cls-7" d="M67.21,112a4.08,4.08,0,0,1,.85-.25,4.26,4.26,0,0,1,.78-.07,3.3,3.3,0,0,1,.66.06,1.65,1.65,0,0,1,.49.16c.07,0,.1.06.09.11s0,.08-.09.11l-.51.3a.49.49,0,0,1-.24.08.66.66,0,0,1-.24,0,2.86,2.86,0,0,0-.65,0,2.51,2.51,0,0,0-.81.31,2,2,0,0,0-.32.23.63.63,0,0,0-.18.24.31.31,0,0,0,0,.23.46.46,0,0,0,.18.19.89.89,0,0,0,.36.11,1.48,1.48,0,0,0,.44-.05c.17,0,.37-.1.61-.18l.84-.31a9.35,9.35,0,0,1,1-.3,4.12,4.12,0,0,1,.81-.11,2.18,2.18,0,0,1,.69.08,2.62,2.62,0,0,1,.63.26,1.19,1.19,0,0,1,.42.37.74.74,0,0,1,.13.45,1,1,0,0,1-.18.48,2,2,0,0,1-.5.5l.5.29a.12.12,0,0,1,0,.23l-.6.35a.38.38,0,0,1-.19,0,.4.4,0,0,1-.2,0l-.5-.29a6.8,6.8,0,0,1-.8.26,5.74,5.74,0,0,1-.8.12,3.8,3.8,0,0,1-.76,0,2.32,2.32,0,0,1-.66-.21c-.06,0-.09-.07-.09-.11a.18.18,0,0,1,.09-.12l.52-.29a.61.61,0,0,1,.23-.09,1.07,1.07,0,0,1,.25,0l.31,0a2.35,2.35,0,0,0,.37,0,2,2,0,0,0,.43-.12,2.6,2.6,0,0,0,.52-.24,2.4,2.4,0,0,0,.39-.26,1,1,0,0,0,.25-.27.43.43,0,0,0,.06-.26c0-.08-.07-.15-.19-.22a.75.75,0,0,0-.37-.09,1.91,1.91,0,0,0-.48.08,5.64,5.64,0,0,0-.66.22l-.88.31a7.25,7.25,0,0,1-.86.25,3.33,3.33,0,0,1-.75.09,2.61,2.61,0,0,1-.69-.08,2.77,2.77,0,0,1-.65-.28,1.19,1.19,0,0,1-.42-.37.78.78,0,0,1-.14-.43.86.86,0,0,1,.15-.46,1.86,1.86,0,0,1,.41-.45l-.5-.29a.12.12,0,0,1-.08-.11s0-.08.08-.12l.59-.34a.42.42,0,0,1,.2-.05.39.39,0,0,1,.2.05Z"/><path class="cls-12" d="M79.39,107.91c5.49,3.17,5.49,8.3,0,11.47s-14.37,3.16-19.85,0-5.48-8.3,0-11.47S73.91,104.75,79.39,107.91Z"/><path class="cls-7" d="M81.78,107.92a10.58,10.58,0,0,0-2.28-1.74C74,103,65.13,103,59.64,106.18a10.76,10.76,0,0,0-2.27,1.74H55.53v4c0,2.07,1.37,4.14,4.11,5.73,5.49,3.16,14.38,3.16,19.86,0,2.74-1.59,4.11-3.66,4.11-5.73h0v-4Z"/><path class="cls-13" d="M81.78,107.92a10.58,10.58,0,0,0-2.28-1.74C74,103,65.13,103,59.64,106.18a10.76,10.76,0,0,0-2.27,1.74H55.53v4c0,2.07,1.37,4.14,4.11,5.73,5.49,3.16,14.38,3.16,19.86,0,2.74-1.59,4.11-3.66,4.11-5.73h0v-4Z"/><ellipse class="cls-9" cx="69.57" cy="107.81" rx="14.04" ry="8.11"/><path class="cls-7" d="M62.57,103.76a15.51,15.51,0,0,1,14,0c3.86,2.24,3.86,5.86,0,8.09a15.51,15.51,0,0,1-14,0c-3.87-2.23-3.87-5.85,0-8.09m-.79-.45c-4.3,2.48-4.3,6.52,0,9a17.26,17.26,0,0,0,15.59,0c4.3-2.48,4.3-6.52,0-9a17.2,17.2,0,0,0-15.59,0Z"/><path class="cls-7" d="M67.32,106.11a4.42,4.42,0,0,1,.84-.24,4.49,4.49,0,0,1,.78-.08,3.4,3.4,0,0,1,.67.06,2.82,2.82,0,0,1,.49.16c.06,0,.09.07.09.11a.18.18,0,0,1-.09.12l-.52.3a.79.79,0,0,1-.23.08H69.1a2,2,0,0,0-.65,0,2.15,2.15,0,0,0-.8.3,1.76,1.76,0,0,0-.33.24.94.94,0,0,0-.18.24.28.28,0,0,0,0,.22.34.34,0,0,0,.17.19.94.94,0,0,0,.36.11,1.41,1.41,0,0,0,.44,0,4.12,4.12,0,0,0,.61-.19c.23-.08.52-.18.84-.31a9.35,9.35,0,0,1,1-.3,5,5,0,0,1,.81-.11,2.64,2.64,0,0,1,.7.08,3,3,0,0,1,.62.26,1.35,1.35,0,0,1,.43.38.68.68,0,0,1,.12.44.85.85,0,0,1-.18.49,2.35,2.35,0,0,1-.5.5l.5.29c.06,0,.09.07.09.11a.14.14,0,0,1-.09.11l-.59.35a.43.43,0,0,1-.4,0l-.5-.29a5.22,5.22,0,0,1-.79.26,6.1,6.1,0,0,1-.81.12,3.84,3.84,0,0,1-.76,0,2.16,2.16,0,0,1-.65-.21c-.07,0-.1-.07-.09-.12s0-.08.09-.11l.51-.3a.59.59,0,0,1,.24-.09,1.06,1.06,0,0,1,.24,0l.32,0a2.3,2.3,0,0,0,.36,0,2.83,2.83,0,0,0,.44-.11,4.51,4.51,0,0,0,.51-.24,4.62,4.62,0,0,0,.4-.27,1.23,1.23,0,0,0,.25-.27.35.35,0,0,0,0-.26.3.3,0,0,0-.18-.21.66.66,0,0,0-.37-.1,2,2,0,0,0-.49.08c-.19,0-.41.13-.66.22l-.88.31a7.13,7.13,0,0,1-.85.25,4.29,4.29,0,0,1-.76.1,2.54,2.54,0,0,1-.68-.09,2.67,2.67,0,0,1-.66-.28,1.19,1.19,0,0,1-.42-.37.75.75,0,0,1-.13-.43.88.88,0,0,1,.14-.45,1.71,1.71,0,0,1,.41-.45l-.5-.29a.12.12,0,0,1,0-.23l.6-.35a.38.38,0,0,1,.19,0,.4.4,0,0,1,.2,0Z"/><ellipse class="cls-14" cx="69.57" cy="107.81" rx="14.04" ry="8.11"/><path class="cls-7" d="M84.8,100.4a10.76,10.76,0,0,0-2.27-1.74c-5.49-3.17-14.38-3.17-19.86,0a10.58,10.58,0,0,0-2.28,1.74H58.56v4c0,2.08,1.37,4.15,4.11,5.73,5.48,3.17,14.37,3.17,19.86,0,2.74-1.58,4.11-3.65,4.11-5.73h0v-4Z"/><path class="cls-15" d="M84.8,100.4a10.76,10.76,0,0,0-2.27-1.74c-5.49-3.17-14.38-3.17-19.86,0a10.58,10.58,0,0,0-2.28,1.74H58.56v4c0,2.08,1.37,4.15,4.11,5.73,5.48,3.17,14.37,3.17,19.86,0,2.74-1.58,4.11-3.65,4.11-5.73h0v-4Z"/><ellipse class="cls-9" cx="72.6" cy="100.28" rx="14.04" ry="8.11"/><path class="cls-7" d="M65.59,96.24a15.51,15.51,0,0,1,14,0c3.87,2.23,3.87,5.85,0,8.09a15.51,15.51,0,0,1-14,0c-3.87-2.24-3.87-5.86,0-8.09m-.79-.46c-4.3,2.48-4.3,6.52,0,9a17.2,17.2,0,0,0,15.59,0c4.3-2.48,4.3-6.52,0-9a17.26,17.26,0,0,0-15.59,0Z"/><path class="cls-7" d="M70.34,98.59a4.08,4.08,0,0,1,.85-.25,4.26,4.26,0,0,1,.78-.07,3.4,3.4,0,0,1,.67.06,1.68,1.68,0,0,1,.48.16c.07,0,.1.06.09.11s0,.08-.09.11l-.51.3a.46.46,0,0,1-.24.08.66.66,0,0,1-.24,0,2.86,2.86,0,0,0-.65,0,2.38,2.38,0,0,0-.8.31,1.74,1.74,0,0,0-.33.23.63.63,0,0,0-.18.24.31.31,0,0,0,0,.23.46.46,0,0,0,.18.19.89.89,0,0,0,.36.11,1.48,1.48,0,0,0,.44-.05,6.27,6.27,0,0,0,.61-.18l.84-.31a9.35,9.35,0,0,1,1-.3,3.49,3.49,0,0,1,.81-.11,2.18,2.18,0,0,1,.69.08,2.47,2.47,0,0,1,.63.26,1.19,1.19,0,0,1,.42.37.68.68,0,0,1,.13.45,1,1,0,0,1-.18.48,2,2,0,0,1-.5.5l.5.29a.12.12,0,0,1,0,.23l-.59.34a.33.33,0,0,1-.2,0,.4.4,0,0,1-.2,0l-.5-.29a6.8,6.8,0,0,1-.8.26,5.74,5.74,0,0,1-.8.12,3.8,3.8,0,0,1-.76,0,2.32,2.32,0,0,1-.66-.21c-.06,0-.09-.07-.08-.11a.14.14,0,0,1,.08-.12l.52-.29a.61.61,0,0,1,.23-.09,1.07,1.07,0,0,1,.25,0l.31,0a1.59,1.59,0,0,0,.37,0,1.51,1.51,0,0,0,.43-.11,2.6,2.6,0,0,0,.52-.24,2.4,2.4,0,0,0,.39-.26,1,1,0,0,0,.25-.27.43.43,0,0,0,.06-.26c0-.08-.07-.15-.19-.22a.71.71,0,0,0-.36-.09,1.6,1.6,0,0,0-.49.08,5.64,5.64,0,0,0-.66.22l-.88.31a7.25,7.25,0,0,1-.86.25,3.33,3.33,0,0,1-.75.09,3,3,0,0,1-.68-.08,2.67,2.67,0,0,1-.66-.28,1.19,1.19,0,0,1-.42-.37.77.77,0,0,1-.13-.43.85.85,0,0,1,.14-.46,1.86,1.86,0,0,1,.41-.45l-.5-.29a.12.12,0,0,1-.08-.11.12.12,0,0,1,.08-.12l.59-.34a.42.42,0,0,1,.2-.05.39.39,0,0,1,.2.05Z"/><path class="cls-16" d="M113.7,186.36h14.93a6.6,6.6,0,0,0,3.35-.92l46.5-27.75a3.65,3.65,0,0,0-.17-6.36L112,116.51Z"/><path class="cls-17" d="M30.8,73.45a2.6,2.6,0,0,1,.36.25,4.58,4.58,0,0,1-.23-1.38c0-1.68,1.18-2.36,2.64-1.52a5.83,5.83,0,0,1,2.63,4.56,2.71,2.71,0,0,1,0,.29,2.67,2.67,0,0,1,.42.2,5.09,5.09,0,0,1,2.31,4,2.28,2.28,0,0,1-.1.72L44.1,85.5,30.8,77.82a4.17,4.17,0,0,1-1.9-3.28C28.9,73.33,29.75,72.84,30.8,73.45Z"/><path class="cls-17" d="M62.09,72.23a1.9,1.9,0,1,1-1.89,1.9,1.89,1.89,0,0,1,1.89-1.9m0-1.08a3,3,0,1,0,3,3,3,3,0,0,0-3-3Z"/><path class="cls-17" d="M154.14,93.85A1.89,1.89,0,1,1,152.25,92,1.89,1.89,0,0,1,154.14,93.85Z"/><circle class="cls-18" cx="124.47" cy="61.41" r="1.77"/><circle class="cls-18" cx="65.78" cy="101.63" r="1.77"/><circle class="cls-18" cx="132.69" cy="49.26" r="4.28" transform="translate(4.03 108.25) rotate(-45)"/><circle class="cls-18" cx="73.02" cy="62.17" r="3.23"/><line class="cls-19" x1="171.85" y1="67.16" x2="171.85" y2="70.08"/><line class="cls-19" x1="171.85" y1="75.12" x2="171.85" y2="78.03"/><line class="cls-19" x1="177.29" y1="72.6" x2="174.37" y2="72.6"/><line class="cls-19" x1="169.33" y1="72.6" x2="166.42" y2="72.6"/><line class="cls-19" x1="168.01" y1="68.76" x2="170.07" y2="70.82"/><line class="cls-19" x1="173.64" y1="74.38" x2="175.7" y2="76.44"/><line class="cls-19" x1="175.7" y1="68.76" x2="173.64" y2="70.82"/><line class="cls-19" x1="170.07" y1="74.38" x2="168.01" y2="76.44"/><line class="cls-19" x1="47.16" y1="53.92" x2="47.16" y2="56.84"/><line class="cls-19" x1="47.16" y1="61.88" x2="47.16" y2="64.79"/><line class="cls-19" x1="52.6" y1="59.36" x2="49.69" y2="59.36"/><line class="cls-19" x1="44.64" y1="59.36" x2="41.73" y2="59.36"/><line class="cls-19" x1="43.32" y1="55.52" x2="45.38" y2="57.58"/><line class="cls-19" x1="48.95" y1="61.14" x2="51.01" y2="63.2"/><line class="cls-19" x1="51.01" y1="55.52" x2="48.95" y2="57.58"/><line class="cls-19" x1="45.38" y1="61.14" x2="43.32" y2="63.2"/><path class="cls-20" d="M94.81,124.77a2.36,2.36,0,0,1-1.07,1.85c-.6.35-1.08.07-1.08-.62a2.35,2.35,0,0,1,1.08-1.85C94.33,123.8,94.81,124.08,94.81,124.77Z"/><polygon class="cls-20" points="94.44 124.05 153.01 157.83 151.52 160.46 92.97 126.69 94.44 124.05"/><path class="cls-21" d="M153.32,158.52a2.36,2.36,0,0,1-1.07,1.85c-.59.35-1.07.07-1.07-.61a2.37,2.37,0,0,1,1.07-1.86C152.84,157.56,153.32,157.83,153.32,158.52Z"/><path class="cls-22" d="M151.19,154.16l2.47-1.36V155a3.65,3.65,0,0,1-1.87,3.18l-.6.33Z"/><polygon class="cls-23" points="151.19 154.16 151.19 158.52 92.66 124.73 92.66 120.38 151.19 154.16"/><path class="cls-24" d="M153.79,104.33h0v2.27l-.13,46.19-2.48,1.36.14-50.07,1-.57,1-.56A3.13,3.13,0,0,1,153.79,104.33Z"/><path class="cls-22" d="M153.37,103l-1,.56-1,.57L92.8,70.3l.7-.39A3.59,3.59,0,0,1,97,70l54.3,31.35,1,.56A3,3,0,0,1,153.37,103Z"/><polygon class="cls-20" points="151.32 104.09 151.19 154.16 92.66 120.38 92.8 70.3 151.32 104.09"/><polygon class="cls-25" points="149.38 105.14 149.26 151.2 94.61 119.33 94.72 73.26 149.38 105.14"/><polygon class="cls-26" points="120.6 134.49 135.24 143.04 128.34 92.87 113.16 84.02 120.6 134.49"/><polygon class="cls-27" points="114.89 131.17 117.79 132.86 110.81 82.64 107.89 80.94 114.89 131.17"/><g class="cls-1"><polygon class="cls-23" points="151.18 160.07 113.71 181.84 55.03 147.96 92.5 126.19 151.18 160.07"/><path class="cls-24" d="M113.71,183.77v2.59a2.22,2.22,0,0,1-1.11-.29h0l-.36-.21L54.91,152.77a2.35,2.35,0,0,1-1.18-2.06v-1.57Z"/><path class="cls-24" d="M151.18,162v.83a3.7,3.7,0,0,1-1.84,3.18L115.62,185.6h0l-.79.46h0a2.16,2.16,0,0,1-1.1.29v-2.59Z"/><polygon class="cls-22" points="113.71 181.84 113.71 183.77 53.73 149.14 55.03 147.96 113.71 181.84"/><polygon class="cls-22" points="151.18 160.07 151.19 162.02 113.71 183.77 113.71 181.84 151.18 160.07"/></g><g class="cls-1"><polygon class="cls-21" points="100.26 133.23 100.26 134.15 96.76 136.18 96.76 135.26 100.26 133.23"/><polygon class="cls-21" points="96.76 135.26 96.76 136.18 92.35 133.64 92.35 132.72 96.76 135.26"/><polygon class="cls-20" points="100.26 133.23 96.76 135.26 92.35 132.72 95.86 130.68 100.26 133.23"/></g><g class="cls-1"><polygon class="cls-21" points="95.53 136.05 95.53 136.97 92.03 139 92.03 138.08 95.53 136.05"/><polygon class="cls-21" points="92.03 138.08 92.03 139 87.56 136.42 87.56 135.5 92.03 138.08"/><polygon class="cls-20" points="95.53 136.05 92.03 138.08 87.56 135.5 91.06 133.47 95.53 136.05"/></g><g class="cls-1"><polygon class="cls-21" points="91.04 138.66 91.04 139.57 87.54 141.61 87.54 140.69 91.04 138.66"/><polygon class="cls-21" points="87.54 140.69 87.54 141.61 83.07 139.03 83.07 138.11 87.54 140.69"/><polygon class="cls-20" points="91.04 138.66 87.54 140.69 83.07 138.11 86.57 136.07 91.04 138.66"/></g><g class="cls-1"><polygon class="cls-21" points="104.09 135.43 104.08 136.35 100.58 138.39 100.59 137.47 104.09 135.43"/><polygon class="cls-21" points="100.59 137.47 100.58 138.39 97.64 136.69 97.65 135.77 100.59 137.47"/><polygon class="cls-20" points="104.09 135.43 100.59 137.47 97.65 135.77 101.15 133.74 104.09 135.43"/></g><g class="cls-1"><polygon class="cls-21" points="99.29 138.22 99.29 139.14 95.79 141.17 95.79 140.25 99.29 138.22"/><polygon class="cls-21" points="95.79 140.25 95.79 141.17 92.85 139.48 92.85 138.56 95.79 140.25"/><polygon class="cls-20" points="99.29 138.22 95.79 140.25 92.85 138.56 96.35 136.52 99.29 138.22"/></g><g class="cls-1"><polygon class="cls-21" points="94.81 140.83 94.8 141.75 91.3 143.78 91.31 142.86 94.81 140.83"/><polygon class="cls-21" points="91.31 142.86 91.3 143.78 88.36 142.08 88.37 141.16 91.31 142.86"/><polygon class="cls-20" points="94.81 140.83 91.31 142.86 88.37 141.16 91.87 139.13 94.81 140.83"/></g><g class="cls-1"><polygon class="cls-21" points="88.84 142.59 88.84 143.51 85.33 145.55 85.34 144.63 88.84 142.59"/><polygon class="cls-21" points="85.34 144.63 85.33 145.55 78.57 141.64 78.58 140.72 85.34 144.63"/><polygon class="cls-20" points="88.84 142.59 85.34 144.63 78.58 140.72 82.08 138.69 88.84 142.59"/></g><g class="cls-1"><polygon class="cls-21" points="80.34 143.1 80.33 144.02 76.84 146.06 76.84 145.14 80.34 143.1"/><polygon class="cls-21" points="76.84 145.14 76.84 146.06 73.9 144.36 73.9 143.44 76.84 145.14"/><polygon class="cls-20" points="80.34 143.1 76.84 145.14 73.9 143.44 77.4 141.41 80.34 143.1"/></g><g class="cls-1"><polygon class="cls-21" points="84.16 145.31 84.16 146.23 80.66 148.26 80.66 147.34 84.16 145.31"/><polygon class="cls-21" points="80.66 147.34 80.66 148.26 77.72 146.57 77.72 145.65 80.66 147.34"/><polygon class="cls-20" points="84.16 145.31 80.66 147.34 77.72 145.65 81.22 143.62 84.16 145.31"/></g><g class="cls-1"><polygon class="cls-21" points="107.91 137.64 107.91 138.56 104.41 140.6 104.41 139.68 107.91 137.64"/><polygon class="cls-21" points="104.41 139.68 104.41 140.6 101.47 138.9 101.47 137.98 104.41 139.68"/><polygon class="cls-20" points="107.91 137.64 104.41 139.68 101.47 137.98 104.97 135.94 107.91 137.64"/></g><g class="cls-1"><polygon class="cls-21" points="103.12 140.43 103.11 141.35 99.61 143.38 99.62 142.46 103.12 140.43"/><polygon class="cls-21" points="99.62 142.46 99.61 143.38 96.67 141.69 96.68 140.76 99.62 142.46"/><polygon class="cls-20" points="103.12 140.43 99.62 142.46 96.68 140.76 100.18 138.73 103.12 140.43"/></g><g class="cls-1"><polygon class="cls-21" points="98.63 143.04 98.63 143.96 95.13 145.99 95.13 145.07 98.63 143.04"/><polygon class="cls-21" points="95.13 145.07 95.13 145.99 92.19 144.29 92.19 143.37 95.13 145.07"/><polygon class="cls-20" points="98.63 143.04 95.13 145.07 92.19 143.37 95.69 141.34 98.63 143.04"/></g><g class="cls-1"><polygon class="cls-21" points="92.66 144.8 92.66 145.72 89.16 147.76 89.16 146.84 92.66 144.8"/><polygon class="cls-21" points="89.16 146.84 89.16 147.76 86.22 146.06 86.22 145.14 89.16 146.84"/><polygon class="cls-20" points="92.66 144.8 89.16 146.84 86.22 145.14 89.72 143.1 92.66 144.8"/></g><g class="cls-1"><polygon class="cls-21" points="111.69 139.82 111.68 140.74 108.18 142.78 108.19 141.86 111.69 139.82"/><polygon class="cls-21" points="108.19 141.86 108.18 142.78 105.24 141.08 105.25 140.16 108.19 141.86"/><polygon class="cls-20" points="111.69 139.82 108.19 141.86 105.25 140.16 108.75 138.13 111.69 139.82"/></g><g class="cls-1"><polygon class="cls-21" points="106.89 142.61 106.89 143.53 103.39 145.56 103.39 144.64 106.89 142.61"/><polygon class="cls-21" points="103.39 144.64 103.39 145.56 100.45 143.86 100.45 142.94 103.39 144.64"/><polygon class="cls-20" points="106.89 142.61 103.39 144.64 100.45 142.94 103.95 140.91 106.89 142.61"/></g><g class="cls-1"><polygon class="cls-21" points="102.4 145.22 102.4 146.13 98.9 148.17 98.91 147.25 102.4 145.22"/><polygon class="cls-21" points="98.91 147.25 98.9 148.17 95.96 146.47 95.97 145.55 98.91 147.25"/><polygon class="cls-20" points="102.4 145.22 98.91 147.25 95.97 145.55 99.47 143.52 102.4 145.22"/></g><g class="cls-1"><polygon class="cls-21" points="96.48 147.01 96.48 147.93 92.98 149.96 92.98 149.04 96.48 147.01"/><polygon class="cls-21" points="92.98 149.04 92.98 149.96 90.04 148.27 90.05 147.35 92.98 149.04"/><polygon class="cls-20" points="96.48 147.01 92.98 149.04 90.05 147.35 93.55 145.31 96.48 147.01"/></g><g class="cls-1"><polygon class="cls-21" points="115.51 142.03 115.51 142.95 112.01 144.98 112.01 144.06 115.51 142.03"/><polygon class="cls-21" points="112.01 144.06 112.01 144.98 109.07 143.29 109.07 142.37 112.01 144.06"/><polygon class="cls-20" points="115.51 142.03 112.01 144.06 109.07 142.37 112.57 140.33 115.51 142.03"/></g><g class="cls-1"><polygon class="cls-21" points="110.72 144.82 110.71 145.74 107.21 147.77 107.22 146.85 110.72 144.82"/><polygon class="cls-21" points="107.22 146.85 107.21 147.77 104.27 146.07 104.28 145.15 107.22 146.85"/><polygon class="cls-20" points="110.72 144.82 107.22 146.85 104.28 145.15 107.78 143.12 110.72 144.82"/></g><g class="cls-1"><polygon class="cls-21" points="106.23 147.42 106.22 148.34 102.73 150.38 102.73 149.46 106.23 147.42"/><polygon class="cls-21" points="102.73 149.46 102.73 150.38 99.79 148.68 99.79 147.76 102.73 149.46"/><polygon class="cls-20" points="106.23 147.42 102.73 149.46 99.79 147.76 103.29 145.73 106.23 147.42"/></g><g class="cls-1"><polygon class="cls-21" points="100.26 149.19 100.26 150.11 96.76 152.14 96.76 151.22 100.26 149.19"/><polygon class="cls-21" points="96.76 151.22 96.76 152.14 93.82 150.45 93.82 149.53 96.76 151.22"/><polygon class="cls-20" points="100.26 149.19 96.76 151.22 93.82 149.53 97.32 147.49 100.26 149.19"/></g><g class="cls-1"><polygon class="cls-21" points="119.57 144.38 119.57 145.29 116.07 147.33 116.07 146.41 119.57 144.38"/><polygon class="cls-21" points="116.07 146.41 116.07 147.33 113.13 145.63 113.13 144.71 116.07 146.41"/><polygon class="cls-20" points="119.57 144.38 116.07 146.41 113.13 144.71 116.63 142.68 119.57 144.38"/></g><g class="cls-1"><polygon class="cls-21" points="114.78 147.16 114.78 148.08 111.28 150.12 111.28 149.19 114.78 147.16"/><polygon class="cls-21" points="111.28 149.19 111.28 150.12 108.34 148.42 108.34 147.5 111.28 149.19"/><polygon class="cls-20" points="114.78 147.16 111.28 149.19 108.34 147.5 111.84 145.47 114.78 147.16"/></g><g class="cls-1"><polygon class="cls-21" points="110.29 149.77 110.29 150.69 106.79 152.72 106.79 151.8 110.29 149.77"/><polygon class="cls-21" points="106.79 151.8 106.79 152.72 103.85 151.03 103.85 150.11 106.79 151.8"/><polygon class="cls-20" points="110.29 149.77 106.79 151.8 103.85 150.11 107.35 148.07 110.29 149.77"/></g><g class="cls-1"><polygon class="cls-21" points="104.08 151.4 104.08 152.32 100.58 154.35 100.58 153.43 104.08 151.4"/><polygon class="cls-21" points="100.58 153.43 100.58 154.35 97.64 152.65 97.64 151.73 100.58 153.43"/><polygon class="cls-20" points="104.08 151.4 100.58 153.43 97.64 151.73 101.14 149.7 104.08 151.4"/></g><g class="cls-1"><polygon class="cls-21" points="123.68 146.75 123.68 147.67 120.18 149.7 120.18 148.78 123.68 146.75"/><polygon class="cls-21" points="120.18 148.78 120.18 149.7 117.24 148 117.24 147.09 120.18 148.78"/><polygon class="cls-20" points="123.68 146.75 120.18 148.78 117.24 147.09 120.74 145.05 123.68 146.75"/></g><g class="cls-1"><polygon class="cls-21" points="118.89 149.53 118.89 150.45 115.39 152.49 115.39 151.57 118.89 149.53"/><polygon class="cls-21" points="115.39 151.57 115.39 152.49 112.45 150.79 112.45 149.87 115.39 151.57"/><polygon class="cls-20" points="118.89 149.53 115.39 151.57 112.45 149.87 115.95 147.84 118.89 149.53"/></g><g class="cls-1"><polygon class="cls-21" points="114.4 152.14 114.4 153.06 110.9 155.1 110.9 154.18 114.4 152.14"/><polygon class="cls-21" points="110.9 154.18 110.9 155.1 107.96 153.4 107.96 152.48 110.9 154.18"/><polygon class="cls-20" points="114.4 152.14 110.9 154.18 107.96 152.48 111.46 150.44 114.4 152.14"/></g><g class="cls-1"><polygon class="cls-21" points="108.15 153.74 108.14 154.66 104.64 156.7 104.65 155.78 108.15 153.74"/><polygon class="cls-21" points="104.65 155.78 104.64 156.7 101.7 155 101.71 154.08 104.65 155.78"/><polygon class="cls-20" points="108.15 153.74 104.65 155.78 101.71 154.08 105.21 152.04 108.15 153.74"/></g><g class="cls-1"><polygon class="cls-21" points="111.97 155.95 111.97 156.87 108.47 158.9 108.47 157.98 111.97 155.95"/><polygon class="cls-21" points="108.47 157.98 108.47 158.9 105.53 157.21 105.53 156.29 108.47 157.98"/><polygon class="cls-20" points="111.97 155.95 108.47 157.98 105.53 156.29 109.03 154.25 111.97 155.95"/></g><g class="cls-1"><polygon class="cls-21" points="107.29 158.67 107.29 159.59 103.79 161.62 103.8 160.7 107.29 158.67"/><polygon class="cls-21" points="103.8 160.7 103.79 161.62 81.54 148.78 81.55 147.86 103.8 160.7"/><polygon class="cls-20" points="107.29 158.67 103.8 160.7 81.55 147.86 85.05 145.82 107.29 158.67"/></g><g class="cls-1"><polygon class="cls-21" points="127.55 148.98 127.55 149.9 124.05 151.94 124.05 151.02 127.55 148.98"/><polygon class="cls-21" points="124.05 151.02 124.05 151.94 121.11 150.24 121.11 149.32 124.05 151.02"/><polygon class="cls-20" points="127.55 148.98 124.05 151.02 121.11 149.32 124.61 147.29 127.55 148.98"/></g><g class="cls-1"><polygon class="cls-21" points="133.34 152.32 133.33 153.24 129.83 155.28 129.84 154.36 133.34 152.32"/><polygon class="cls-21" points="129.84 154.36 129.83 155.28 125.31 152.66 125.31 151.74 129.84 154.36"/><polygon class="cls-20" points="133.34 152.32 129.84 154.36 125.31 151.74 128.81 149.71 133.34 152.32"/></g><g class="cls-1"><polygon class="cls-21" points="122.76 151.77 122.76 152.69 119.26 154.72 119.26 153.8 122.76 151.77"/><polygon class="cls-21" points="119.26 153.8 119.26 154.72 116.32 153.03 116.32 152.11 119.26 153.8"/><polygon class="cls-20" points="122.76 151.77 119.26 153.8 116.32 152.11 119.82 150.07 122.76 151.77"/><polygon class="cls-21" points="128.54 155.11 128.54 156.03 124.05 158.63 124.06 157.72 128.54 155.11"/><polygon class="cls-21" points="124.06 157.72 124.05 158.63 122.84 159.34 122.84 158.42 124.06 157.72"/><polygon class="cls-21" points="122.84 158.42 122.84 159.34 120.55 160.67 120.56 159.75 122.84 158.42"/><polygon class="cls-21" points="120.56 159.75 120.55 160.67 113.79 156.76 113.79 155.84 120.56 159.75"/><polygon class="cls-20" points="128.54 155.11 124.06 157.72 122.84 158.42 120.56 159.75 113.79 155.84 117.29 153.81 120.67 155.76 125.16 153.16 128.54 155.11"/></g><g class="cls-1"><polygon class="cls-21" points="137.11 154.5 137.11 155.42 133.61 157.46 133.61 156.54 137.11 154.5"/><polygon class="cls-21" points="133.61 156.54 133.61 157.46 130.67 155.76 130.67 154.84 133.61 156.54"/><polygon class="cls-20" points="137.11 154.5 133.61 156.54 130.67 154.84 134.17 152.81 137.11 154.5"/></g><g class="cls-1"><polygon class="cls-21" points="132.32 157.29 132.31 158.21 128.82 160.24 128.82 159.32 132.32 157.29"/><polygon class="cls-21" points="128.82 159.32 128.82 160.24 125.88 158.54 125.88 157.63 128.82 159.32"/><polygon class="cls-20" points="132.32 157.29 128.82 159.32 125.88 157.63 129.38 155.59 132.32 157.29"/></g><g class="cls-1"><polygon class="cls-21" points="127.83 159.9 127.83 160.81 124.33 162.85 124.33 161.93 127.83 159.9"/><polygon class="cls-21" points="124.33 161.93 124.33 162.85 121.39 161.15 121.39 160.23 124.33 161.93"/><polygon class="cls-20" points="127.83 159.9 124.33 161.93 121.39 160.23 124.89 158.2 127.83 159.9"/></g><g class="cls-1"><polygon class="cls-21" points="141.22 156.88 141.22 157.79 137.72 159.83 137.72 158.91 141.22 156.88"/><polygon class="cls-21" points="137.72 158.91 137.72 159.83 134.78 158.13 134.78 157.21 137.72 158.91"/><polygon class="cls-20" points="141.22 156.88 137.72 158.91 134.78 157.21 138.28 155.18 141.22 156.88"/></g><g class="cls-1"><polygon class="cls-21" points="136.43 159.66 136.43 160.58 132.93 162.62 132.93 161.69 136.43 159.66"/><polygon class="cls-21" points="132.93 161.69 132.93 162.62 129.99 160.92 129.99 160 132.93 161.69"/><polygon class="cls-20" points="136.43 159.66 132.93 161.69 129.99 160 133.49 157.96 136.43 159.66"/></g><g class="cls-1"><polygon class="cls-21" points="131.94 162.27 131.94 163.19 128.44 165.22 128.44 164.3 131.94 162.27"/><polygon class="cls-21" points="128.44 164.3 128.44 165.22 125.5 163.53 125.5 162.6 128.44 164.3"/><polygon class="cls-20" points="131.94 162.27 128.44 164.3 125.5 162.6 129 160.57 131.94 162.27"/></g><g class="cls-1"><polygon class="cls-21" points="119.56 160.33 119.56 161.25 116.05 163.28 116.06 162.36 119.56 160.33"/><polygon class="cls-21" points="116.06 162.36 116.05 163.28 109.29 159.38 109.29 158.46 116.06 162.36"/><polygon class="cls-20" points="119.56 160.33 116.06 162.36 109.29 158.46 112.8 156.43 119.56 160.33"/></g><g class="cls-1"><polygon class="cls-21" points="111.06 160.84 111.06 161.76 107.56 163.79 107.56 162.87 111.06 160.84"/><polygon class="cls-21" points="107.56 162.87 107.56 163.79 104.62 162.1 104.62 161.18 107.56 162.87"/><polygon class="cls-20" points="111.06 160.84 107.56 162.87 104.62 161.18 108.12 159.14 111.06 160.84"/></g><g class="cls-1"><polygon class="cls-21" points="114.88 163.05 114.88 163.97 111.38 166 111.38 165.08 114.88 163.05"/><polygon class="cls-21" points="111.38 165.08 111.38 166 108.44 164.3 108.44 163.38 111.38 165.08"/><polygon class="cls-20" points="114.88 163.05 111.38 165.08 108.44 163.38 111.94 161.35 114.88 163.05"/></g><g class="cls-1"><polygon class="cls-21" points="123.33 162.51 123.33 163.43 119.83 165.46 119.83 164.54 123.33 162.51"/><polygon class="cls-21" points="119.83 164.54 119.83 165.46 116.89 163.77 116.89 162.85 119.83 164.54"/><polygon class="cls-20" points="123.33 162.51 119.83 164.54 116.89 162.85 120.39 160.81 123.33 162.51"/></g><g class="cls-1"><polygon class="cls-21" points="118.66 165.23 118.65 166.15 115.15 168.18 115.16 167.26 118.66 165.23"/><polygon class="cls-21" points="115.16 167.26 115.15 168.18 112.22 166.48 112.22 165.56 115.16 167.26"/><polygon class="cls-20" points="118.66 165.23 115.16 167.26 112.22 165.56 115.72 163.53 118.66 165.23"/></g><g class="cls-1"><polygon class="cls-21" points="122.62 167.52 122.62 168.44 119.12 170.47 119.13 169.55 122.62 167.52"/><polygon class="cls-21" points="119.13 169.55 119.12 170.47 116.18 168.77 116.19 167.85 119.13 169.55"/><polygon class="cls-20" points="122.62 167.52 119.13 169.55 116.19 167.85 119.69 165.82 122.62 167.52"/></g><g class="cls-1"><path class="cls-24" d="M97.91,161.87l-6.1,3.55a2.33,2.33,0,0,1-2.34,0l-11.72-6.76a.36.36,0,0,1,0-.62l7.15-4.16a1.62,1.62,0,0,1,1.65,0l11.35,6.55A.83.83,0,0,1,97.91,161.87Z"/></g><path class="cls-24" d="M91.31,131.14a.43.43,0,0,0,.41,0,.12.12,0,0,0,0-.23.43.43,0,0,0-.41,0A.12.12,0,0,0,91.31,131.14Z"/><path class="cls-24" d="M92.32,130.56a.49.49,0,0,0,.41,0,.13.13,0,0,0,0-.24.49.49,0,0,0-.41,0A.13.13,0,0,0,92.32,130.56Z"/><path class="cls-24" d="M89.29,132.32a.49.49,0,0,0,.41,0,.13.13,0,0,0,0-.24.49.49,0,0,0-.41,0A.13.13,0,0,0,89.29,132.32Z"/><path class="cls-24" d="M90.3,131.73a.43.43,0,0,0,.41,0,.12.12,0,0,0,0-.23.43.43,0,0,0-.41,0A.12.12,0,0,0,90.3,131.73Z"/><path class="cls-24" d="M87.27,133.49a.41.41,0,0,0,.4,0c.12-.06.12-.17,0-.23a.41.41,0,0,0-.4,0A.12.12,0,0,0,87.27,133.49Z"/><path class="cls-24" d="M88.28,132.91a.49.49,0,0,0,.41,0c.11-.07.11-.17,0-.24a.47.47,0,0,0-.4,0A.13.13,0,0,0,88.28,132.91Z"/><path class="cls-24" d="M85.25,134.67a.47.47,0,0,0,.4,0,.13.13,0,0,0,0-.24.47.47,0,0,0-.4,0C85.13,134.5,85.13,134.6,85.25,134.67Z"/><path class="cls-24" d="M86.26,134.08a.41.41,0,0,0,.4,0c.12-.06.12-.17,0-.23a.41.41,0,0,0-.4,0A.12.12,0,0,0,86.26,134.08Z"/><path class="cls-24" d="M83.23,135.84a.41.41,0,0,0,.4,0,.12.12,0,0,0,0-.23.43.43,0,0,0-.41,0C83.11,135.67,83.11,135.78,83.23,135.84Z"/><path class="cls-24" d="M84.24,135.26a.47.47,0,0,0,.4,0,.13.13,0,0,0,0-.24.49.49,0,0,0-.41,0C84.12,135.09,84.12,135.19,84.24,135.26Z"/><path class="cls-24" d="M81.2,137a.49.49,0,0,0,.41,0,.13.13,0,0,0,0-.24.49.49,0,0,0-.41,0A.13.13,0,0,0,81.2,137Z"/><path class="cls-24" d="M82.21,136.43a.43.43,0,0,0,.41,0,.12.12,0,0,0,0-.23.43.43,0,0,0-.41,0A.12.12,0,0,0,82.21,136.43Z"/><path class="cls-24" d="M79.18,138.19a.43.43,0,0,0,.41,0,.12.12,0,0,0,0-.23.43.43,0,0,0-.41,0A.12.12,0,0,0,79.18,138.19Z"/><path class="cls-24" d="M80.19,137.61a.49.49,0,0,0,.41,0,.13.13,0,0,0,0-.24.49.49,0,0,0-.41,0A.13.13,0,0,0,80.19,137.61Z"/><path class="cls-24" d="M77.16,139.37a.49.49,0,0,0,.41,0c.11-.07.11-.17,0-.24a.47.47,0,0,0-.4,0A.13.13,0,0,0,77.16,139.37Z"/><path class="cls-24" d="M78.17,138.78a.43.43,0,0,0,.41,0,.12.12,0,0,0,0-.23.43.43,0,0,0-.41,0A.12.12,0,0,0,78.17,138.78Z"/><path class="cls-24" d="M75.14,140.54a.41.41,0,0,0,.4,0c.12-.06.12-.17,0-.23a.41.41,0,0,0-.4,0A.12.12,0,0,0,75.14,140.54Z"/><path class="cls-24" d="M76.15,140a.49.49,0,0,0,.41,0c.11-.07.11-.17,0-.24a.47.47,0,0,0-.4,0A.13.13,0,0,0,76.15,140Z"/><path class="cls-24" d="M73.12,141.72a.47.47,0,0,0,.4,0,.13.13,0,0,0,0-.24.47.47,0,0,0-.4,0C73,141.55,73,141.65,73.12,141.72Z"/><path class="cls-24" d="M74.13,141.13a.41.41,0,0,0,.4,0c.12-.06.11-.17,0-.23a.41.41,0,0,0-.4,0C74,141,74,141.07,74.13,141.13Z"/><path class="cls-24" d="M72.31,141.76a.36.36,0,0,0,.15,0l.05,0h0a.14.14,0,0,0,.08-.15.22.22,0,0,0-.08-.09.37.37,0,0,0-.15,0,.45.45,0,0,0-.26,0l0,0a.11.11,0,0,0,0,.09v0l0,.06,0,0h0l.05,0,.1,0Z"/><path class="cls-24" d="M91.31,130.56a.47.47,0,0,0,.4,0c.12-.07.12-.17,0-.24a.47.47,0,0,0-.4,0A.13.13,0,0,0,91.31,130.56Z"/><path class="cls-24" d="M90.29,130a.49.49,0,0,0,.41,0,.13.13,0,0,0,0-.24.49.49,0,0,0-.41,0A.13.13,0,0,0,90.29,130Z"/><path class="cls-24" d="M89.28,130a.47.47,0,0,0,.4,0,.13.13,0,0,0,0-.24.47.47,0,0,0-.4,0C89.16,129.8,89.16,129.9,89.28,130Z"/><path class="cls-24" d="M90.29,130.56a.49.49,0,0,0,.41,0,.13.13,0,0,0,0-.24.49.49,0,0,0-.41,0A.13.13,0,0,0,90.29,130.56Z"/><path class="cls-24" d="M90.29,129.38a.41.41,0,0,0,.4,0c.12-.06.12-.17,0-.23a.41.41,0,0,0-.4,0A.12.12,0,0,0,90.29,129.38Z"/><path class="cls-24" d="M91.31,130a.47.47,0,0,0,.4,0,.13.13,0,0,0,0-.24.49.49,0,0,0-.41,0C91.19,129.8,91.19,129.9,91.31,130Z"/><path class="cls-24" d="M89.29,131.73a.41.41,0,0,0,.4,0,.12.12,0,0,0,0-.23.41.41,0,0,0-.4,0C89.17,131.56,89.17,131.67,89.29,131.73Z"/><path class="cls-24" d="M88.27,131.14a.43.43,0,0,0,.41,0c.11-.06.11-.17,0-.23a.41.41,0,0,0-.4,0A.12.12,0,0,0,88.27,131.14Z"/><path class="cls-24" d="M87.26,131.14a.41.41,0,0,0,.4,0,.12.12,0,0,0,0-.23.43.43,0,0,0-.41,0C87.14,131,87.14,131.08,87.26,131.14Z"/><path class="cls-24" d="M88.27,131.73a.43.43,0,0,0,.41,0,.12.12,0,0,0,0-.23.43.43,0,0,0-.41,0A.12.12,0,0,0,88.27,131.73Z"/><path class="cls-24" d="M88.27,130.56a.47.47,0,0,0,.4,0,.13.13,0,0,0,0-.24.47.47,0,0,0-.4,0C88.15,130.39,88.15,130.49,88.27,130.56Z"/><path class="cls-24" d="M89.28,131.14a.43.43,0,0,0,.41,0,.12.12,0,0,0,0-.23.43.43,0,0,0-.41,0A.12.12,0,0,0,89.28,131.14Z"/><path class="cls-24" d="M90.26,131.12l0,0h0l0,0,.1,0h.06l.16,0,0,0h0c.07,0,.1-.09.08-.15a.15.15,0,0,0-.08-.08.33.33,0,0,0-.15,0,.42.42,0,0,0-.25,0l0,0a.11.11,0,0,0-.05.09v0Zm.24-.09.07,0-.07,0-.1.05Z"/><path class="cls-24" d="M89.24,130.53l0,0,0,0,.11,0h.06a.39.39,0,0,0,.15,0l0,0-.16-.1.17.1a.12.12,0,0,0,.07-.15.18.18,0,0,0-.07-.09.42.42,0,0,0-.15,0,.45.45,0,0,0-.26,0h0l0,0a.12.12,0,0,0,0,.09v0Z"/><path class="cls-24" d="M87.27,132.91a.47.47,0,0,0,.4,0,.13.13,0,0,0,0-.24.49.49,0,0,0-.41,0C87.15,132.74,87.15,132.84,87.27,132.91Z"/><path class="cls-24" d="M86.25,132.32a.47.47,0,0,0,.4,0c.12-.07.12-.17,0-.24a.47.47,0,0,0-.4,0A.13.13,0,0,0,86.25,132.32Z"/><path class="cls-24" d="M85.23,132.32a.49.49,0,0,0,.41,0,.13.13,0,0,0,0-.24.49.49,0,0,0-.41,0A.13.13,0,0,0,85.23,132.32Z"/><path class="cls-24" d="M86.25,132.91a.49.49,0,0,0,.41,0,.13.13,0,0,0,0-.24.49.49,0,0,0-.41,0A.13.13,0,0,0,86.25,132.91Z"/><path class="cls-24" d="M86.25,131.73a.41.41,0,0,0,.4,0,.12.12,0,0,0,0-.23.43.43,0,0,0-.41,0C86.13,131.56,86.13,131.67,86.25,131.73Z"/><path class="cls-24" d="M87.26,132.32a.49.49,0,0,0,.41,0,.13.13,0,0,0,0-.24.49.49,0,0,0-.41,0A.13.13,0,0,0,87.26,132.32Z"/><path class="cls-24" d="M88.28,132.32l.17-.1-.17.1a.47.47,0,0,0,.4,0l-.2-.12h0l.2.12a.17.17,0,0,0,.06-.06c.05-.06,0-.13-.06-.18a.46.46,0,0,0-.31,0l-.09,0C88.16,132.15,88.16,132.25,88.28,132.32Z"/><path class="cls-24" d="M87.26,131.73a.41.41,0,0,0,.4,0h0l.06,0c0-.06,0-.13-.07-.18a.46.46,0,0,0-.31,0l-.09,0,.27.15-.27-.15C87.15,131.56,87.15,131.66,87.26,131.73Z"/><path class="cls-24" d="M85.24,134.08a.43.43,0,0,0,.41,0,.12.12,0,0,0,0-.23.43.43,0,0,0-.41,0A.12.12,0,0,0,85.24,134.08Z"/><path class="cls-24" d="M84.23,133.49a.41.41,0,0,0,.4,0,.12.12,0,0,0,0-.23.43.43,0,0,0-.41,0C84.11,133.32,84.11,133.43,84.23,133.49Z"/><path class="cls-24" d="M83.21,133.49a.43.43,0,0,0,.41,0,.12.12,0,0,0,0-.23.43.43,0,0,0-.41,0A.12.12,0,0,0,83.21,133.49Z"/><path class="cls-24" d="M84.23,134.08a.43.43,0,0,0,.41,0c.11-.06.11-.17,0-.23a.41.41,0,0,0-.4,0A.12.12,0,0,0,84.23,134.08Z"/><path class="cls-24" d="M84.22,132.91a.49.49,0,0,0,.41,0,.13.13,0,0,0,0-.24.49.49,0,0,0-.41,0A.13.13,0,0,0,84.22,132.91Z"/><path class="cls-24" d="M85.24,133.49a.43.43,0,0,0,.41,0,.12.12,0,0,0,0-.23.43.43,0,0,0-.41,0A.12.12,0,0,0,85.24,133.49Z"/><path class="cls-24" d="M86.22,133.47a.05.05,0,0,0,0,0h0l0,0,.1,0h.06l.16,0,0,0-.06,0,.06,0a.15.15,0,0,0,.08-.08s0-.11-.08-.15a.45.45,0,0,0-.26,0,.44.44,0,0,0-.15,0l0,0a.11.11,0,0,0,0,.09,0,0,0,0,0,0,0S86.2,133.45,86.22,133.47Z"/><path class="cls-24" d="M85.2,132.88a.05.05,0,0,0,0,0l0,0,.11,0h0a.45.45,0,0,0,.16,0l0,0h0a.22.22,0,0,0,.08-.09s0-.11-.08-.15a.45.45,0,0,0-.26,0,.33.33,0,0,0-.14,0h0l0,0a.12.12,0,0,0,0,.09,0,0,0,0,0,0,0A.21.21,0,0,0,85.2,132.88Z"/><path class="cls-24" d="M83.22,135.26a.49.49,0,0,0,.41,0,.13.13,0,0,0,0-.24.49.49,0,0,0-.41,0A.13.13,0,0,0,83.22,135.26Z"/><path class="cls-24" d="M82.2,134.67a.49.49,0,0,0,.41,0,.13.13,0,0,0,0-.24.49.49,0,0,0-.41,0A.13.13,0,0,0,82.2,134.67Z"/><path class="cls-24" d="M81.19,134.67a.49.49,0,0,0,.41,0c.11-.07.11-.17,0-.24a.47.47,0,0,0-.4,0A.13.13,0,0,0,81.19,134.67Z"/><path class="cls-24" d="M82.21,135.26a.47.47,0,0,0,.4,0c.12-.07.11-.17,0-.24a.47.47,0,0,0-.4,0A.13.13,0,0,0,82.21,135.26Z"/><path class="cls-24" d="M82.2,134.08a.43.43,0,0,0,.41,0,.12.12,0,0,0,0-.23.43.43,0,0,0-.41,0A.12.12,0,0,0,82.2,134.08Z"/><path class="cls-24" d="M83.22,134.67a.47.47,0,0,0,.4,0c.12-.07.12-.17,0-.24a.47.47,0,0,0-.4,0A.13.13,0,0,0,83.22,134.67Z"/><path class="cls-24" d="M84.2,134.64l0,0h0l0,0,.1,0h.06a.4.4,0,0,0,.15,0l0,0h0a.14.14,0,0,0,.08-.15.22.22,0,0,0-.08-.09.37.37,0,0,0-.15,0,.45.45,0,0,0-.26,0l0,0a.11.11,0,0,0,0,.09v0A.13.13,0,0,0,84.2,134.64Zm.23-.09.07,0-.06,0-.08,0Z"/><path class="cls-24" d="M83.18,134.05l0,0,.05,0a.19.19,0,0,0,.1,0h.06a.41.41,0,0,0,.16,0l0,0h0c.07,0,.1-.1.08-.15a.15.15,0,0,0-.08-.08.33.33,0,0,0-.15,0,.42.42,0,0,0-.25,0h0l0,0a.14.14,0,0,0-.05.09.08.08,0,0,0,0,0A.07.07,0,0,0,83.18,134.05Z"/><path class="cls-24" d="M81.2,136.43a.43.43,0,0,0,.41,0c.11-.06.11-.17,0-.23a.41.41,0,0,0-.4,0A.12.12,0,0,0,81.2,136.43Z"/><path class="cls-24" d="M80.18,135.84a.43.43,0,0,0,.41,0,.12.12,0,0,0,0-.23.43.43,0,0,0-.41,0A.12.12,0,0,0,80.18,135.84Z"/><path class="cls-24" d="M79.17,135.84a.41.41,0,0,0,.4,0c.12-.06.12-.17,0-.23a.41.41,0,0,0-.4,0A.12.12,0,0,0,79.17,135.84Z"/><path class="cls-24" d="M80.19,136.43a.41.41,0,0,0,.4,0,.12.12,0,0,0,0-.23.43.43,0,0,0-.41,0C80.07,136.26,80.07,136.37,80.19,136.43Z"/><path class="cls-24" d="M80.18,135.26a.49.49,0,0,0,.41,0c.11-.07.11-.17,0-.24a.47.47,0,0,0-.4,0A.13.13,0,0,0,80.18,135.26Z"/><path class="cls-24" d="M81.2,135.84a.41.41,0,0,0,.4,0,.12.12,0,0,0,0-.23.41.41,0,0,0-.4,0C81.08,135.67,81.08,135.78,81.2,135.84Z"/><path class="cls-24" d="M82.21,135.84l.13-.07-.13.08a.45.45,0,0,0,.36,0h.05l-.21-.12h0l.21.11a.13.13,0,0,0,.07-.08.12.12,0,0,0-.07-.15.45.45,0,0,0-.26-.05.33.33,0,0,0-.15.05l0,0A.12.12,0,0,0,82.21,135.84Z"/><path class="cls-24" d="M81.2,135.26a.49.49,0,0,0,.36,0l0,0h0a.22.22,0,0,0,.08-.09.14.14,0,0,0-.08-.15.45.45,0,0,0-.26,0,.37.37,0,0,0-.15,0l.39.23-.39-.23,0,0C81.08,135.11,81.1,135.2,81.2,135.26Z"/><path class="cls-24" d="M79.18,137.61a.47.47,0,0,0,.4,0c.12-.07.12-.17,0-.24a.47.47,0,0,0-.4,0A.13.13,0,0,0,79.18,137.61Z"/><path class="cls-24" d="M78.16,137a.49.49,0,0,0,.41,0,.13.13,0,0,0,0-.24.49.49,0,0,0-.41,0A.13.13,0,0,0,78.16,137Z"/><path class="cls-24" d="M77.15,137a.47.47,0,0,0,.4,0,.13.13,0,0,0,0-.24.47.47,0,0,0-.4,0C77,136.85,77,137,77.15,137Z"/><path class="cls-24" d="M78.16,137.61a.49.49,0,0,0,.41,0,.13.13,0,0,0,0-.24.49.49,0,0,0-.41,0A.13.13,0,0,0,78.16,137.61Z"/><path class="cls-24" d="M78.16,136.43a.41.41,0,0,0,.4,0c.12-.06.11-.17,0-.23a.41.41,0,0,0-.4,0C78,136.26,78.05,136.37,78.16,136.43Z"/><path class="cls-24" d="M79.18,137a.47.47,0,0,0,.4,0,.13.13,0,0,0,0-.24.49.49,0,0,0-.41,0C79.06,136.85,79.06,137,79.18,137Z"/><path class="cls-24" d="M80.15,137l0,0h0l0,0,.1,0h0a.41.41,0,0,0,.16,0l0,0h0a.12.12,0,0,0,.07-.15.16.16,0,0,0-.08-.09.33.33,0,0,0-.14,0,.45.45,0,0,0-.26,0l0,0s-.05.06,0,.09v0Z"/><path class="cls-24" d="M79.14,136.41l0,0,0,0,.1,0h.06a.4.4,0,0,0,.15,0l0,0h0a.14.14,0,0,0,.08-.15.15.15,0,0,0-.08-.08.44.44,0,0,0-.15,0,.45.45,0,0,0-.26,0h0l0,0a.13.13,0,0,0,0,.1v0A.12.12,0,0,0,79.14,136.41Z"/><path class="cls-24" d="M77.16,138.78a.41.41,0,0,0,.4,0,.12.12,0,0,0,0-.23.41.41,0,0,0-.4,0C77,138.61,77,138.72,77.16,138.78Z"/><path class="cls-24" d="M76.14,138.19a.43.43,0,0,0,.41,0c.11-.06.11-.17,0-.23a.41.41,0,0,0-.4,0A.12.12,0,0,0,76.14,138.19Z"/><path class="cls-24" d="M75.13,138.19a.41.41,0,0,0,.4,0,.12.12,0,0,0,0-.23.43.43,0,0,0-.41,0C75,138,75,138.13,75.13,138.19Z"/><path class="cls-24" d="M76.14,138.78a.43.43,0,0,0,.41,0,.12.12,0,0,0,0-.23.43.43,0,0,0-.41,0A.12.12,0,0,0,76.14,138.78Z"/><path class="cls-24" d="M76.14,137.61a.47.47,0,0,0,.4,0,.13.13,0,0,0,0-.24.49.49,0,0,0-.41,0C76,137.44,76,137.54,76.14,137.61Z"/><path class="cls-24" d="M77.15,138.19a.43.43,0,0,0,.41,0,.12.12,0,0,0,0-.23.43.43,0,0,0-.41,0A.12.12,0,0,0,77.15,138.19Z"/><path class="cls-24" d="M78.13,138.17l0,0h0l0,0,.11,0h.05l.16,0,0,0h0c.07,0,.1-.09.08-.15a.15.15,0,0,0-.08-.08.33.33,0,0,0-.15-.05.42.42,0,0,0-.25.05l0,0a.14.14,0,0,0,0,.1,0,0,0,0,0,0,0A.21.21,0,0,0,78.13,138.17Zm.24-.09.15.08-.15-.08-.12.07Z"/><path class="cls-24" d="M77.11,137.58l0,0,0,0,.1,0h0a.38.38,0,0,0,.16,0l0,0-.41-.24.41.24a.12.12,0,0,0,.07-.15.16.16,0,0,0-.08-.09.33.33,0,0,0-.14,0,.45.45,0,0,0-.26,0h0l0,0a.11.11,0,0,0,0,.09v0Z"/><path class="cls-24" d="M75.14,140a.47.47,0,0,0,.4,0,.13.13,0,0,0,0-.24.49.49,0,0,0-.41,0C75,139.79,75,139.89,75.14,140Z"/><path class="cls-24" d="M74.12,139.37a.47.47,0,0,0,.4,0c.12-.07.11-.17,0-.24a.47.47,0,0,0-.4,0C74,139.2,74,139.3,74.12,139.37Z"/><path class="cls-24" d="M73.1,139.37a.49.49,0,0,0,.41,0,.13.13,0,0,0,0-.24.49.49,0,0,0-.41,0A.13.13,0,0,0,73.1,139.37Z"/><path class="cls-24" d="M74.12,140a.49.49,0,0,0,.41,0,.13.13,0,0,0,0-.24.49.49,0,0,0-.41,0A.13.13,0,0,0,74.12,140Z"/><path class="cls-24" d="M74.11,138.78a.43.43,0,0,0,.41,0,.12.12,0,0,0,0-.23.43.43,0,0,0-.41,0A.12.12,0,0,0,74.11,138.78Z"/><path class="cls-24" d="M75.13,139.37a.49.49,0,0,0,.41,0,.13.13,0,0,0,0-.24.49.49,0,0,0-.41,0A.13.13,0,0,0,75.13,139.37Z"/><path class="cls-24" d="M76.15,139.37l.2-.12h0l-.2.12a.45.45,0,0,0,.36,0l0,0-.2-.12.2.12a.22.22,0,0,0,.08-.09c0-.05,0-.11-.08-.15a.45.45,0,0,0-.26,0,.42.42,0,0,0-.15,0l0,0C76,139.22,76.05,139.31,76.15,139.37Z"/><path class="cls-24" d="M75.13,138.78a.45.45,0,0,0,.36,0l0,0-.13-.08.13.08a.12.12,0,0,0,.08-.09c0-.05,0-.1-.08-.14a.42.42,0,0,0-.25-.05l-.15,0h0l0,0C75,138.64,75,138.72,75.13,138.78Z"/><path class="cls-24" d="M73.11,141.13a.43.43,0,0,0,.41,0,.12.12,0,0,0,0-.23.43.43,0,0,0-.41,0A.12.12,0,0,0,73.11,141.13Z"/><path class="cls-24" d="M72.1,140.54a.41.41,0,0,0,.4,0,.12.12,0,0,0,0-.23.41.41,0,0,0-.4,0C72,140.37,72,140.48,72.1,140.54Z"/><path class="cls-24" d="M71.08,140.54a.43.43,0,0,0,.41,0,.12.12,0,0,0,0-.23.43.43,0,0,0-.41,0A.12.12,0,0,0,71.08,140.54Z"/><path class="cls-24" d="M72.1,141.13a.43.43,0,0,0,.41,0c.11-.06.11-.17,0-.23a.41.41,0,0,0-.4,0A.12.12,0,0,0,72.1,141.13Z"/><path class="cls-24" d="M72.09,140a.49.49,0,0,0,.41,0,.13.13,0,0,0,0-.24.49.49,0,0,0-.41,0A.13.13,0,0,0,72.09,140Z"/><path class="cls-24" d="M73.11,140.54a.43.43,0,0,0,.41,0c.11-.06.11-.17,0-.23a.41.41,0,0,0-.4,0A.12.12,0,0,0,73.11,140.54Z"/><path class="cls-24" d="M74.09,140.52l0,0,.1,0-.09,0,0,0a.19.19,0,0,0,.1,0h.06a.45.45,0,0,0,.16,0l0,0-.17-.1.17.1c.07,0,.1-.09.08-.15a.15.15,0,0,0-.08-.08.38.38,0,0,0-.15-.05.45.45,0,0,0-.26.05l0,0a.14.14,0,0,0,0,.1,0,0,0,0,0,0,0S74.07,140.5,74.09,140.52Z"/><path class="cls-24" d="M73.07,139.93l0,0,0,0,.11,0h0a.29.29,0,0,0,.16,0l0,0h0c.07-.05.1-.1.08-.15a.17.17,0,0,0-.08-.09.33.33,0,0,0-.15,0,.35.35,0,0,0-.25,0l.22.13-.23-.13,0,0a.12.12,0,0,0,0,.09,0,0,0,0,0,0,0S73.05,139.91,73.07,139.93Z"/><path class="cls-24" d="M71.29,141.18a.45.45,0,0,0,.16,0l0,0L71.2,141l.29.17c.07,0,.1-.1.08-.15a.15.15,0,0,0-.08-.08.33.33,0,0,0-.15-.05.45.45,0,0,0-.26.05h0l0,0a.11.11,0,0,0,0,.09v0a.1.1,0,0,0,0,.06l0,0a.05.05,0,0,0,0,0,.38.38,0,0,0,.1,0Z"/><path class="cls-24" d="M144.09,162a.49.49,0,0,0,.41,0,.13.13,0,0,0,0-.24.49.49,0,0,0-.41,0A.13.13,0,0,0,144.09,162Z"/><path class="cls-24" d="M145.1,161.43a.49.49,0,0,0,.41,0,.13.13,0,0,0,0-.24.49.49,0,0,0-.41,0A.13.13,0,0,0,145.1,161.43Z"/><path class="cls-24" d="M142.07,163.19a.43.43,0,0,0,.41,0c.11-.06.11-.17,0-.23a.41.41,0,0,0-.4,0A.12.12,0,0,0,142.07,163.19Z"/><path class="cls-24" d="M143.08,162.6a.43.43,0,0,0,.41,0,.12.12,0,0,0,0-.23.43.43,0,0,0-.41,0A.12.12,0,0,0,143.08,162.6Z"/><path class="cls-24" d="M140.05,164.37a.47.47,0,0,0,.4,0c.12-.07.12-.17,0-.24a.47.47,0,0,0-.4,0A.13.13,0,0,0,140.05,164.37Z"/><path class="cls-24" d="M141.06,163.78a.47.47,0,0,0,.4,0c.12-.07.12-.17,0-.24a.47.47,0,0,0-.4,0A.13.13,0,0,0,141.06,163.78Z"/><path class="cls-24" d="M138,165.54a.41.41,0,0,0,.4,0,.12.12,0,0,0,0-.23.43.43,0,0,0-.41,0C137.91,165.37,137.91,165.48,138,165.54Z"/><path class="cls-24" d="M139,165a.41.41,0,0,0,.4,0,.12.12,0,0,0,0-.23.41.41,0,0,0-.4,0C138.92,164.78,138.93,164.89,139,165Z"/><path class="cls-24" d="M136,166.72a.49.49,0,0,0,.41,0,.13.13,0,0,0,0-.24.49.49,0,0,0-.41,0A.13.13,0,0,0,136,166.72Z"/><path class="cls-24" d="M137,166.13a.47.47,0,0,0,.4,0,.13.13,0,0,0,0-.24.49.49,0,0,0-.41,0C136.9,166,136.9,166.06,137,166.13Z"/><path class="cls-24" d="M134,167.89a.46.46,0,0,0,.41,0,.12.12,0,0,0,0-.23.43.43,0,0,0-.41,0A.12.12,0,0,0,134,167.89Z"/><path class="cls-24" d="M135,167.3a.43.43,0,0,0,.41,0,.12.12,0,0,0,0-.23.43.43,0,0,0-.41,0A.12.12,0,0,0,135,167.3Z"/><path class="cls-24" d="M132,169.07a.49.49,0,0,0,.41,0,.13.13,0,0,0,0-.24.49.49,0,0,0-.41,0C131.85,168.89,131.85,169,132,169.07Z"/><path class="cls-24" d="M133,168.48a.49.49,0,0,0,.41,0,.13.13,0,0,0,0-.24.49.49,0,0,0-.41,0A.13.13,0,0,0,133,168.48Z"/><path class="cls-24" d="M129.94,170.24a.49.49,0,0,0,.41,0c.11-.07.11-.17,0-.23a.41.41,0,0,0-.4,0C129.83,170.07,129.83,170.17,129.94,170.24Z"/><path class="cls-24" d="M131,169.65a.43.43,0,0,0,.41,0c.11-.06.11-.17,0-.23a.41.41,0,0,0-.4,0A.12.12,0,0,0,131,169.65Z"/><path class="cls-24" d="M127.92,171.41a.41.41,0,0,0,.4,0c.12-.06.11-.17,0-.23a.41.41,0,0,0-.4,0C127.8,171.24,127.81,171.35,127.92,171.41Z"/><path class="cls-24" d="M128.93,170.83a.47.47,0,0,0,.4,0c.12-.07.12-.17,0-.24a.47.47,0,0,0-.4,0A.13.13,0,0,0,128.93,170.83Z"/><path class="cls-24" d="M125.9,172.59a.47.47,0,0,0,.4,0,.13.13,0,0,0,0-.24.49.49,0,0,0-.41,0C125.78,172.42,125.78,172.52,125.9,172.59Z"/><path class="cls-24" d="M126.91,172a.41.41,0,0,0,.4,0,.12.12,0,0,0,0-.23.41.41,0,0,0-.4,0C126.79,171.83,126.79,171.94,126.91,172Z"/><path class="cls-24" d="M125.09,172.64l.15,0,.05,0h0a.14.14,0,0,0,.08-.15.22.22,0,0,0-.08-.09.42.42,0,0,0-.15,0,.45.45,0,0,0-.26,0l0,0a.12.12,0,0,0,0,.09v0s0,.05,0,.06l0,0h0l.05,0,.1,0Z"/><path class="cls-24" d="M144.09,161.43a.47.47,0,0,0,.4,0c.12-.07.12-.17,0-.24a.47.47,0,0,0-.4,0A.13.13,0,0,0,144.09,161.43Z"/><path class="cls-24" d="M143.07,160.84a.43.43,0,0,0,.41,0,.12.12,0,0,0,0-.23.43.43,0,0,0-.41,0A.12.12,0,0,0,143.07,160.84Z"/><path class="cls-24" d="M142.06,160.84a.41.41,0,0,0,.4,0,.12.12,0,0,0,0-.23.41.41,0,0,0-.4,0C141.94,160.67,141.94,160.78,142.06,160.84Z"/><path class="cls-24" d="M143.07,161.43a.49.49,0,0,0,.41,0,.13.13,0,0,0,0-.24.49.49,0,0,0-.41,0A.13.13,0,0,0,143.07,161.43Z"/><path class="cls-24" d="M143.07,160.25a.41.41,0,0,0,.4,0,.12.12,0,0,0,0-.23.41.41,0,0,0-.4,0C143,160.08,143,160.19,143.07,160.25Z"/><path class="cls-24" d="M144.09,160.84a.41.41,0,0,0,.4,0,.12.12,0,0,0,0-.23.43.43,0,0,0-.41,0C144,160.67,144,160.78,144.09,160.84Z"/><path class="cls-24" d="M142.07,162.6a.41.41,0,0,0,.4,0,.12.12,0,0,0,0-.23.41.41,0,0,0-.4,0C142,162.43,142,162.54,142.07,162.6Z"/><path class="cls-24" d="M141.05,162a.47.47,0,0,0,.4,0c.12-.07.12-.17,0-.24a.47.47,0,0,0-.4,0A.13.13,0,0,0,141.05,162Z"/><path class="cls-24" d="M140,162a.47.47,0,0,0,.4,0,.13.13,0,0,0,0-.24.49.49,0,0,0-.41,0C139.92,161.85,139.92,162,140,162Z"/><path class="cls-24" d="M141.05,162.6a.43.43,0,0,0,.41,0,.12.12,0,0,0,0-.23.43.43,0,0,0-.41,0A.12.12,0,0,0,141.05,162.6Z"/><path class="cls-24" d="M141.05,161.43a.47.47,0,0,0,.4,0,.13.13,0,0,0,0-.24.49.49,0,0,0-.41,0C140.93,161.26,140.93,161.36,141.05,161.43Z"/><path class="cls-24" d="M142.06,162a.49.49,0,0,0,.41,0,.13.13,0,0,0,0-.24.49.49,0,0,0-.41,0A.13.13,0,0,0,142.06,162Z"/><path class="cls-24" d="M143,162l0,0h0l0,0,.1,0h.06a.45.45,0,0,0,.16,0l0,0h0c.07,0,.1-.1.08-.15a.17.17,0,0,0-.08-.09.33.33,0,0,0-.15,0,.35.35,0,0,0-.25,0l0,0a.12.12,0,0,0,0,.09,0,0,0,0,0,0,0S143,162,143,162Zm.24-.09.07,0-.07,0-.1,0Z"/><path class="cls-24" d="M142,161.4l0,0,0,0,.11,0h0a.41.41,0,0,0,.16,0l0,0-.17-.1.18.1a.12.12,0,0,0,.07-.15.16.16,0,0,0-.08-.09.33.33,0,0,0-.14,0,.45.45,0,0,0-.26,0h0l0,0a.14.14,0,0,0-.05.09,0,0,0,0,0,0,0Z"/><path class="cls-24" d="M140,163.78a.49.49,0,0,0,.41,0,.13.13,0,0,0,0-.24.49.49,0,0,0-.41,0A.13.13,0,0,0,140,163.78Z"/><path class="cls-24" d="M139,163.19a.41.41,0,0,0,.4,0,.12.12,0,0,0,0-.23.41.41,0,0,0-.4,0C138.91,163,138.91,163.13,139,163.19Z"/><path class="cls-24" d="M138,163.19a.43.43,0,0,0,.41,0,.12.12,0,0,0,0-.23.43.43,0,0,0-.41,0A.12.12,0,0,0,138,163.19Z"/><path class="cls-24" d="M139,163.78a.49.49,0,0,0,.41,0,.13.13,0,0,0,0-.24.49.49,0,0,0-.41,0A.13.13,0,0,0,139,163.78Z"/><path class="cls-24" d="M139,162.6a.43.43,0,0,0,.41,0,.12.12,0,0,0,0-.23.43.43,0,0,0-.41,0A.12.12,0,0,0,139,162.6Z"/><path class="cls-24" d="M140,163.19a.43.43,0,0,0,.41,0,.12.12,0,0,0,0-.23.43.43,0,0,0-.41,0A.12.12,0,0,0,140,163.19Z"/><path class="cls-24" d="M141.06,163.19l.16-.1-.16.1a.47.47,0,0,0,.4,0l-.2-.12h0l.2.12s0,0,.06-.05,0-.14-.06-.18a.41.41,0,0,0-.31,0l-.1,0C140.94,163,140.94,163.13,141.06,163.19Z"/><path class="cls-24" d="M140,162.6a.41.41,0,0,0,.4,0h0a.18.18,0,0,0,.07,0c0-.06,0-.13-.07-.18a.46.46,0,0,0-.31,0,.25.25,0,0,0-.09,0l.27.15-.27-.15A.12.12,0,0,0,140,162.6Z"/><path class="cls-24" d="M138,165a.43.43,0,0,0,.41,0,.12.12,0,0,0,0-.23.43.43,0,0,0-.41,0A.12.12,0,0,0,138,165Z"/><path class="cls-24" d="M137,164.37a.47.47,0,0,0,.4,0,.13.13,0,0,0,0-.24.49.49,0,0,0-.41,0C136.89,164.2,136.89,164.3,137,164.37Z"/><path class="cls-24" d="M136,164.37a.49.49,0,0,0,.41,0,.13.13,0,0,0,0-.24.49.49,0,0,0-.41,0A.13.13,0,0,0,136,164.37Z"/><path class="cls-24" d="M137,165a.41.41,0,0,0,.4,0c.12-.06.12-.17,0-.23a.41.41,0,0,0-.4,0A.12.12,0,0,0,137,165Z"/><path class="cls-24" d="M137,163.78a.49.49,0,0,0,.41,0,.13.13,0,0,0,0-.24.49.49,0,0,0-.41,0A.13.13,0,0,0,137,163.78Z"/><path class="cls-24" d="M138,164.37a.49.49,0,0,0,.41,0c.11-.07.11-.17,0-.24a.47.47,0,0,0-.4,0A.13.13,0,0,0,138,164.37Z"/><path class="cls-24" d="M139,164.34l0,0h0l.05,0,.1,0h.06l.16,0,0,0-.06,0,.06,0a.22.22,0,0,0,.08-.09c0-.05,0-.11-.08-.15a.45.45,0,0,0-.26,0l-.15,0,0,0a.1.1,0,0,0-.05.09v0Z"/><path class="cls-24" d="M138,163.75l0,0,0,0,.1,0h.06a.45.45,0,0,0,.16,0l0,0h0a.22.22,0,0,0,.08-.09c0-.05,0-.11-.08-.15a.45.45,0,0,0-.26,0,.33.33,0,0,0-.14,0h0l0,0a.14.14,0,0,0,0,.09,0,0,0,0,0,0,0Z"/><path class="cls-24" d="M136,166.13a.49.49,0,0,0,.41,0,.13.13,0,0,0,0-.24.49.49,0,0,0-.41,0A.13.13,0,0,0,136,166.13Z"/><path class="cls-24" d="M135,165.54a.43.43,0,0,0,.41,0,.12.12,0,0,0,0-.23.43.43,0,0,0-.41,0A.12.12,0,0,0,135,165.54Z"/><path class="cls-24" d="M134,165.54a.43.43,0,0,0,.41,0c.11-.06.11-.17,0-.23a.41.41,0,0,0-.4,0A.12.12,0,0,0,134,165.54Z"/><path class="cls-24" d="M135,166.13a.47.47,0,0,0,.4,0,.13.13,0,0,0,0-.24.47.47,0,0,0-.4,0C134.87,166,134.87,166.06,135,166.13Z"/><path class="cls-24" d="M135,165a.43.43,0,0,0,.41,0c.11-.06.11-.17,0-.23a.41.41,0,0,0-.4,0A.12.12,0,0,0,135,165Z"/><path class="cls-24" d="M136,165.54a.41.41,0,0,0,.4,0c.12-.06.11-.17,0-.23a.41.41,0,0,0-.4,0A.12.12,0,0,0,136,165.54Z"/><path class="cls-24" d="M137,165.51l0,0h0l.05,0,.1,0h.05a.41.41,0,0,0,.16,0l0,0h0a.14.14,0,0,0,.08-.15.15.15,0,0,0-.08-.08.44.44,0,0,0-.15-.05.38.38,0,0,0-.26.05l0,0a.12.12,0,0,0,0,.09v0S137,165.5,137,165.51Zm.23-.09.07,0-.07,0-.07.05Z"/><path class="cls-24" d="M136,164.93l0,0,0,0a.19.19,0,0,0,.1,0h.06a.37.37,0,0,0,.15,0l.05,0h0c.07,0,.1-.09.08-.15a.15.15,0,0,0-.08-.08.38.38,0,0,0-.15-.05.4.4,0,0,0-.25.05h0l0,0a.11.11,0,0,0-.05.09v0S135.94,164.91,136,164.93Z"/><path class="cls-24" d="M134,167.3a.43.43,0,0,0,.41,0c.11-.06.11-.17,0-.23a.41.41,0,0,0-.4,0A.12.12,0,0,0,134,167.3Z"/><path class="cls-24" d="M133,166.72a.49.49,0,0,0,.41,0,.13.13,0,0,0,0-.24.49.49,0,0,0-.41,0A.13.13,0,0,0,133,166.72Z"/><path class="cls-24" d="M132,166.72a.47.47,0,0,0,.4,0c.12-.07.11-.17,0-.24a.47.47,0,0,0-.4,0A.13.13,0,0,0,132,166.72Z"/><path class="cls-24" d="M133,167.3a.41.41,0,0,0,.4,0,.12.12,0,0,0,0-.23.43.43,0,0,0-.41,0C132.85,167.13,132.85,167.24,133,167.3Z"/><path class="cls-24" d="M133,166.13a.47.47,0,0,0,.4,0c.12-.07.12-.17,0-.24a.47.47,0,0,0-.4,0A.13.13,0,0,0,133,166.13Z"/><path class="cls-24" d="M134,166.72a.47.47,0,0,0,.4,0,.13.13,0,0,0,0-.24.49.49,0,0,0-.41,0C133.86,166.55,133.86,166.65,134,166.72Z"/><path class="cls-24" d="M135,166.72l.13-.08-.13.08a.5.5,0,0,0,.36,0l0,0-.2-.12h0l.21.12a.18.18,0,0,0,.07-.09s0-.11-.08-.15a.42.42,0,0,0-.25,0l-.15,0,0,0C134.88,166.57,134.89,166.66,135,166.72Z"/><path class="cls-24" d="M134,166.13a.52.52,0,0,0,.37,0l0,0h0a.22.22,0,0,0,.08-.09.14.14,0,0,0-.08-.15.45.45,0,0,0-.26,0,.37.37,0,0,0-.15,0l.39.23-.39-.23,0,0C133.86,166,133.87,166.07,134,166.13Z"/><path class="cls-24" d="M132,168.48a.47.47,0,0,0,.4,0c.12-.07.11-.17,0-.24a.47.47,0,0,0-.4,0C131.84,168.31,131.85,168.41,132,168.48Z"/><path class="cls-24" d="M130.94,167.89a.43.43,0,0,0,.41,0c.11-.06.11-.17,0-.23a.41.41,0,0,0-.4,0A.12.12,0,0,0,130.94,167.89Z"/><path class="cls-24" d="M129.93,167.89a.43.43,0,0,0,.4,0,.12.12,0,0,0,0-.23.41.41,0,0,0-.4,0C129.81,167.72,129.81,167.83,129.93,167.89Z"/><path class="cls-24" d="M130.94,168.48a.49.49,0,0,0,.41,0,.13.13,0,0,0,0-.24.49.49,0,0,0-.41,0A.13.13,0,0,0,130.94,168.48Z"/><path class="cls-24" d="M130.94,167.3a.41.41,0,0,0,.4,0,.12.12,0,0,0,0-.23.41.41,0,0,0-.4,0C130.82,167.13,130.82,167.24,130.94,167.3Z"/><path class="cls-24" d="M132,167.89a.43.43,0,0,0,.41,0,.12.12,0,0,0,0-.23.43.43,0,0,0-.41,0A.12.12,0,0,0,132,167.89Z"/><path class="cls-24" d="M132.93,167.86l0,0h0l0,0,.11,0h0a.41.41,0,0,0,.16,0l0,0h0c.07,0,.1-.1.08-.15a.13.13,0,0,0-.08-.08.34.34,0,0,0-.14,0,.37.37,0,0,0-.26,0,.05.05,0,0,0,0,0,.14.14,0,0,0-.05.09s0,0,0,0A.09.09,0,0,0,132.93,167.86Z"/><path class="cls-24" d="M131.92,167.28l0,0,.05,0,.1,0h.05a.41.41,0,0,0,.16,0l.05,0h0a.13.13,0,0,0,.08-.15.2.2,0,0,0-.08-.08.44.44,0,0,0-.15,0,.45.45,0,0,0-.26,0h0l0,0a.13.13,0,0,0,0,.1v0A.13.13,0,0,0,131.92,167.28Z"/><path class="cls-24" d="M129.94,169.65a.41.41,0,0,0,.4,0,.12.12,0,0,0,0-.23.41.41,0,0,0-.4,0C129.82,169.48,129.82,169.59,129.94,169.65Z"/><path class="cls-24" d="M128.92,169.07a.47.47,0,0,0,.4,0c.12-.07.12-.17,0-.24a.47.47,0,0,0-.4,0A.13.13,0,0,0,128.92,169.07Z"/><path class="cls-24" d="M127.9,169.07a.49.49,0,0,0,.41,0,.13.13,0,0,0,0-.24.49.49,0,0,0-.41,0A.13.13,0,0,0,127.9,169.07Z"/><path class="cls-24" d="M128.92,169.65a.43.43,0,0,0,.41,0,.12.12,0,0,0,0-.23.43.43,0,0,0-.41,0A.12.12,0,0,0,128.92,169.65Z"/><path class="cls-24" d="M128.92,168.48a.47.47,0,0,0,.4,0,.13.13,0,0,0,0-.24.49.49,0,0,0-.41,0C128.8,168.31,128.8,168.41,128.92,168.48Z"/><path class="cls-24" d="M129.93,169.07a.49.49,0,0,0,.41,0,.13.13,0,0,0,0-.24.49.49,0,0,0-.41,0A.13.13,0,0,0,129.93,169.07Z"/><path class="cls-24" d="M130.91,169l0,0h0l0,0,.11,0h.05a.45.45,0,0,0,.16,0l0,0h0c.07,0,.1-.1.08-.15a.14.14,0,0,0-.08-.09.53.53,0,0,0-.15-.05.42.42,0,0,0-.25.05l0,0a.12.12,0,0,0,0,.09,0,0,0,0,0,0,0A.21.21,0,0,0,130.91,169Zm.24-.09.15.08-.15-.08L131,169Z"/><path class="cls-24" d="M129.89,168.45l0,0,0,0,.11,0h0a.38.38,0,0,0,.16,0l.05,0-.41-.24.41.24a.12.12,0,0,0,.07-.15.16.16,0,0,0-.08-.09.33.33,0,0,0-.14,0,.45.45,0,0,0-.26,0h0l0,0a.11.11,0,0,0,0,.09v0Z"/><path class="cls-24" d="M127.91,170.83a.49.49,0,0,0,.41,0,.13.13,0,0,0,0-.24.49.49,0,0,0-.41,0A.13.13,0,0,0,127.91,170.83Z"/><path class="cls-24" d="M126.9,170.24a.47.47,0,0,0,.4,0c.11-.07.11-.17,0-.23a.41.41,0,0,0-.4,0C126.78,170.07,126.78,170.17,126.9,170.24Z"/><path class="cls-24" d="M125.88,170.24a.49.49,0,0,0,.41,0c.11-.07.11-.17,0-.23a.43.43,0,0,0-.41,0C125.77,170.07,125.77,170.17,125.88,170.24Z"/><path class="cls-24" d="M126.9,170.83a.49.49,0,0,0,.41,0c.11-.07.11-.17,0-.24a.47.47,0,0,0-.4,0A.13.13,0,0,0,126.9,170.83Z"/><path class="cls-24" d="M126.89,169.65a.43.43,0,0,0,.41,0,.12.12,0,0,0,0-.23.43.43,0,0,0-.41,0A.12.12,0,0,0,126.89,169.65Z"/><path class="cls-24" d="M127.91,170.24a.49.49,0,0,0,.41,0c.11-.07.11-.17,0-.23a.43.43,0,0,0-.41,0C127.8,170.07,127.8,170.17,127.91,170.24Z"/><path class="cls-24" d="M128.93,170.24l.2-.12h0l-.21.12a.47.47,0,0,0,.37,0l0,0-.2-.11.2.11a.14.14,0,0,0,.08-.09c0-.05,0-.1-.08-.14a.38.38,0,0,0-.26,0,.44.44,0,0,0-.15,0l0,0C128.81,170.1,128.83,170.18,128.93,170.24Z"/><path class="cls-24" d="M127.91,169.65a.45.45,0,0,0,.36,0l0,0-.13-.08.13.08a.13.13,0,0,0,.08-.08c0-.06,0-.11-.08-.15a.45.45,0,0,0-.26,0,.34.34,0,0,0-.14,0h0a.05.05,0,0,0,0,0A.12.12,0,0,0,127.91,169.65Z"/><path class="cls-24" d="M125.89,172a.43.43,0,0,0,.41,0,.12.12,0,0,0,0-.23.43.43,0,0,0-.41,0A.12.12,0,0,0,125.89,172Z"/><path class="cls-24" d="M124.88,171.41a.41.41,0,0,0,.4,0,.12.12,0,0,0,0-.23.43.43,0,0,0-.41,0C124.76,171.24,124.76,171.35,124.88,171.41Z"/><path class="cls-24" d="M123.86,171.41a.43.43,0,0,0,.41,0,.12.12,0,0,0,0-.23.43.43,0,0,0-.41,0A.12.12,0,0,0,123.86,171.41Z"/><path class="cls-24" d="M124.88,172a.41.41,0,0,0,.4,0c.12-.06.12-.17,0-.23a.41.41,0,0,0-.4,0A.12.12,0,0,0,124.88,172Z"/><path class="cls-24" d="M124.87,170.83a.49.49,0,0,0,.41,0,.13.13,0,0,0,0-.24.49.49,0,0,0-.41,0A.13.13,0,0,0,124.87,170.83Z"/><path class="cls-24" d="M125.89,171.41a.43.43,0,0,0,.41,0c.11-.06.11-.17,0-.23a.41.41,0,0,0-.4,0A.12.12,0,0,0,125.89,171.41Z"/><path class="cls-24" d="M126.87,171.39l0,0,.1,0-.09.06h0a.17.17,0,0,0,.1,0h0a.47.47,0,0,0,.17,0h0l-.18-.11.18.1c.07,0,.1-.09.08-.14a.14.14,0,0,0-.08-.09l-.15-.05a.45.45,0,0,0-.26.05l0,0a.1.1,0,0,0-.05.09v0Z"/><path class="cls-24" d="M125.85,170.8l0,0,0,0,.11,0h0a.29.29,0,0,0,.16,0l0,0h0c.07,0,.1-.1.08-.15a.22.22,0,0,0-.08-.09.33.33,0,0,0-.15,0,.42.42,0,0,0-.25,0l.22.13-.23-.13,0,0a.14.14,0,0,0,0,.09,0,0,0,0,0,0,0S125.83,170.78,125.85,170.8Z"/><path class="cls-24" d="M124.07,172.05a.45.45,0,0,0,.16,0l0,0-.3-.17.3.17c.07,0,.1-.09.08-.15a.15.15,0,0,0-.08-.08.33.33,0,0,0-.15-.05.45.45,0,0,0-.26.05h0l0,0a.09.09,0,0,0,0,.09v0a.18.18,0,0,0,0,.07l0,0,0,0a.38.38,0,0,0,.1,0Z"/><path class="cls-28" d="M137.31,149.31a14.83,14.83,0,0,0-8.65,2.07c-2.31,1.25-4.92,2.76-7.52,3.05a6.92,6.92,0,0,0-1-6.42,8.61,8.61,0,0,0-5.72-3.28,12.09,12.09,0,0,0-6.75,1.09,12.46,12.46,0,0,0-4.8-15.1l-4-.59-4,.59a12.46,12.46,0,0,0-4.8,15.1,12.09,12.09,0,0,0-6.75-1.09A8.61,8.61,0,0,0,77.66,148a6.92,6.92,0,0,0-1,6.42c-2.6-.29-5.21-1.8-7.52-3.05a14.83,14.83,0,0,0-8.65-2.07c-3,.36-5.92,2.34-6.72,5.24,0,0,5.74,10.47,18.83,19.1a47.65,47.65,0,0,0,52.59,0C138.28,165,144,154.55,144,154.55,143.23,151.65,140.3,149.67,137.31,149.31Z"/><path class="cls-7" d="M94,126.73a1.52,1.52,0,0,0-1,.27c-1.66,1.06-2.88,3.86-3.39,5.67a9.92,9.92,0,0,0,.3,6.5,3.37,3.37,0,0,1,2.39-3.51,29.63,29.63,0,0,0-.84,4.57,7.76,7.76,0,0,0,.45,4c.64,1.36,1.9,2.3,2.87,3.45A9.4,9.4,0,0,1,97,153.19a7.83,7.83,0,0,0,6-3.51,23.37,23.37,0,0,0,3-6.62,2.68,2.68,0,0,1,1.65,1.88,5.21,5.21,0,0,1,0,2.66,15.22,15.22,0,0,0-1.52-21.07l-8.54.52a9.4,9.4,0,0,1-2.7-.14A5.63,5.63,0,0,0,94,126.73Z"/><path class="cls-29" d="M92.82,128.35a3.56,3.56,0,0,0,.37,4.6,1.9,1.9,0,0,1,1-1.67c-.51,2.75-.89,6,0,8.66a24.13,24.13,0,0,0,2.57,4.48,8.09,8.09,0,0,1,1.53,4.84c2.16-.86,3.43-3,4.19-5.22a22.83,22.83,0,0,0,.93-6.89,5,5,0,0,1,1.11,3.21,9.42,9.42,0,0,0,3.57-7.4,9.15,9.15,0,0,0-3.8-7.14,8.41,8.41,0,0,0-4.27-1.22,7.64,7.64,0,0,0-1.85,0,5,5,0,0,0-1.7.64A12.43,12.43,0,0,0,92.82,128.35Z"/><path class="cls-30" d="M103.06,149.67a23.19,23.19,0,0,0,3-6.61,2.68,2.68,0,0,1,1.65,1.88,5.21,5.21,0,0,1,0,2.66,15.22,15.22,0,0,0-1.52-21.07l-4.33.26L99,130.9s4.06,9.32-2,22.29A7.82,7.82,0,0,0,103.06,149.67Z"/><path class="cls-31" d="M90.13,78c1.92,1,4.94,4.39,2.54,16.42a2.25,2.25,0,0,1-.75,1.26,20.16,20.16,0,0,0-6.8,13.72c0,.52-.88.69-1.2.24-2.79-3.85-8.82-15.4,4.25-31.3A1.64,1.64,0,0,1,90.13,78Z"/><ellipse class="cls-32" cx="99.78" cy="127.06" rx="8.51" ry="3.86"/><ellipse class="cls-33" cx="99.78" cy="124.37" rx="9.55" ry="4.33"/><path class="cls-34" d="M110.78,120.82a3,3,0,0,1-.19.63s0,0,0,.06h0a6.5,6.5,0,0,1-2.94,3,17.26,17.26,0,0,1-15.62,0,8.67,8.67,0,0,1-1.87-1.43,5.29,5.29,0,0,1-1.07-1.62,3.92,3.92,0,0,1-.22-.74,131.3,131.3,0,0,1-3.92-17.25,127.49,127.49,0,0,1-1.53-24,87.25,87.25,0,0,1,1.79-16.12l14.63.74h0l14.64-.74S120.49,88.36,110.78,120.82Z"/><path class="cls-35" d="M87.15,71.56a1.08,1.08,0,1,1-1-1.11A1.07,1.07,0,0,1,87.15,71.56Z"/><path class="cls-35" d="M92.19,73.56a1.08,1.08,0,1,1-1-1.11A1.08,1.08,0,0,1,92.19,73.56Z"/><path class="cls-35" d="M97.79,75.24a1.08,1.08,0,1,1-2.15-.08,1.08,1.08,0,0,1,2.15.08Z"/><path class="cls-35" d="M104.2,75.47a1.08,1.08,0,1,1-1-1.11A1.07,1.07,0,0,1,104.2,75.47Z"/><path class="cls-35" d="M110.62,74.24a1.08,1.08,0,1,1-1-1.11A1.07,1.07,0,0,1,110.62,74.24Z"/><path class="cls-35" d="M115,71a1.08,1.08,0,1,1-1-1.12A1.09,1.09,0,0,1,115,71Z"/><path class="cls-35" d="M89.91,111.37a1.08,1.08,0,1,1-1.17-1A1.08,1.08,0,0,1,89.91,111.37Z"/><path class="cls-35" d="M95.16,113.05a1.08,1.08,0,1,1-1.17-1A1.09,1.09,0,0,1,95.16,113.05Z"/><path class="cls-35" d="M100.92,114a1.07,1.07,0,1,1-1.17-1A1.08,1.08,0,0,1,100.92,114Z"/><path class="cls-35" d="M107.32,113.43a1.08,1.08,0,1,1-1.17-1A1.08,1.08,0,0,1,107.32,113.43Z"/><path class="cls-35" d="M113.53,110.75a1.07,1.07,0,1,1-1.17-1A1.08,1.08,0,0,1,113.53,110.75Z"/><ellipse class="cls-32" cx="99.82" cy="63.43" rx="14.63" ry="8.45"/><ellipse class="cls-31" cx="99.82" cy="62.01" rx="14.63" ry="8.45"/><path class="cls-31" d="M98.14,38.31c-3.85,5-13,17.35-13,23.54h29.26c0-6.19-9.1-18.58-12.94-23.54A2.13,2.13,0,0,0,98.14,38.31Z"/><path class="cls-35" d="M110.17,114.67c-5.72,3.3-15,3.3-20.7,0a10.5,10.5,0,0,1-2.83-2.3c.62,2.73,1.35,5.54,2.21,8.4a3.92,3.92,0,0,0,.22.74,5.29,5.29,0,0,0,1.07,1.62A8.67,8.67,0,0,0,92,124.56a17.26,17.26,0,0,0,15.62,0,6.5,6.5,0,0,0,2.94-3h0s0,0,0-.06a3,3,0,0,0,.19-.63c.87-2.89,1.6-5.71,2.23-8.47A10.26,10.26,0,0,1,110.17,114.67Z"/><path class="cls-36" d="M112.3,115.33a28.11,28.11,0,0,1,4.13,13.32.64.64,0,0,0,1.2.29c2.6-4.38,8-16.94-1.81-34.35,1.65-18.73-1.36-31.16-1.36-31.16h0a5.78,5.78,0,0,0,0-.71,5.08,5.08,0,0,0,0-.87h0c0-6.19-9.1-18.58-12.94-23.54a2.15,2.15,0,0,0-2.45-.69c.84,2.57,12.86,41.16,0,93.28h.76c4.7,0,8.52-1.72,8.52-3.85a1.72,1.72,0,0,0-.12-.63,2.72,2.72,0,0,0,1.15-2.06,2.17,2.17,0,0,0-.2-.89,5.42,5.42,0,0,0,1.44-2h0s0,0,0-.06a3,3,0,0,0,.19-.63q.3-1,.57-1.95l.12-.45c.17-.61.34-1.21.5-1.81l0-.1C112.1,116.12,112.2,115.73,112.3,115.33Z"/><path class="cls-37" d="M117.73,98.14c9.91,5.72,9.91,15,0,20.72s-26,5.72-35.89,0c-9-5.17-9.82-13.25-2.58-19"/><path class="cls-35" d="M96.09,101.15C93.91,107,89,108,84.93,103.52a127.49,127.49,0,0,1-1.53-24C86,77,89.63,77.49,92.7,81.19,96.82,86.16,98.34,95.09,96.09,101.15Z"/><path class="cls-38" d="M94.1,99.74c-1.84,5-6,5.8-9.42,2a107.28,107.28,0,0,1-1.29-20.22c2.18-2.13,5.26-1.74,7.85,1.38C94.71,87.1,96,94.63,94.1,99.74Z"/><path class="cls-39" d="M94.1,99.74c-1.84,5-6,5.8-9.42,2a107.28,107.28,0,0,1-1.29-20.22c2.18-2.13,5.26-1.74,7.85,1.38C94.71,87.1,96,94.63,94.1,99.74Z"/><path class="cls-40" d="M84.55,100.9c0,.28.08.56.13.84,2.79,3.1,6.06,3.11,8.18.33C90.47,103.71,87.32,103.37,84.55,100.9Z"/><path class="cls-31" d="M111.42,90.22c-1.91,1.19-4.94,5.38-2.54,20.1a2.85,2.85,0,0,0,.76,1.54,26.69,26.69,0,0,1,6.79,16.79.64.64,0,0,0,1.2.29c2.79-4.7,8.82-18.85-4.25-38.3A1.45,1.45,0,0,0,111.42,90.22Z"/><path class="cls-41" d="M113.38,90.64a1.45,1.45,0,0,0-2-.42,4.75,4.75,0,0,0-1,.81,1.4,1.4,0,0,1,.53.47c11.49,17.09,8.22,30.09,5.37,36.18,0,.32,0,.64.07,1a.64.64,0,0,0,1.2.29C120.42,124.24,126.45,110.09,113.38,90.64Z"/><path class="cls-42" d="M89.13,87.39c.36,2.41-.36,4.52-1.61,4.71s-2.58-1.61-2.94-4,.36-4.52,1.61-4.71S88.76,85,89.13,87.39Z"/><path class="cls-42" d="M92.36,90.33c0,1-.39,1.82-.89,1.82s-.89-.81-.89-1.82.4-1.81.89-1.81S92.36,89.33,92.36,90.33Z"/><path class="cls-42" d="M90.16,54c.32.24.94-.21,1.24-.53A40.29,40.29,0,0,0,97,44.91a2,2,0,0,0,.31-1.14c-.24-1.24-1.6.27-2,.69A23.37,23.37,0,0,0,93,47.64a32.38,32.38,0,0,0-2.37,4A4.86,4.86,0,0,0,90,53.66.53.53,0,0,0,90.16,54Z"/><path class="cls-42" d="M89.83,57.4c-.35.84-.94,1.4-1.32,1.25s-.38-1,0-1.82.94-1.4,1.32-1.25S90.19,56.55,89.83,57.4Z"/><path class="cls-43" d="M110.3,49.83a56.77,56.77,0,0,1,19.83,6.57c17,9.83,17,25.77,0,35.6s-44.64,9.84-61.67,0-17-25.77,0-35.6a57,57,0,0,1,20.39-6.65"/><path class="cls-17" d="M155.92,72.77a2.79,2.79,0,0,0-.59-.27,4,4,0,0,0,.38-1.79,9.41,9.41,0,0,0-4.26-7.38c-2.36-1.36-4.26-.26-4.26,2.46a3.85,3.85,0,0,0,0,.48,7.64,7.64,0,0,0-.69-.47c-2.06-1.19-3.73-.22-3.73,2.15a6.48,6.48,0,0,0,.16,1.37l-8.53-1.89,21.5,12.41c1.69,1,3.06.19,3.06-1.77A6.77,6.77,0,0,0,155.92,72.77Z"/><path class="cls-17" d="M174.09,101.8a1.48,1.48,0,0,0-.32-.14,2.19,2.19,0,0,0,.21-1,5.13,5.13,0,0,0-2.32-4c-1.28-.74-2.31-.14-2.31,1.34a2.26,2.26,0,0,0,0,.26A3.11,3.11,0,0,0,169,98c-1.12-.65-2-.13-2,1.17a3.18,3.18,0,0,0,.09.74l-4.64-1,11.68,6.75c.92.53,1.67.1,1.67-1A3.68,3.68,0,0,0,174.09,101.8Z"/><path class="cls-17" d="M47.77,98.83l-.32-.15a2.15,2.15,0,0,0,.2-1,5.12,5.12,0,0,0-2.31-4C44.06,93,43,93.56,43,95a2.44,2.44,0,0,0,0,.27,2.26,2.26,0,0,0-.37-.26c-1.12-.65-2-.12-2,1.17a3.18,3.18,0,0,0,.09.74l-4.64-1,11.69,6.75c.92.53,1.66.1,1.66-1A3.67,3.67,0,0,0,47.77,98.83Z"/><path class="cls-44" d="M50.12,133.28a.69.69,0,0,1-.69-.69V124.2a.69.69,0,0,1,1.38,0v8.39A.69.69,0,0,1,50.12,133.28Z"/><path class="cls-45" d="M54.62,123.94a4.5,4.5,0,0,1-9,0c0-2,2.76-7.44,4-9.73a.61.61,0,0,1,1.08,0C51.86,116.5,54.62,122,54.62,123.94Z"/><path class="cls-44" d="M63.06,135.06a.47.47,0,0,1-.46-.46V129a.47.47,0,0,1,.93,0v5.62A.47.47,0,0,1,63.06,135.06Z"/><path class="cls-45" d="M66.07,128.81a3,3,0,1,1-6,0c0-1.3,1.85-5,2.65-6.51a.42.42,0,0,1,.73,0C64.23,123.83,66.07,127.51,66.07,128.81Z"/><ellipse class="cls-46" cx="37.52" cy="145.57" rx="4.6" ry="1.99"/><ellipse class="cls-47" cx="153.99" cy="187.49" rx="4.6" ry="1.99"/><ellipse class="cls-48" cx="166.88" cy="180.35" rx="6.8" ry="2.11"/><ellipse class="cls-49" cx="46.56" cy="162.39" rx="4.6" ry="1.99"/><ellipse class="cls-50" cx="55.9" cy="166.77" rx="4.6" ry="1.99"/><ellipse class="cls-51" cx="143.56" cy="187.49" rx="4.6" ry="1.99"/><path class="cls-44" d="M35.41,145.07a.46.46,0,0,1-.46-.47V139a.46.46,0,0,1,.92,0v5.61A.46.46,0,0,1,35.41,145.07Z"/><path class="cls-45" d="M38.42,138.82a3,3,0,0,1-6,0c0-1.31,1.85-5,2.65-6.51a.4.4,0,0,1,.72,0C36.57,133.84,38.42,137.51,38.42,138.82Z"/><g class="cls-52"><path class="cls-53" d="M170.87,128.79l-10.07-5.56a.68.68,0,0,1-.33-.57l-.07-12.74a.66.66,0,0,1,1-.57l9.77,5.39a1.25,1.25,0,0,1,.62,1.08l.07,12.4A.65.65,0,0,1,170.87,128.79Z"/></g><line class="cls-54" x1="168.49" y1="118.49" x2="168.49" y2="125.46"/><line class="cls-54" x1="167.59" y1="117.71" x2="167.59" y2="124.92"/><line class="cls-54" x1="166.31" y1="120.21" x2="166.31" y2="124.16"/><line class="cls-54" x1="165.58" y1="119.68" x2="165.58" y2="123.7"/><polyline class="cls-54" points="169.65 116.43 168.49 118.49 167.59 117.71 166.31 120.21 165.56 119.46 162.58 122.06"/><polyline class="cls-54" points="169.65 115.63 169.65 126.14 162.17 121.81"/><path class="cls-55" d="M171.59,110.81a.85.85,0,1,1-.85-.85A.85.85,0,0,1,171.59,110.81Z"/><path class="cls-55" d="M164.43,127.23a.49.49,0,1,1-.49-.48A.49.49,0,0,1,164.43,127.23Z"/><path class="cls-55" d="M168.42,110.52a.49.49,0,0,1-.48.48.48.48,0,0,1-.48-.48.47.47,0,0,1,.48-.48A.48.48,0,0,1,168.42,110.52Z"/><path class="cls-55" d="M158.48,117.3a.49.49,0,1,1-.48-.48A.48.48,0,0,1,158.48,117.3Z"/><g class="cls-52"><path class="cls-56" d="M170.87,151.05l-10.07-5.57a.65.65,0,0,1-.33-.57l-.07-12.73a.66.66,0,0,1,1-.58l9.77,5.4a1.24,1.24,0,0,1,.62,1.07l.07,12.4A.66.66,0,0,1,170.87,151.05Z"/></g><path class="cls-57" d="M171.72,133.5a.84.84,0,1,1-1.68,0,.84.84,0,0,1,1.68,0Z"/><path class="cls-57" d="M164.56,149.93a.48.48,0,0,1-.48.48.48.48,0,0,1,0-1A.48.48,0,0,1,164.56,149.93Z"/><path class="cls-57" d="M168.55,133.21a.48.48,0,0,1-.48.49.49.49,0,0,1,0-1A.48.48,0,0,1,168.55,133.21Z"/><path class="cls-57" d="M158.61,140a.48.48,0,1,1-.48-.48A.48.48,0,0,1,158.61,140Z"/><polygon class="cls-17" points="164.07 144.74 162.14 143.63 162.14 137.84 164.07 138.96 164.07 144.74"/><polygon class="cls-17" points="166.75 146.29 164.82 145.18 164.82 141.14 166.75 142.25 166.75 146.29"/><polygon class="cls-17" points="169.39 147.82 167.46 146.7 167.46 143.96 169.39 145.08 169.39 147.82"/><path class="cls-24" d="M58.7,134.2v2.54a2.81,2.81,0,0,1-3.94,2.56,2.53,2.53,0,0,1-.23-.12l-.27-.15-.36-.2-.55-.31a1,1,0,0,1-.21-.14,1.8,1.8,0,0,1-.71-1.42V134.2a3.14,3.14,0,0,1,1.9-2.88,3.19,3.19,0,0,1,1.24-.25h.25a3,3,0,0,1,1.54.55,2.79,2.79,0,0,1,.42.35,1.22,1.22,0,0,1,.15.17A3.11,3.11,0,0,1,58.7,134.2Z"/><path class="cls-58" d="M55.82,131.08a1.86,1.86,0,0,0-.6.44A5.62,5.62,0,0,0,54,134.14a9,9,0,0,0-.17,3.68,4.28,4.28,0,0,1,.11,1l-.55-.31a1,1,0,0,1-.21-.14,21.43,21.43,0,0,1,.61-5.46,6,6,0,0,1,.58-1.6,3.19,3.19,0,0,1,1.24-.25Z"/><path class="cls-58" d="M57.93,132.15l-.22,0c-.29,0-.58,0-.87,0a1.76,1.76,0,0,0-1.31.83,3.86,3.86,0,0,0-.54,1.51,21.57,21.57,0,0,0-.23,4.25v.52a2.53,2.53,0,0,1-.23-.12l-.27-.15a16.44,16.44,0,0,1,.24-5,4.11,4.11,0,0,1,.25-1,2.4,2.4,0,0,1,1.62-1.23,6.45,6.45,0,0,1,1-.19,2.79,2.79,0,0,1,.42.35A1.22,1.22,0,0,1,57.93,132.15Z"/><path class="cls-59" d="M58.7,134.2v2.54a2.81,2.81,0,0,1-3.94,2.56,2.53,2.53,0,0,1-.23-.12l-.27-.15-.36-.2-.55-.31a1,1,0,0,1-.21-.14,1.8,1.8,0,0,1-.71-1.42V134.2a3.14,3.14,0,0,1,1.9-2.88,3.19,3.19,0,0,1,1.24-.25h.25a3,3,0,0,1,1.54.55,2.79,2.79,0,0,1,.42.35,1.22,1.22,0,0,1,.15.17A3.11,3.11,0,0,1,58.7,134.2Z"/><path class="cls-24" d="M58.21,140.23l-1.48-.84V136.7A2.21,2.21,0,0,1,59,134.49h0a2.21,2.21,0,0,1,2.21,2.21v1.8A2,2,0,0,1,58.21,140.23Z"/><path class="cls-60" d="M58.21,140.23l-1.48-.84V136.7A2.21,2.21,0,0,1,59,134.49h0a2.21,2.21,0,0,1,2.21,2.21v1.8A2,2,0,0,1,58.21,140.23Z"/><path class="cls-22" d="M60.47,135.8c0,.35-.39.63-.87.63s-.87-.28-.87-.63.39-.63.87-.63S60.47,135.45,60.47,135.8Z"/><path class="cls-22" d="M60.44,137.55c-.16,0-.29-.17-.29-.39s.13-.4.29-.4.28.18.28.4S60.6,137.55,60.44,137.55Z"/><path class="cls-22" d="M57.78,133.16c0,.35-.39.63-.87.63s-.87-.28-.87-.63.39-.63.87-.63S57.78,132.81,57.78,133.16Z"/><path class="cls-24" d="M53.88,162.75V165a2.42,2.42,0,0,1-3.42,2.22l-.2-.09-.24-.14-.3-.17-.48-.27a1.22,1.22,0,0,1-.19-.12,1.56,1.56,0,0,1-.61-1.24v-2.39A2.72,2.72,0,0,1,51.16,160h.22a2.75,2.75,0,0,1,1.34.48,2.6,2.6,0,0,1,.36.3l.14.15A2.73,2.73,0,0,1,53.88,162.75Z"/><path class="cls-58" d="M51.38,160a1.79,1.79,0,0,0-.52.38,4.89,4.89,0,0,0-1.09,2.28,7.63,7.63,0,0,0-.15,3.19,4.4,4.4,0,0,1,.1.88l-.48-.27a1.22,1.22,0,0,1-.19-.12,18.94,18.94,0,0,1,.53-4.74,5.51,5.51,0,0,1,.51-1.39,2.73,2.73,0,0,1,1.07-.22Z"/><path class="cls-58" d="M53.22,161,53,161c-.25,0-.5,0-.76,0a1.53,1.53,0,0,0-1.13.73,3.55,3.55,0,0,0-.47,1.31,19.72,19.72,0,0,0-.2,3.69v.44l-.2-.09-.24-.14a14.37,14.37,0,0,1,.22-4.33,3.6,3.6,0,0,1,.21-.86,2.14,2.14,0,0,1,1.41-1.07,4.89,4.89,0,0,1,.86-.16,2.6,2.6,0,0,1,.36.3Z"/><path class="cls-61" d="M53.88,162.75V165a2.42,2.42,0,0,1-3.42,2.22l-.2-.09-.24-.14-.3-.17-.48-.27a1.22,1.22,0,0,1-.19-.12,1.56,1.56,0,0,1-.61-1.24v-2.39A2.72,2.72,0,0,1,51.16,160h.22a2.75,2.75,0,0,1,1.34.48,2.6,2.6,0,0,1,.36.3l.14.15A2.73,2.73,0,0,1,53.88,162.75Z"/><path class="cls-24" d="M53.46,168l-1.29-.72v-2.34A1.92,1.92,0,0,1,54.1,163h0A1.92,1.92,0,0,1,56,164.92v1.56A1.71,1.71,0,0,1,53.46,168Z"/><path class="cls-62" d="M53.46,168l-1.29-.72v-2.34A1.92,1.92,0,0,1,54.1,163h0A1.92,1.92,0,0,1,56,164.92v1.56A1.71,1.71,0,0,1,53.46,168Z"/><path class="cls-22" d="M55.42,164.14c0,.3-.34.54-.76.54s-.75-.24-.75-.54.34-.55.75-.55S55.42,163.83,55.42,164.14Z"/><path class="cls-22" d="M55.39,165.66c-.14,0-.25-.15-.25-.34s.11-.35.25-.35.25.16.25.35S55.53,165.66,55.39,165.66Z"/><path class="cls-22" d="M53.08,161.85c0,.3-.34.54-.75.54s-.76-.24-.76-.54.34-.55.76-.55S53.08,161.54,53.08,161.85Z"/><path class="cls-44" d="M45,163.23a.71.71,0,0,1-.71-.71V154a.71.71,0,1,1,1.41,0v8.51A.71.71,0,0,1,45,163.23Z"/><path class="cls-45" d="M49.51,153.74a4.57,4.57,0,1,1-9.13,0c0-2,2.8-7.55,4-9.87a.62.62,0,0,1,1.1,0C46.71,146.19,49.51,151.77,49.51,153.74Z"/><path class="cls-24" d="M139.36,182.15v2.54a2.8,2.8,0,0,0,3.94,2.55l.23-.11.27-.15.36-.2.55-.31.21-.14a1.8,1.8,0,0,0,.71-1.43v-2.75a3.13,3.13,0,0,0-1.9-2.88,3,3,0,0,0-1.24-.26l-.25,0a3,3,0,0,0-1.54.55,2.79,2.79,0,0,0-.42.35,1.22,1.22,0,0,0-.15.17A3.11,3.11,0,0,0,139.36,182.15Z"/><path class="cls-58" d="M142.24,179a2,2,0,0,1,.6.43,5.66,5.66,0,0,1,1.26,2.63,8.92,8.92,0,0,1,.17,3.67,4.43,4.43,0,0,0-.11,1l.55-.31.21-.14a21.33,21.33,0,0,0-.61-5.46,5.77,5.77,0,0,0-.58-1.6,3,3,0,0,0-1.24-.26Z"/><path class="cls-58" d="M140.13,180.1l.22.05c.29,0,.58,0,.87,0a1.74,1.74,0,0,1,1.31.84,4,4,0,0,1,.54,1.51,21.53,21.53,0,0,1,.23,4.25v.51l.23-.11.27-.15a16.44,16.44,0,0,0-.24-5,4.11,4.11,0,0,0-.25-1,2.4,2.4,0,0,0-1.62-1.23,4.7,4.7,0,0,0-1-.19,2.79,2.79,0,0,0-.42.35A1.22,1.22,0,0,0,140.13,180.1Z"/><path class="cls-63" d="M139.36,182.15v2.54a2.8,2.8,0,0,0,3.94,2.55l.23-.11.27-.15.36-.2.55-.31.21-.14a1.8,1.8,0,0,0,.71-1.43v-2.75a3.13,3.13,0,0,0-1.9-2.88,3,3,0,0,0-1.24-.26l-.25,0a3,3,0,0,0-1.54.55,2.79,2.79,0,0,0-.42.35,1.22,1.22,0,0,0-.15.17A3.11,3.11,0,0,0,139.36,182.15Z"/><path class="cls-24" d="M139.85,188.17l1.48-.83v-2.69a2.22,2.22,0,0,0-2.22-2.22h0a2.22,2.22,0,0,0-2.21,2.22v1.8A2,2,0,0,0,139.85,188.17Z"/><path class="cls-64" d="M139.85,188.17l1.48-.83v-2.69a2.22,2.22,0,0,0-2.22-2.22h0a2.22,2.22,0,0,0-2.21,2.22v1.8A2,2,0,0,0,139.85,188.17Z"/><path class="cls-22" d="M137.59,183.74c0,.35.39.64.87.64s.87-.29.87-.64-.39-.63-.87-.63S137.59,183.4,137.59,183.74Z"/><path class="cls-22" d="M137.62,185.5c.16,0,.29-.18.29-.4s-.13-.39-.29-.39-.28.18-.28.39S137.46,185.5,137.62,185.5Z"/><path class="cls-22" d="M140.28,181.11c0,.34.39.63.87.63s.87-.29.87-.63-.39-.64-.87-.64S140.28,180.76,140.28,181.11Z"/><path class="cls-44" d="M163.85,181.14a.83.83,0,0,1-.83-.83V170.24a.83.83,0,0,1,1.66,0v10.07A.83.83,0,0,1,163.85,181.14Z"/><path class="cls-45" d="M169.25,169.93a5.4,5.4,0,0,1-10.8,0c0-2.34,3.32-8.93,4.75-11.68a.74.74,0,0,1,1.3,0C165.94,161,169.25,167.59,169.25,169.93Z"/><path class="cls-44" d="M153.37,187a.62.62,0,0,1-.62-.62v-7.48a.62.62,0,0,1,1.24,0v7.48A.62.62,0,0,1,153.37,187Z"/><path class="cls-45" d="M157.38,178.63a4,4,0,1,1-8,0c0-1.73,2.46-6.63,3.53-8.67a.54.54,0,0,1,1,0C154.92,172,157.38,176.9,157.38,178.63Z"/><ellipse class="cls-65" cx="80.91" cy="185.09" rx="4.6" ry="1.99"/><ellipse class="cls-66" cx="85.27" cy="189.02" rx="3.84" ry="1.99"/><ellipse class="cls-67" cx="94.34" cy="188.75" rx="5.24" ry="2.26"/><path class="cls-44" d="M79.9,186.14a.47.47,0,0,1-.46-.47v-5.61a.47.47,0,0,1,.93,0v5.61A.47.47,0,0,1,79.9,186.14Z"/><path class="cls-45" d="M82.91,179.89a3,3,0,0,1-6,0c0-1.31,1.85-5,2.65-6.51a.42.42,0,0,1,.73,0C81.07,174.91,82.91,178.58,82.91,179.89Z"/><path class="cls-24" d="M82.49,184.87v2a2.17,2.17,0,0,0,3.06,2l.18-.09.21-.11.27-.16.44-.24.16-.11a1.4,1.4,0,0,0,.55-1.11v-2.14a2.43,2.43,0,0,0-1.48-2.24,2.39,2.39,0,0,0-1-.2h-.2a2.42,2.42,0,0,0-1.2.43,2.69,2.69,0,0,0-.32.27,1.42,1.42,0,0,0-.12.13A2.44,2.44,0,0,0,82.49,184.87Z"/><path class="cls-58" d="M84.72,182.44a1.77,1.77,0,0,1,.47.34,4.37,4.37,0,0,1,1,2,6.91,6.91,0,0,1,.13,2.86,4.16,4.16,0,0,0-.09.79l.44-.24.16-.11a17.37,17.37,0,0,0-.47-4.25,4.86,4.86,0,0,0-.46-1.24,2.39,2.39,0,0,0-1-.2Z"/><path class="cls-58" d="M83.08,183.27l.17,0c.23,0,.46,0,.68,0a1.41,1.41,0,0,1,1,.65,3,3,0,0,1,.42,1.18,17.31,17.31,0,0,1,.18,3.3v.4l.18-.09.21-.11a13.07,13.07,0,0,0-.19-3.89,3.14,3.14,0,0,0-.19-.76,1.9,1.9,0,0,0-1.26-1,4.15,4.15,0,0,0-.78-.15,2.69,2.69,0,0,0-.32.27A1.42,1.42,0,0,0,83.08,183.27Z"/><path class="cls-68" d="M82.49,184.87v2a2.17,2.17,0,0,0,3.06,2l.18-.09.21-.11.27-.16.44-.24.16-.11a1.4,1.4,0,0,0,.55-1.11v-2.14a2.43,2.43,0,0,0-1.48-2.24,2.39,2.39,0,0,0-1-.2h-.2a2.42,2.42,0,0,0-1.2.43,2.69,2.69,0,0,0-.32.27,1.42,1.42,0,0,0-.12.13A2.44,2.44,0,0,0,82.49,184.87Z"/><path class="cls-24" d="M82.86,189.56l1.15-.65v-2.09a1.72,1.72,0,0,0-1.72-1.73h0a1.72,1.72,0,0,0-1.72,1.73v1.39A1.54,1.54,0,0,0,82.86,189.56Z"/><path class="cls-69" d="M82.86,189.56l1.15-.65v-2.09a1.72,1.72,0,0,0-1.72-1.73h0a1.72,1.72,0,0,0-1.72,1.73v1.39A1.54,1.54,0,0,0,82.86,189.56Z"/><ellipse class="cls-22" cx="81.78" cy="186.11" rx="0.68" ry="0.49"/><path class="cls-22" d="M81.13,187.48c.13,0,.23-.14.23-.31s-.1-.31-.23-.31-.22.14-.22.31S81,187.48,81.13,187.48Z"/><ellipse class="cls-22" cx="83.88" cy="184.06" rx="0.68" ry="0.49"/><path class="cls-44" d="M91,189.3a.69.69,0,0,1-.69-.7v-8.39a.7.7,0,0,1,1.39,0v8.39A.7.7,0,0,1,91,189.3Z"/><path class="cls-45" d="M95.53,180a4.5,4.5,0,1,1-9,0c0-1.94,2.76-7.44,3.95-9.72a.62.62,0,0,1,1.09,0C92.77,172.51,95.53,178,95.53,180Z"/></g></g></g></svg>