<svg xmlns="http://www.w3.org/2000/svg" viewBox="0 0 379.45 382.65"><defs><style>.cls-1{opacity:0.5;}.cls-2{fill:#fe9b00;}.cls-10,.cls-3,.cls-7{fill:#fff;}.cls-3{opacity:0.15;}.cls-4{fill:#ffc624;}.cls-5{fill:#ffd54d;}.cls-6{fill:#e08700;}.cls-7{opacity:0.2;}.cls-8{opacity:0.3;}.cls-9{fill:#f7734f;}.cls-11{fill:#2f2530;}.cls-12{fill:#ed0a2f;}.cls-13{fill:#f78363;}.cls-14{fill:#f7a48d;}.cls-15{fill:#2a212b;}</style></defs><title>Asset 1</title><g id="Layer_2" data-name="Layer 2"><g id="OBJECT"><g class="cls-1"><path class="cls-2" d="M84.67,141.6l-4,4.77a3.41,3.41,0,0,1-.61.59l-.18.14c-1.39,1-3.49,1.26-6.11.9l-.38-.05-.84-.15a30,30,0,0,1-3.57-1,45.5,45.5,0,0,1-4.56-1.77l-.5-.23-.43-.2c-1.28-.59-2.6-1.26-4-2l-.23-.13c-1.25-.68-2.53-1.42-3.82-2.22-.72-.44-1.45-.9-2.18-1.37l-.56-.37a118.93,118.93,0,0,1-10.51-7.83l-.39-.32-.53-.45c-2.93-2.48-5.64-5-8.08-7.5-.56-.57-1.11-1.14-1.64-1.71l-.45-.48c-1.36-1.48-2.63-2.94-3.79-4.37-.79-1-1.52-1.92-2.21-2.86-.45-.61-.88-1.23-1.29-1.82-.1-.16-.2-.3-.3-.45a41.34,41.34,0,0,1-3.12-5.49,25.59,25.59,0,0,1-.95-2.38c0-.12-.08-.24-.11-.35-.74-2.37-.81-4.37-.13-5.85a2,2,0,0,1,.11-.2,3.8,3.8,0,0,1,.47-.71l4-4.77Z"/><path class="cls-3" d="M76.3,138.07,69,146.84a45.5,45.5,0,0,1-4.56-1.77l-.5-.23-.43-.2L72,134.47Z"/><path class="cls-3" d="M68.65,131.7l-9.09,10.94-.23-.13c-1.25-.68-2.53-1.42-3.82-2.22-.72-.44-1.45-.9-2.18-1.37l-.56-.37a118.93,118.93,0,0,1-10.51-7.83l-.39-.32-.53-.45c-2.93-2.48-5.64-5-8.08-7.5-.56-.57-1.11-1.14-1.64-1.71l-.45-.48c-1.36-1.48-2.63-2.94-3.79-4.37L36.47,105Z"/><path class="cls-3" d="M33.76,102.7,25.17,113c-.45-.61-.88-1.23-1.29-1.82-.1-.16-.2-.3-.3-.45a41.34,41.34,0,0,1-3.12-5.49l6.7-8.06Z"/><path class="cls-4" d="M84.67,141.6a3.86,3.86,0,0,1-.62.59.86.86,0,0,1-.18.14c-1.39,1-3.48,1.26-6.11.9l-.38-.06-.83-.14a38.94,38.94,0,0,1-8.14-2.74l-.5-.22c-1.48-.68-3-1.46-4.62-2.33-1.24-.68-2.53-1.43-3.82-2.22-.72-.44-1.44-.9-2.17-1.38-.19-.11-.38-.24-.57-.36A120.42,120.42,0,0,1,46.22,126l-.38-.32-.54-.46c-2.92-2.47-5.64-5-8.08-7.49-.56-.58-1.11-1.15-1.63-1.71l-.45-.49a78.32,78.32,0,0,1-7.3-9c-.1-.15-.2-.29-.29-.44a34.45,34.45,0,0,1-4.08-7.88c0-.11-.07-.23-.11-.35-.73-2.37-.8-4.36-.12-5.84a1.86,1.86,0,0,1,.1-.2,3.8,3.8,0,0,1,.47-.71,5.49,5.49,0,0,1,3.91-1.75,1.58,1.58,0,0,1,.31,0,14.27,14.27,0,0,1,3.57.27,29.35,29.35,0,0,1,4.72,1.29l.47.17a67.07,67.07,0,0,1,11.33,5.57l.55.33c1.16.71,2.35,1.47,3.55,2.26s2.6,1.78,3.91,2.74c1.73,1.26,3.46,2.59,5.2,4l.54.45.39.31c3.12,2.59,6,5.25,8.6,7.87.87.88,1.72,1.76,2.52,2.64l.44.48a72.17,72.17,0,0,1,8.07,10.46c.09.15.18.29.26.44a24.34,24.34,0,0,1,3.44,8.3c0,.1,0,.21,0,.31A5.68,5.68,0,0,1,84.67,141.6Z"/><path class="cls-5" d="M83.87,142.33,54.24,117.7l23.52,25.53-.38-.06L53.93,117.72l14.48,22.57-.5-.22L53.45,117.51l3.85,16.63c-.19-.11-.38-.24-.57-.36l-3.84-16.63-7,8.48-.54-.46,7.05-8.47L35.59,116l-.45-.49,16.75.74-24-9.79c-.1-.15-.2-.29-.29-.44l24.05,9.78L23.47,98.11c0-.11-.07-.23-.11-.35l28.2,17.71L23.24,91.92a1.86,1.86,0,0,1,.1-.2L51.71,115.3l-24-26a1.58,1.58,0,0,1,.31,0l24,26L36.32,90.81l.47.17L52.5,115.49,48.12,96.55l.55.33,4.39,19,8.27-10,.54.45-8.27,10,19.78.87.44.48-19.76-.86L81.89,128.1c.09.15.18.29.26.44l-27.8-11.32,31.24,19.62c0,.1,0,.21,0,.31L54.38,117.53l29.67,24.66A.86.86,0,0,1,83.87,142.33Z"/><ellipse class="cls-6" cx="54.24" cy="116.3" rx="10.48" ry="33.04" transform="translate(-69.87 83.66) rotate(-50.26)"/><ellipse class="cls-2" cx="54.24" cy="116.3" rx="9.38" ry="29.59" transform="translate(-69.87 83.66) rotate(-50.26)"/><path class="cls-7" d="M72.91,123.8,35.4,108.53c-2.73-4.29-3.67-7.85-2.16-9.67l26.56,10.8A67.36,67.36,0,0,1,72.91,123.8Z"/><path class="cls-7" d="M75.23,133.75a2.58,2.58,0,0,1-.57.52l-24.1-9.81c-.62-.49-1.24-1-1.85-1.5a76.33,76.33,0,0,1-10-10l36.41,14.82C76.15,130.41,76.28,132.49,75.23,133.75Z"/></g><path class="cls-2" d="M149.21,16.54q.78.87,1.5,1.77c.13.16.26.32.38.49a37.64,37.64,0,0,1,6.1,11.42c.07.18.13.38.19.56.11.37.21.73.32,1.09l0,.14c.25.93.46,1.86.63,2.8.14.67.24,1.36.33,2a32.56,32.56,0,0,1,.23,5.48l0,.56a3.87,3.87,0,0,1,0,.48c-.05.61-.11,1.22-.19,1.82q-.17,1.2-.42,2.37a2,2,0,0,1,0,.24,28.84,28.84,0,0,1-1.09,3.68c-.25.67-.52,1.32-.82,2-.08.17-.15.33-.24.5a26.1,26.1,0,0,1-6,8l-.28.24c-.14.13-.27.24-.41.35a25.94,25.94,0,0,1-7.25,4.32c-.6.23-1.2.45-1.81.63l-.52.17a28.91,28.91,0,0,1-4.9,1c-.8.08-1.6.14-2.4.16h-1c-.75,0-1.51,0-2.27-.08l-.56,0a34.36,34.36,0,0,1-6.48-1.27c-.3-.08-.6-.18-.9-.28-.65-.21-1.3-.45-1.94-.7s-1-.43-1.56-.66l-.54-.25a37.86,37.86,0,0,1-10.21-7c-.15-.13-.29-.28-.44-.42-.55-.54-1.08-1.1-1.61-1.68a39,39,0,0,1-6-8.76c-.09-.18-.18-.36-.26-.54a35.49,35.49,0,0,1-2.16-5.69c0-.12-.06-.24-.1-.36-.18-.66-.35-1.31-.49-2-.09-.39-.17-.79-.23-1.19A27.11,27.11,0,0,1,95.35,35c0-.19,0-.38,0-.57a32.32,32.32,0,0,1,.06-5.74,29.34,29.34,0,0,1,.53-3.38,25.22,25.22,0,0,1,.74-2.71c0-.12.07-.25.12-.37s.11-.34.17-.51a28,28,0,0,1,1.37-3.18,24.89,24.89,0,0,1,1.94-3.21,25.71,25.71,0,0,1,3.24-3.78l.38-.37.28-.25a26.06,26.06,0,0,1,7.52-4.74,25.49,25.49,0,0,1,2.78-1l.54-.15c.51-.14,1-.26,1.55-.37.92-.19,1.85-.34,2.78-.44a31.3,31.3,0,0,1,4.23-.17,37.51,37.51,0,0,1,3.93.36c.18,0,.37.07.56.09.66.12,1.32.25,2,.41s1.18.29,1.76.47a29.59,29.59,0,0,1,3.09,1,36.32,36.32,0,0,1,5.28,2.59l.52.3A39.65,39.65,0,0,1,149.21,16.54Z"/><path class="cls-3" d="M149.21,16.54q.78.87,1.5,1.77c.13.16.26.32.38.49a37.64,37.64,0,0,1,6.1,11.42c.07.18.13.38.19.56.11.37.21.73.32,1.09L119.3,66.43c-.52-.21-1-.43-1.56-.66l-.54-.25a37.86,37.86,0,0,1-10.21-7c-.15-.13-.29-.28-.44-.42-.55-.54-1.08-1.1-1.61-1.68a39,39,0,0,1-6-8.76c-.09-.18-.18-.36-.26-.54a35.49,35.49,0,0,1-2.16-5.69c0-.12-.06-.24-.1-.36L134.85,6.49a36.32,36.32,0,0,1,5.28,2.59l.52.3A39.65,39.65,0,0,1,149.21,16.54Z"/><path class="cls-3" d="M131.76,5.44l-36,32.42A27.11,27.11,0,0,1,95.35,35c0-.19,0-.38,0-.57a32.32,32.32,0,0,1,.06-5.74,29.34,29.34,0,0,1,.53-3.38,25.22,25.22,0,0,1,.74-2.71L116.52,4.72c.92-.19,1.85-.34,2.78-.44a31.3,31.3,0,0,1,4.23-.17,37.51,37.51,0,0,1,3.93.36c.18,0,.37.07.56.09.66.12,1.32.25,2,.41S131.18,5.26,131.76,5.44Z"/><path class="cls-3" d="M158.37,34.81c.14.67.24,1.36.33,2a32.56,32.56,0,0,1,.23,5.48l0,.56a3.87,3.87,0,0,1,0,.48c-.05.61-.11,1.22-.19,1.82L132.46,68.8h-1c-.75,0-1.51,0-2.27-.08l-.56,0a34.36,34.36,0,0,1-6.48-1.27Z"/><path class="cls-4" d="M153.76,12.44c.52.58,1,1.17,1.5,1.77.13.17.26.32.38.49a38,38,0,0,1,6.11,11.42l.18.56c.13.42.25.82.36,1.23a33.66,33.66,0,0,1,1.19,10.33c0,.2,0,.38,0,.57a30.3,30.3,0,0,1-1.79,8.59c-.25.66-.52,1.32-.82,2-.07.16-.15.33-.23.49a26.13,26.13,0,0,1-6,8l-.28.25-.4.34a26,26,0,0,1-7.26,4.32c-.6.23-1.2.45-1.81.64l-.52.16a29.7,29.7,0,0,1-10.57,1.06l-.57,0a34.36,34.36,0,0,1-10.88-2.91l-.54-.25a38.21,38.21,0,0,1-10.21-7L111.1,54c-.55-.54-1.08-1.1-1.6-1.68a39.07,39.07,0,0,1-6-8.76c-.09-.18-.18-.36-.26-.54a36.47,36.47,0,0,1-2.16-5.69,34.6,34.6,0,0,1-1.21-6.36c0-.18,0-.38-.05-.57a30.58,30.58,0,0,1,1.45-12.2l.18-.51a28,28,0,0,1,1.37-3.18,26.11,26.11,0,0,1,5.17-7l.39-.36c.08-.09.18-.17.27-.26a26.19,26.19,0,0,1,7.52-4.74,24.93,24.93,0,0,1,2.79-1l.53-.14A29.92,29.92,0,0,1,132,.38l.57.09A35.84,35.84,0,0,1,144.69,5l.51.31A39.08,39.08,0,0,1,153.76,12.44Z"/><path class="cls-5" d="M155.64,14.7,134.09,34.09l27.66-8,.18.56-27.58,8,29.13,3.61c0,.2,0,.38,0,.57L134.35,35.2l26.5,14.16c-.07.16-.15.33-.23.49L134.13,35.7,154.3,58.11l-.4.34-20.17-22.4,11.1,27.36-.52.16L133.22,36.22l.52,28.41-.57,0-.52-28.42L122.29,61.67l-.54-.25,10.39-25.58-20.6,18.55L111.1,54l20.64-18.57-28.21,8.13c-.09-.18-.18-.36-.26-.54l28.2-8.13L99.9,30.93c0-.18,0-.38-.05-.57l31.63,3.92L101.3,18.16l.18-.51,30.21,16.14L108,7.48l.39-.36,23.68,26.31L119,1.14l.53-.14L132.6,33.26,132,.38l.57.09.59,32.85L144.69,5l.51.31L133.68,33.64l21.58-19.43C155.39,14.38,155.52,14.53,155.64,14.7Z"/><ellipse class="cls-6" cx="131.63" cy="32.36" rx="24.86" ry="28.65" transform="translate(12.14 96.36) rotate(-41.99)"/><ellipse class="cls-2" cx="131.63" cy="32.36" rx="22.27" ry="25.66" transform="translate(12.14 96.36) rotate(-41.99)"/><path class="cls-7" d="M115.81,14.75l.57,31.38a25.56,25.56,0,0,0,15.48,8.37l-.81-44.32A19.23,19.23,0,0,0,115.81,14.75Z"/><path class="cls-7" d="M146.9,18.62q.71.78,1.32,1.59l.52,28.48c-.4.44-.83.86-1.27,1.27a18.53,18.53,0,0,1-10.15,4.57l-.78-43A26.49,26.49,0,0,1,146.9,18.62Z"/><path class="cls-2" d="M159.26,115.61l-45.16,62.8,5.62,4.05.2.14.28.18a10.8,10.8,0,0,0,5.43,1.61,13.1,13.1,0,0,0,1.4,0,2.75,2.75,0,0,0,.41,0,19.24,19.24,0,0,0,3.93-.72c.65-.18,1.31-.4,2-.65l.84-.32c.62-.25,1.25-.53,1.89-.83l.47-.24a43.34,43.34,0,0,0,5.55-3.33l.79-.56c.57-.42,1.14-.85,1.71-1.3l1.38-1.14.48-.41a69.46,69.46,0,0,0,9.45-10l.42-.54c.54-.69,1.06-1.39,1.57-2.1a74.54,74.54,0,0,0,6.16-10.15l.3-.59a61.2,61.2,0,0,0,2.58-6c0-.12.08-.24.13-.37.25-.67.47-1.34.69-2l.36-1.2c.27-.93.51-1.85.71-2.76l.12-.55a36.41,36.41,0,0,0,.74-5.33,27,27,0,0,0,0-3,20.86,20.86,0,0,0-.24-2.29c0-.1,0-.2,0-.3s-.06-.28-.08-.42a16.92,16.92,0,0,0-.69-2.5,11.45,11.45,0,0,0-1.17-2.35,9.55,9.55,0,0,0-2.15-2.45l-.27-.21a1,1,0,0,0-.2-.15Z"/><path class="cls-3" d="M147.92,131.38l-22.48,31.26,19.15,13.77,1.38-1.14.48-.41a69.46,69.46,0,0,0,9.45-10l.42-.54c.54-.69,1.06-1.39,1.57-2.1a74.54,74.54,0,0,0,6.16-10.15l.3-.59a61.2,61.2,0,0,0,2.58-6c0-.12.08-.24.13-.37Z"/><path class="cls-3" d="M156.85,119l-7.06,9.81,18.32,13.17c.27-.93.51-1.85.71-2.76l.12-.55a36.41,36.41,0,0,0,.74-5.33,27,27,0,0,0,0-3,20.86,20.86,0,0,0-.24-2.29Z"/><path class="cls-3" d="M123.7,165.05l-5.22,7.25L133.34,183l.84-.32c.62-.25,1.25-.53,1.89-.83l.47-.24a43.34,43.34,0,0,0,5.55-3.33Z"/><path class="cls-4" d="M120.62,135.46c-.52.72-1,1.43-1.5,2.15l-.38.58a70.72,70.72,0,0,0-6.65,12.68c-.08.19-.16.39-.23.58-.16.43-.32.85-.47,1.27a46.18,46.18,0,0,0-2.43,10c0,.18,0,.35,0,.52a27.81,27.81,0,0,0-.11,4.34,20.92,20.92,0,0,0,.39,3.07,14.83,14.83,0,0,0,.41,1.56l.12.38a10.89,10.89,0,0,0,3.9,5.46l.2.14.28.19a10.93,10.93,0,0,0,5.42,1.61c.46,0,.93,0,1.41,0l.41,0a24.68,24.68,0,0,0,8.62-2.53l.48-.24a48.56,48.56,0,0,0,9.43-6.32l.48-.41a71.22,71.22,0,0,0,9.45-10l.42-.54q.79-1,1.56-2.1A74.64,74.64,0,0,0,158,147.73c.1-.19.2-.39.29-.59a61.2,61.2,0,0,0,2.58-6,50.43,50.43,0,0,0,1.89-6.33l.12-.55a29.3,29.3,0,0,0,.5-10.89c0-.14-.05-.28-.08-.42a15.78,15.78,0,0,0-.69-2.5,11.69,11.69,0,0,0-1.16-2.35,9.94,9.94,0,0,0-2.16-2.45l-.27-.21-.19-.15a10.68,10.68,0,0,0-5.58-1.92,15.75,15.75,0,0,0-2.17,0l-.42,0A27,27,0,0,0,140.33,117c-.16.08-.31.18-.48.27a55.17,55.17,0,0,0-10.67,8.23l-.47.46A74.52,74.52,0,0,0,120.62,135.46Z"/><path class="cls-5" d="M118.74,138.19l15.18,10.91-21.83,1.77c-.08.19-.16.39-.23.58l21.76-1.75-24.66,13c0,.18,0,.35,0,.52l24.64-13-24,22,.12.38,23.94-22-19.84,27.6.28.19,19.84-27.59-13,29.19.41,0,13-29.18L130,177.45l.48-.24,4.38-26.65,5.05,20.33.48-.41-5.06-20.39,14.51,10.43.42-.54-14.53-10.45,22.26-1.8c.1-.19.2-.39.29-.59L136,148.94l26.72-14.15.12-.55-26.77,14.17,27.27-25.06c0-.14-.05-.28-.08-.42L136,148l23.29-32.39-.27-.21-23.3,32.4L151,113.36l-.42,0-15.35,34.42L140.33,117c-.16.08-.31.18-.48.27l-5.06,30.82-5.61-22.59-.47.46,5.61,22.59-15.2-10.93Z"/><ellipse class="cls-6" cx="136.2" cy="146.67" rx="32.29" ry="16.03" transform="translate(-62.4 171.61) rotate(-54.28)"/><ellipse class="cls-2" cx="136.2" cy="146.67" rx="28.93" ry="14.35" transform="translate(-62.4 171.61) rotate(-54.28)"/><path class="cls-7" d="M139.76,125.81l-6.83,41.57a43.67,43.67,0,0,0,14-12.95L151.77,125C148.83,122.89,144.47,123.36,139.76,125.81Z"/><path class="cls-7" d="M125.45,138.94c-.46.64-.9,1.28-1.32,1.93l-4.39,26.71a6.4,6.4,0,0,0,.88.76c2,1.46,4.74,1.69,7.78.88L135,128.86A48.63,48.63,0,0,0,125.45,138.94Z"/><g class="cls-8"><path class="cls-2" d="M79.59,192.27l1.07,5a9.93,9.93,0,0,1,.18,1.2,1.73,1.73,0,0,1,0,.32,12.79,12.79,0,0,1-1.68,7,2.68,2.68,0,0,1-.18.33c-.13.24-.27.47-.42.7a20.61,20.61,0,0,1-2,2.7,27.21,27.21,0,0,1-3,2.89l-.35.28-.3.24A34.23,34.23,0,0,1,70,215l-.18.11c-1,.6-2,1.18-3,1.72-.58.3-1.18.59-1.79.86l-.47.22A48.73,48.73,0,0,1,55.12,221l-.37.08-.52.1a47.07,47.07,0,0,1-8.33.92H43.58a40.47,40.47,0,0,1-4.51-.39c-1-.14-1.92-.32-2.84-.53-.6-.14-1.2-.3-1.77-.46l-.43-.13a25.4,25.4,0,0,1-5-2.15A18.82,18.82,0,0,1,27,217l-.29-.22a12.8,12.8,0,0,1-4.16-5.53c0-.09-.07-.19-.1-.3a9.5,9.5,0,0,1-.32-1.16l-1.07-5Z"/><path class="cls-3" d="M73.16,193.66l3.41,15.86a27.21,27.21,0,0,1-3,2.89l-.35.28-.3.24-4-18.38Z"/><path class="cls-3" d="M65.79,195.24,70,215l-.18.11c-1,.6-2,1.18-3,1.72-.58.3-1.18.59-1.79.86l-.47.22A48.73,48.73,0,0,1,55.12,221l-.37.08-.52.1a47.07,47.07,0,0,1-8.33.92H43.58a40.47,40.47,0,0,1-4.51-.39L34.82,201.9Z"/><path class="cls-3" d="M32.21,202.46l4,18.67c-.6-.14-1.2-.3-1.77-.46l-.43-.13a25.4,25.4,0,0,1-5-2.15l-3.13-14.56Z"/><path class="cls-4" d="M79.59,192.28a11.79,11.79,0,0,1,.19,1.19c0,.11,0,.21,0,.32a12.84,12.84,0,0,1-1.68,7.05,3.58,3.58,0,0,1-.18.32c-.13.24-.27.47-.42.71a24.48,24.48,0,0,1-5,5.58l-.35.28a33.49,33.49,0,0,1-3.38,2.42c-1,.6-2,1.18-3,1.72-.58.3-1.18.59-1.79.87l-.47.21A48.74,48.74,0,0,1,54.05,216l-.37.07-.52.11a48,48,0,0,1-8.32.91c-.62,0-1.23,0-1.82,0h-.51a36.79,36.79,0,0,1-9.12-1.38l-.43-.13a22.37,22.37,0,0,1-7.07-3.5l-.29-.22a12.75,12.75,0,0,1-4.15-5.52l-.11-.3a11.19,11.19,0,0,1-.32-1.17,11.34,11.34,0,0,1,.25-5.63l.11-.33a15,15,0,0,1,1.54-3.35A20.57,20.57,0,0,1,25.61,192c.1-.1.19-.21.3-.31a33.17,33.17,0,0,1,8.19-6.07l.44-.23c.94-.5,1.93-1,2.94-1.4s2.23-.92,3.4-1.31a49.4,49.4,0,0,1,4.79-1.38l.52-.11.37-.09a48.83,48.83,0,0,1,8.78-1.08c.95,0,1.89,0,2.81,0l.5,0a34.47,34.47,0,0,1,10.41,2l.4.15a19.29,19.29,0,0,1,7.14,4.55l.23.26A11.47,11.47,0,0,1,79.59,192.28Z"/><path class="cls-5" d="M79.8,193.79l-28.51,6.13,26.83.92a3.58,3.58,0,0,1-.18.32l-26.76-.91,21.35,7.2-.35.28-21.33-7.18L64,212.74l-.47.21L50.39,200.76l3.29,15.32-.52.11-3.29-15.32L43,217.1h-.51l6.85-16.22-16,14.84-.43-.13,16-14.85-23,11.35-.29-.22,23.11-11.38-27.26,5.86-.11-.3,27.3-5.87-27.37-.93.11-.33,27.36.93L25.61,192c.1-.1.19-.21.3-.31l23.17,7.81-15-13.88.44-.23,15,13.9-3.87-18,.52-.11,3.87,18,8.09-19.15.5,0-8.08,19.14L69.06,182l.4.15L51,199.35,76.6,186.74l.23.26L51.22,199.61l28.56-6.14C79.79,193.58,79.8,193.68,79.8,193.79Z"/><ellipse class="cls-6" cx="50.3" cy="198.57" rx="25.01" ry="14.89" transform="translate(-40.62 15.01) rotate(-12.14)"/><ellipse class="cls-2" cx="50.3" cy="198.57" rx="22.4" ry="13.33" transform="translate(-40.62 15.01) rotate(-12.14)"/><path class="cls-7" d="M62.63,187,37.72,210.11c-4-1.4-6.91-3.9-7.62-7.18l17.64-16.39A29,29,0,0,1,62.63,187Z"/><path class="cls-7" d="M70.51,194.23a7.84,7.84,0,0,1,.14,1.07l-16,14.88c-.58.15-1.16.29-1.76.42a31.73,31.73,0,0,1-10.79.52l24.18-22.48A9,9,0,0,1,70.51,194.23Z"/></g><rect class="cls-2" x="27.09" y="-4.97" width="10.86" height="75.98" transform="translate(28.29 79.17) rotate(-130.19)"/><rect class="cls-3" x="5.44" y="45.03" width="10.86" height="12.56" transform="translate(-21.32 92.73) rotate(-130.19)"/><rect class="cls-3" x="27.09" y="14.11" width="10.86" height="37.82" transform="translate(28.28 79.17) rotate(-130.19)"/><rect class="cls-3" x="47.12" y="11.71" width="10.86" height="8.78" transform="translate(74.16 66.63) rotate(-130.19)"/><path class="cls-9" d="M344.15,159s-39.1,14.26-60.53-2.21V115.14l60.53,10.14Z"/><polygon class="cls-10" points="373.14 246.94 322.68 246.94 323.42 259.19 373.87 259.19 373.14 246.94"/><polygon class="cls-11" points="378.77 259.19 318.51 259.19 319.33 382.64 379.45 382.64 378.77 259.19"/><path class="cls-12" d="M186,194h75.38a69.6,69.6,0,1,0,0-139.19H186v30h75.38a39.6,39.6,0,1,1,0,79.19H186Z"/><rect class="cls-10" x="185.99" y="54.85" width="18.62" height="30" transform="translate(390.6 139.7) rotate(180)"/><rect class="cls-10" x="185.99" y="164.04" width="18.62" height="30" transform="translate(390.6 358.07) rotate(180)"/><rect class="cls-13" x="280.57" y="112.94" width="25.13" height="11.51" rx="5.75" transform="translate(586.27 237.38) rotate(-180)"/><path class="cls-13" d="M280.19,136H300a5.76,5.76,0,0,0,5.75-5.75h0a5.76,5.76,0,0,0-5.75-5.76H280.19a5.75,5.75,0,0,0-5.75,5.76h0A5.75,5.75,0,0,0,280.19,136Z"/><path class="cls-13" d="M282.88,147.46H300a5.76,5.76,0,0,0,5.75-5.76h0A5.76,5.76,0,0,0,300,136H282.88a5.76,5.76,0,0,0-5.75,5.75h0A5.76,5.76,0,0,0,282.88,147.46Z"/><path class="cls-13" d="M286.32,159H300a5.76,5.76,0,0,0,5.75-5.76h0a5.75,5.75,0,0,0-5.75-5.75H286.32a5.75,5.75,0,0,0-5.75,5.75h0A5.76,5.76,0,0,0,286.32,159Z"/><path class="cls-14" d="M303.7,118.69a4.35,4.35,0,0,1-4.35,4.35v-8.7A4.35,4.35,0,0,1,303.7,118.69Z"/><path class="cls-14" d="M303.7,130.2a4.35,4.35,0,0,1-4.35,4.35v-8.7A4.35,4.35,0,0,1,303.7,130.2Z"/><path class="cls-14" d="M303.7,141.7a4.35,4.35,0,0,1-4.35,4.35v-8.69A4.34,4.34,0,0,1,303.7,141.7Z"/><path class="cls-14" d="M303.7,153.21a4.35,4.35,0,0,1-4.35,4.35v-8.7A4.35,4.35,0,0,1,303.7,153.21Z"/><path class="cls-13" d="M312.37,107.25c-21.1.24-18.43-14.7-18.43-14.7l25.19-.28a17.78,17.78,0,0,1,13.47,5.94l14.91,16.68a56.1,56.1,0,0,1,13.77,29.87l9.37,102.18H327l-3.25-83.14s-10.41-7.35-11.33-19.4c-1.32-17.42,9.88-22.6,9.88-22.6Z"/><circle class="cls-15" cx="367.87" cy="282.15" r="6"/><circle class="cls-15" cx="367.87" cy="310.4" r="6"/></g></g></svg>