<svg xmlns="http://www.w3.org/2000/svg" width="2310.727" height="1289.388" viewBox="0 0 2310.727 1289.388">
  <path id="Subtraction_38" data-name="Subtraction 38" d="M-4269.535-1348.613H-6135.841c-7.78,0-28.712-.081-54.979-.833-27.49-.786-52.426-2.051-74.115-3.76-27.744-2.186-49.649-5.074-65.108-8.582-8.887-2.017-15.744-4.268-20.381-6.691a19.955,19.955,0,0,1-5.609-4.049,6.808,6.808,0,0,1-1.967-4.558v-17.622c0-2.492,1.813-4.834,5.1-6.6a26.64,26.64,0,0,1,12.322-2.733h164.428l742.924-.12a7.309,7.309,0,0,0,1.723,4.571,14.784,14.784,0,0,0,4.7,3.731,33.519,33.519,0,0,0,15.5,3.437h425.577a33.511,33.511,0,0,0,15.5-3.437,14.786,14.786,0,0,0,4.7-3.731,7.31,7.31,0,0,0,1.723-4.571l193.077.035.04.033,541.293.083h163.772a26.448,26.448,0,0,1,12.268,2.73c3.275,1.76,5.078,4.1,5.078,6.59v17.616a6.816,6.816,0,0,1-1.959,4.555,19.879,19.879,0,0,1-5.585,4.047c-4.618,2.421-11.448,4.671-20.3,6.687-15.4,3.506-37.214,6.391-64.845,8.577-21.594,1.708-46.429,2.972-73.816,3.758C-4240.939-1348.693-4261.786-1348.613-4269.535-1348.613Zm40.144-67.591H-6176.87v-1161.6c0-15.336.2-25.782,1.2-33.793,1.073-8.541,3.067-13.975,6.465-17.62a18.086,18.086,0,0,1,6.544-4.391,38.708,38.708,0,0,1,9.464-2.321c7.3-.991,16.971-1.067,29.833-1.067h1841.065c13.16,0,23.042.077,30.385,1.076a37.444,37.444,0,0,1,9.4,2.329,16.987,16.987,0,0,1,6.333,4.4,19.761,19.761,0,0,1,3.875,7.122,51.189,51.189,0,0,1,2.021,10.5c.833,7.984.893,18.083.893,33.767v1161.6ZM-6079.932-2544.91h0v1056.2h1753.6v-1056.2h-1753.6Zm877.159-73.65a9.51,9.51,0,0,0-9.5,9.5,9.51,9.51,0,0,0,9.5,9.5,9.511,9.511,0,0,0,9.5-9.5A9.511,9.511,0,0,0-5202.773-2618.559Z" transform="translate(6358.5 2637.5)" fill="#454e56" stroke="rgba(0,0,0,0)" stroke-miterlimit="10" stroke-width="1"/>
</svg>
