<svg xmlns="http://www.w3.org/2000/svg" width="624" height="299" viewBox="0 0 624 299">
  <g id="car_ref" transform="translate(-755 -383)">
    <rect id="car-ref" width="624" height="299" transform="translate(755 383)" opacity="0.09"/>
    <g id="Group_208" data-name="Group 208" transform="translate(16.133 9.74)" opacity="0.5">
      <text id="Place2B.io" transform="translate(1002.791 583.368)" fill="#fff" font-size="19" font-family="MaipoSans-Bold, Maipo Sans" font-weight="700"><tspan x="0" y="0">Place2B.io</tspan></text>
      <g id="Picture_optimize" data-name="Picture optimize" transform="translate(1002 455.858)">
        <path id="Path_3947" data-name="Path 3947" d="M92.854,3H9V52.453l3.225,2.15,3.225-2.15v-43H86.4V54.6H24.168a12.843,12.843,0,0,1-3.37,4.8,6.363,6.363,0,0,0-2.122,4.768v9.787h6.45V72.34h5.4a5.206,5.206,0,0,1,.387-.935l-3.822-3.822,4.564-4.564,3.822,3.822a5.2,5.2,0,0,1,.935-.387v-5.4h6.45v5.4a5.205,5.205,0,0,1,.935.387l3.822-3.822,4.564,4.564-3.822,3.822a5.206,5.206,0,0,1,.387.935h5.4v1.613h38.7Z" transform="translate(2.289 -1.387)" fill="none"/>
        <path id="Path_3948" data-name="Path 3948" d="M38.882,35.607l6.641,7.969H68.1L50.36,21Z" transform="translate(20.594 9.639)" fill="none"/>
        <circle id="Ellipse_54" data-name="Ellipse 54" cx="4.747" cy="4.747" r="4.747" transform="translate(54.707 14.354)" fill="none"/>
        <path id="Path_3949" data-name="Path 3949" d="M51.51,38.057,33.962,17l-15.7,18.835a12.705,12.705,0,0,1,.224,10.191h39.66L51.507,38.06Z" transform="translate(7.966 7.189)" fill="none"/>
        <path id="Path_3950" data-name="Path 3950" d="M38.88,30.061l6.644,7.966-6.641-7.969Z" transform="translate(20.593 15.187)" fill="#9bc9ff"/>
        <g id="Group_207" data-name="Group 207" transform="translate(0 0)">
          <path id="Path_3951" data-name="Path 3951" d="M16.514,85.535a8.073,8.073,0,0,1-8.063-8.063V51.56A4.754,4.754,0,0,0,6.87,48a14.513,14.513,0,0,1,4.193-24.3,1.613,1.613,0,0,1,2.225,1.493V37.908l3.225,2.153,3.225-2.15V25.193A1.613,1.613,0,0,1,21.958,23.7,14.513,14.513,0,0,1,26.15,48a4.757,4.757,0,0,0-1.574,3.562V77.473A8.073,8.073,0,0,1,16.514,85.535Zm-6.45-57.648a11.288,11.288,0,0,0-1.053,17.7,7.982,7.982,0,0,1,2.666,5.975V77.473a4.838,4.838,0,1,0,9.675,0V51.56a7.985,7.985,0,0,1,2.664-5.967,11.288,11.288,0,0,0-1.051-17.706V38.771a1.613,1.613,0,0,1-.718,1.342l-4.838,3.225a1.613,1.613,0,0,1-1.79,0l-4.838-3.225a1.613,1.613,0,0,1-.718-1.342Z" transform="translate(-1.999 11.219)" fill="#fff"/>
          <path id="Path_3952" data-name="Path 3952" d="M11.613,69.026A1.613,1.613,0,0,1,10,67.414v-25.8a1.613,1.613,0,0,1,3.225,0v25.8A1.613,1.613,0,0,1,11.613,69.026Z" transform="translate(2.902 21.278)" fill="#fff"/>
          <path id="Path_3953" data-name="Path 3953" d="M93.466,2H9.613A1.613,1.613,0,0,0,8,3.613V32.639a1.613,1.613,0,1,0,3.225,0V5.225H91.854V72.953H61.215a1.613,1.613,0,0,0,0,3.225H93.466a1.613,1.613,0,0,0,1.613-1.613V3.613A1.613,1.613,0,0,0,93.466,2Z" transform="translate(1.677 -2)" fill="#fff"/>
          <path id="Path_3954" data-name="Path 3954" d="M82.953,48.1,68.095,29.192a1.613,1.613,0,0,0-2.535,0L55.312,42.233,39.041,22.706a1.613,1.613,0,0,0-2.479,0L24.468,37.219a1.613,1.613,0,1,0,2.475,2.064L37.8,26.257,58.547,51.152H28.126a1.613,1.613,0,1,0,0,3.225h56.44a1.613,1.613,0,0,0,1.613-1.613V7.613A1.613,1.613,0,0,0,84.566,6H13.613A1.613,1.613,0,0,0,12,7.613V30.189a1.613,1.613,0,1,0,3.225,0V9.225H82.953Zm-25.53-3.338,9.4-11.965L81.249,51.152h-18.5Z" transform="translate(4.127 0.45)" fill="#fff"/>
          <path id="Path_3955" data-name="Path 3955" d="M47.9,16.45a6.45,6.45,0,1,0-6.45,6.45A6.45,6.45,0,0,0,47.9,16.45Zm-9.675,0a3.225,3.225,0,1,1,3.225,3.225A3.225,3.225,0,0,1,38.225,16.45Z" transform="translate(18.216 2.901)" fill="#fff"/>
          <path id="Path_3956" data-name="Path 3956" d="M48.639,49.288H45.807l2-2a1.613,1.613,0,0,0,0-2.28L43.248,40.44a1.613,1.613,0,0,0-2.28,0l-2,2V39.613A1.613,1.613,0,0,0,37.351,38H30.9a1.613,1.613,0,0,0-1.613,1.613v2.832l-2-2a1.613,1.613,0,0,0-2.28,0L20.44,45a1.613,1.613,0,0,0,0,2.28l2,2H19.613A1.613,1.613,0,0,0,18,50.9v6.45a1.613,1.613,0,0,0,1.613,1.613h2.832l-2,2a1.613,1.613,0,0,0,0,2.28L25,67.812a1.613,1.613,0,0,0,2.28,0l2-2v2.832A1.613,1.613,0,0,0,30.9,70.251h6.45a1.613,1.613,0,0,0,1.613-1.613V65.807l2,2a1.613,1.613,0,0,0,2.28,0l4.564-4.564a1.613,1.613,0,0,0,0-2.28l-2-2h2.832a1.613,1.613,0,0,0,1.613-1.613V50.9a1.613,1.613,0,0,0-1.613-1.613Zm-1.613,6.45h-3.79a1.613,1.613,0,0,0-1.543,1.145,3.6,3.6,0,0,1-.273.655,1.613,1.613,0,0,0,.289,1.888l2.682,2.682-2.283,2.283L39.426,61.7a1.613,1.613,0,0,0-1.888-.289,3.719,3.719,0,0,1-.645.271,1.613,1.613,0,0,0-1.155,1.55v3.79H32.513v-3.79a1.613,1.613,0,0,0-1.15-1.545,3.717,3.717,0,0,1-.645-.271,1.613,1.613,0,0,0-1.888.289l-2.687,2.682L23.86,62.108l2.687-2.682a1.613,1.613,0,0,0,.289-1.888,3.6,3.6,0,0,1-.273-.655,1.613,1.613,0,0,0-1.548-1.145h-3.79V52.513h3.79a1.613,1.613,0,0,0,1.543-1.145,3.6,3.6,0,0,1,.273-.655,1.613,1.613,0,0,0-.289-1.888L23.86,46.143l2.283-2.283,2.682,2.687a1.613,1.613,0,0,0,1.888.289,3.719,3.719,0,0,1,.645-.271,1.613,1.613,0,0,0,1.155-1.55v-3.79h3.225v3.79a1.613,1.613,0,0,0,1.15,1.545,3.719,3.719,0,0,1,.645.271,1.613,1.613,0,0,0,1.888-.289L42.1,43.86l2.283,2.283L41.7,48.825a1.613,1.613,0,0,0-.289,1.888,3.6,3.6,0,0,1,.273.655,1.613,1.613,0,0,0,1.543,1.145h3.794Z" transform="translate(7.802 20.052)" fill="#fff"/>
          <path id="Path_3957" data-name="Path 3957" d="M30.45,44a6.45,6.45,0,1,0,6.45,6.45A6.45,6.45,0,0,0,30.45,44Zm0,9.675a3.225,3.225,0,1,1,3.225-3.225A3.225,3.225,0,0,1,30.45,53.675Z" transform="translate(11.478 23.728)" fill="#fff"/>
        </g>
      </g>
    </g>
  </g>
</svg>
