<svg xmlns="http://www.w3.org/2000/svg" width="624" height="299" viewBox="0 0 624 299">
  <g id="car_ref" transform="translate(-755 -383)">
    <rect id="car-ref" width="624" height="299" transform="translate(755 383)" fill="#454e56" opacity="0.38"/>
    <g id="Group_208" data-name="Group 208" transform="translate(3 -7.858)" opacity="0.61">
      <text id="Place2B.io" transform="translate(1003 619)" fill="#fff" font-size="26" font-family="MaipoSans-Bold, Maipo Sans" font-weight="700"><tspan x="0" y="0">Place2B.io</tspan></text>
      <g id="Picture_optimize" data-name="Picture optimize" transform="translate(1000.001 453.858)">
        <path id="Path_3947" data-name="Path 3947" d="M114.979,3H9V65.5l4.076,2.717L17.152,65.5V11.152h89.675V68.218H28.17a16.231,16.231,0,0,1-4.26,6.061,8.042,8.042,0,0,0-2.682,6.027V92.675h8.152V90.637h6.828a6.579,6.579,0,0,1,.489-1.182l-4.83-4.83,5.768-5.768,4.83,4.83a6.578,6.578,0,0,1,1.182-.489V76.37H51.8V83.2a6.578,6.578,0,0,1,1.182.489l4.83-4.83,5.768,5.768-4.83,4.83a6.579,6.579,0,0,1,.489,1.182h6.827v2.038h48.913Z" transform="translate(7.267 1.038)" fill="none"/>
        <path id="Path_3948" data-name="Path 3948" d="M38.882,39.461l8.393,10.072H75.808L53.389,21Z" transform="translate(38.287 19.723)" fill="none"/>
        <circle id="Ellipse_54" data-name="Ellipse 54" cx="6" cy="6" r="6" transform="translate(71.142 20.142)" fill="none"/>
        <path id="Path_3949" data-name="Path 3949" d="M60.282,43.613,38.1,17,18.267,40.8a16.058,16.058,0,0,1,.283,12.881H68.674l-8.4-10.068Z" transform="translate(16.887 15.571)" fill="none"/>
        <path id="Path_3950" data-name="Path 3950" d="M38.88,30.062l8.4,10.068L38.884,30.058Z" transform="translate(38.284 29.126)" fill="#9bc9ff"/>
        <g id="Group_207" data-name="Group 207" transform="translate(1.999 2)">
          <path id="Path_3951" data-name="Path 3951" d="M20.343,101.883a10.2,10.2,0,0,1-10.19-10.19V58.943a6.008,6.008,0,0,0-2-4.5,18.343,18.343,0,0,1,5.3-30.71,2.038,2.038,0,0,1,2.813,1.887v16.07l4.076,2.721,4.076-2.717V25.619a2.038,2.038,0,0,1,2.8-1.887,18.343,18.343,0,0,1,5.3,30.71,6.012,6.012,0,0,0-1.989,4.5v32.75A10.2,10.2,0,0,1,20.343,101.883ZM12.191,29.025A14.266,14.266,0,0,0,10.86,51.392a10.088,10.088,0,0,1,3.369,7.551v32.75a6.114,6.114,0,1,0,12.228,0V58.943A10.092,10.092,0,0,1,29.824,51.4,14.266,14.266,0,0,0,28.5,29.025V42.78a2.038,2.038,0,0,1-.907,1.7l-6.114,4.076a2.038,2.038,0,0,1-2.262,0L13.1,44.475a2.038,2.038,0,0,1-.907-1.7Z" transform="translate(-1.999 20.4)" fill="#fff"/>
          <path id="Path_3952" data-name="Path 3952" d="M12.038,76.685A2.038,2.038,0,0,1,10,74.647V42.038a2.038,2.038,0,1,1,4.076,0V74.647A2.038,2.038,0,0,1,12.038,76.685Z" transform="translate(6.306 37.446)" fill="#fff"/>
          <path id="Path_3953" data-name="Path 3953" d="M116.017,2H10.038A2.038,2.038,0,0,0,8,4.038V40.723a2.038,2.038,0,1,0,4.076,0V6.076h101.9v85.6H75.256a2.038,2.038,0,0,0,0,4.076h40.761a2.038,2.038,0,0,0,2.038-2.038V4.038A2.038,2.038,0,0,0,116.017,2Z" transform="translate(4.23 -2)" fill="#fff"/>
          <path id="Path_3954" data-name="Path 3954" d="M101.675,59.212,82.9,35.311a2.038,2.038,0,0,0-3.2,0L66.74,51.793,46.176,27.114a2.038,2.038,0,0,0-3.133,0L27.758,45.457a2.038,2.038,0,1,0,3.128,2.609L44.609,31.6l26.22,31.464H32.381a2.038,2.038,0,1,0,0,4.076h71.332a2.038,2.038,0,0,0,2.038-2.038V8.038A2.038,2.038,0,0,0,103.713,6H14.038A2.038,2.038,0,0,0,12,8.038V36.571a2.038,2.038,0,1,0,4.076,0V10.076h85.6ZM69.408,54.993,81.294,39.871l18.226,23.2H76.134Z" transform="translate(8.382 2.152)" fill="#fff"/>
          <path id="Path_3955" data-name="Path 3955" d="M51.3,18.152A8.152,8.152,0,1,0,43.152,26.3,8.152,8.152,0,0,0,51.3,18.152Zm-12.228,0a4.076,4.076,0,1,1,4.076,4.076A4.076,4.076,0,0,1,39.076,18.152Z" transform="translate(32.258 6.304)" fill="#fff"/>
          <path id="Path_3956" data-name="Path 3956" d="M56.723,52.266H53.144l2.533-2.533a2.038,2.038,0,0,0,0-2.882L49.91,41.084a2.038,2.038,0,0,0-2.882,0l-2.533,2.533V40.038A2.038,2.038,0,0,0,42.457,38H34.3a2.038,2.038,0,0,0-2.038,2.038v3.579l-2.533-2.533a2.038,2.038,0,0,0-2.882,0l-5.768,5.768a2.038,2.038,0,0,0,0,2.882l2.533,2.533H20.038A2.038,2.038,0,0,0,18,54.3v8.152a2.038,2.038,0,0,0,2.038,2.038h3.579l-2.533,2.533a2.038,2.038,0,0,0,0,2.882l5.768,5.768a2.038,2.038,0,0,0,2.882,0l2.533-2.533v3.579A2.038,2.038,0,0,0,34.3,78.761h8.152a2.038,2.038,0,0,0,2.038-2.038V73.144l2.533,2.533a2.038,2.038,0,0,0,2.882,0l5.768-5.768a2.038,2.038,0,0,0,0-2.882l-2.533-2.533h3.579a2.038,2.038,0,0,0,2.038-2.038V54.3a2.038,2.038,0,0,0-2.038-2.038Zm-2.038,8.152H49.9a2.038,2.038,0,0,0-1.95,1.447,4.554,4.554,0,0,1-.344.827,2.038,2.038,0,0,0,.365,2.387l3.389,3.389-2.886,2.886-3.389-3.4a2.038,2.038,0,0,0-2.387-.365,4.7,4.7,0,0,1-.815.342A2.038,2.038,0,0,0,40.419,69.9v4.789H36.343V69.9a2.038,2.038,0,0,0-1.453-1.953,4.7,4.7,0,0,1-.815-.342,2.038,2.038,0,0,0-2.387.365l-3.4,3.389-2.886-2.886,3.4-3.389a2.038,2.038,0,0,0,.365-2.387,4.553,4.553,0,0,1-.344-.827,2.038,2.038,0,0,0-1.957-1.447H22.076V56.343h4.789a2.038,2.038,0,0,0,1.95-1.447,4.553,4.553,0,0,1,.344-.827,2.038,2.038,0,0,0-.365-2.387l-3.389-3.389,2.886-2.886,3.389,3.4a2.038,2.038,0,0,0,2.387.365,4.7,4.7,0,0,1,.815-.342,2.038,2.038,0,0,0,1.459-1.959V42.076h4.076v4.789a2.038,2.038,0,0,0,1.453,1.953,4.7,4.7,0,0,1,.815.342,2.038,2.038,0,0,0,2.387-.365l3.389-3.389,2.886,2.886L47.96,51.682a2.038,2.038,0,0,0-.365,2.387,4.553,4.553,0,0,1,.344.827,2.038,2.038,0,0,0,1.95,1.447h4.8Z" transform="translate(14.611 35.37)" fill="#fff"/>
          <path id="Path_3957" data-name="Path 3957" d="M32.152,44A8.152,8.152,0,1,0,40.3,52.152,8.152,8.152,0,0,0,32.152,44Zm0,12.228a4.076,4.076,0,1,1,4.076-4.076A4.076,4.076,0,0,1,32.152,56.228Z" transform="translate(20.839 41.599)" fill="#fff"/>
        </g>
      </g>
    </g>
  </g>
</svg>
