<svg xmlns="http://www.w3.org/2000/svg" xmlns:xlink="http://www.w3.org/1999/xlink" width="475" height="225.492" viewBox="0 0 475 225.492">
  <defs>
    <clipPath id="clip-path">
      <rect id="Rectangle_49" data-name="Rectangle 49" width="475" height="225.492" fill="#fff"/>
    </clipPath>
    <filter id="Rectangle_46" x="80.367" y="99.225" width="159.411" height="55.558" filterUnits="userSpaceOnUse">
      <feOffset dx="5" dy="5" input="SourceAlpha"/>
      <feGaussianBlur stdDeviation="3" result="blur"/>
      <feFlood flood-opacity="0.4"/>
      <feComposite operator="in" in2="blur"/>
      <feComposite in="SourceGraphic"/>
    </filter>
    <filter id="Rectangle_47" x="232.981" y="99.225" width="154.414" height="55.558" filterUnits="userSpaceOnUse">
      <feOffset dx="5" dy="5" input="SourceAlpha"/>
      <feGaussianBlur stdDeviation="3" result="blur-2"/>
      <feFlood flood-opacity="0.4"/>
      <feComposite operator="in" in2="blur-2"/>
      <feComposite in="SourceGraphic"/>
    </filter>
  </defs>
  <g id="Group_62" data-name="Group 62" transform="translate(-190 -323.508)">
    <rect id="Rectangle_7" data-name="Rectangle 7" width="475" height="225" transform="translate(190 324)" fill="#3d81fe"/>
    <g id="Group_15" data-name="Group 15" transform="translate(187.929 323.508)">
      <g id="Mask_Group_3" data-name="Mask Group 3" transform="translate(2.071)" clip-path="url(#clip-path)">
        <g id="Group_8" data-name="Group 8" transform="translate(-50 -0.005)">
          <g id="Group_7" data-name="Group 7" transform="translate(0 0)">
            <rect id="Rectangle_9" data-name="Rectangle 9" width="144.409" height="25.039" rx="12.519" transform="translate(12.992)" fill="#3f63ff"/>
            <rect id="Rectangle_11" data-name="Rectangle 11" width="144.409" height="25.54" rx="12.77" transform="translate(0 52.081)" fill="#3f63ff"/>
            <path id="Subtraction_1" data-name="Subtraction 1" d="M72.5,27.543H0V0H72.523A13.772,13.772,0,0,0,72.5,27.541Z" transform="translate(23.485 25.039)" fill="#3f63ff"/>
            <path id="Subtraction_2" data-name="Subtraction 2" d="M72.139,26.82H0V0H72.164a13.411,13.411,0,0,0-.025,26.818Z" transform="translate(0 75.617)" fill="#3f63ff"/>
            <rect id="Rectangle_17" data-name="Rectangle 17" width="191.879" height="20.532" rx="10.266" transform="translate(7.495 99.154)" fill="#3f63ff"/>
            <path id="Subtraction_3" data-name="Subtraction 3" d="M96.8,22.727H0V0H96.83A11.364,11.364,0,0,0,96.8,22.725Z" transform="translate(23.485 119.185)" fill="#3f63ff"/>
            <rect id="Rectangle_20" data-name="Rectangle 20" width="144.409" height="25.54" rx="12.77" transform="translate(7.495 141.72)" fill="#3f63ff"/>
            <rect id="Rectangle_21" data-name="Rectangle 21" width="144.409" height="25.54" rx="12.77" transform="translate(7.495 178.276)" fill="#3f63ff"/>
            <path id="Subtraction_4" data-name="Subtraction 4" d="M96.8,22.727H0V0H96.83A11.364,11.364,0,0,0,96.8,22.725Z" transform="translate(18.488 203.315)" fill="#3f63ff"/>
          </g>
          <g id="Group_12" data-name="Group 12" transform="translate(378.803 0)">
            <rect id="Rectangle_31" data-name="Rectangle 31" width="128.919" height="25.039" rx="12.519" transform="translate(43.473)" fill="#3f63ff"/>
            <rect id="Rectangle_32" data-name="Rectangle 32" width="129.418" height="25.54" rx="12.77" transform="translate(55.965 52.081)" fill="#3f63ff"/>
            <path id="Subtraction_6" data-name="Subtraction 6" d="M97.927,27.543H0V0H97.954a13.772,13.772,0,0,0-.027,27.541Z" transform="translate(161.898 52.582) rotate(180)" fill="#3f63ff"/>
            <path id="Subtraction_7" data-name="Subtraction 7" d="M69.688,21.873H0V0H69.711a10.937,10.937,0,0,0-.024,21.871Z" transform="translate(185.383 99.493) rotate(180)" fill="#3f63ff"/>
            <rect id="Rectangle_37" data-name="Rectangle 37" width="167.894" height="30.047" rx="15.023" transform="translate(9.994 99.154)" fill="#3f63ff"/>
            <path id="Subtraction_8" data-name="Subtraction 8" d="M97.216,23.558H0V0H97.242a11.78,11.78,0,0,0-.026,23.557Z" transform="translate(178.887 151.927) rotate(180)" fill="#3f63ff"/>
            <rect id="Rectangle_40" data-name="Rectangle 40" width="101.816" height="25.54" rx="12.77" transform="translate(55.527 151.735)" fill="#3f63ff"/>
            <rect id="Rectangle_41" data-name="Rectangle 41" width="161.898" height="25.54" rx="12.77" transform="translate(0 199.81)" fill="#3f63ff"/>
            <path id="Subtraction_9" data-name="Subtraction 9" d="M132.485,24.23H0V0H75.773a11.364,11.364,0,0,0,.19,22.727h56.522v1.5Z" transform="translate(198.874 200.001) rotate(180)" fill="#3f63ff"/>
          </g>
          <text id="stripe" transform="translate(195.782 78.58)" fill="#fff" font-size="42" font-family="Poppins-SemiBold, Poppins" font-weight="600" letter-spacing="0.1em"><tspan x="0" y="0">stripe</tspan></text>
          <g id="Group_10" data-name="Group 10" transform="translate(134.367 103.23)">
            <g transform="matrix(1, 0, 0, 1, -84.37, -103.23)" filter="url(#Rectangle_46)">
              <rect id="Rectangle_46-2" data-name="Rectangle 46" width="141.411" height="37.558" transform="translate(84.37 103.23)" fill="#1d1c21"/>
            </g>
            <text id="MASTER" transform="translate(18.463 24.512)" fill="#fff" font-size="18" font-family="Poppins-SemiBold, Poppins" font-weight="600" letter-spacing="0.3em"><tspan x="0" y="0">MASTER</tspan></text>
          </g>
          <g id="Group_11" data-name="Group 11" transform="translate(286.981 103.23)">
            <g transform="matrix(1, 0, 0, 1, -236.98, -103.23)" filter="url(#Rectangle_47)">
              <rect id="Rectangle_47-2" data-name="Rectangle 47" width="136.414" height="37.558" transform="translate(236.98 103.23)" fill="#fff"/>
            </g>
            <text id="COURSE" transform="translate(15.534 24.512)" fill="#1d1c21" font-size="18" font-family="Poppins-SemiBold, Poppins" font-weight="600" letter-spacing="0.3em"><tspan x="0" y="0">COURSE</tspan></text>
          </g>
          <g id="firebase-2" transform="translate(178.521 157.991)">
            <path id="Path_7" data-name="Path 7" d="M701.714,361.972l-4.156,3.878-3.858-7.8,1.993-4.486c.5-.895,1.328-.907,1.831,0Z" transform="translate(-682.014 -346.93)" fill="#ffa000"/>
            <path id="Path_8" data-name="Path 8" d="M15.545,666.4,0,680.89,11.687,658.6Z" transform="translate(0 -647.482)" fill="#f57f17"/>
            <path id="Path_9" data-name="Path 9" d="M24.256,515.906c.745-.711,1.511-.471,1.7.539L30,540.008l-13.4,8.065a6.163,6.163,0,0,1-1.717.366,6.31,6.31,0,0,1-1.568-.378L0,540.2Z" transform="translate(0 -506.796)" fill="#ffca28"/>
            <path id="Path_10" data-name="Path 10" d="M11.687,11.168,0,33.458,5.209.878c.2-1.01.766-1.113,1.282-.218Z" transform="translate(0 -0.05)" fill="#ffa000"/>
          </g>
          <text id="with" transform="translate(218.833 191.878)" fill="#fff" font-size="19" font-family="NirmalaUI, Nirmala UI" letter-spacing="0.1em"><tspan x="0" y="0">with</tspan></text>
          <text id="Firebase" transform="translate(275.957 192.355)" fill="#fff" font-size="30" font-family="Poppins-SemiBold, Poppins" font-weight="600" letter-spacing="0.1em"><tspan x="0" y="0">Firebase</tspan></text>
        </g>
      </g>
      <g id="credit-card" transform="translate(316.721 42.981)">
        <path id="XMLID_115_" d="M57.665,52.209H3.386A3.386,3.386,0,0,1,0,48.823V11.386A3.386,3.386,0,0,1,3.386,8H57.665a3.386,3.386,0,0,1,3.386,3.386V48.823a3.386,3.386,0,0,1-3.386,3.386" transform="translate(0 -8)" fill="#f0c41b"/>
        <rect id="XMLID_114_" width="61.051" height="8.421" transform="translate(0 5.263)" fill="#806f5e"/>
        <path id="XMLID_113_" d="M15.526,28.105H6.053a1.053,1.053,0,0,1,0-2.105h9.473a1.053,1.053,0,1,1,0,2.105" transform="translate(0.263 -7.053)" fill="#f9eab0"/>
        <path id="XMLID_112_" d="M28.526,28.105H19.053a1.053,1.053,0,0,1,0-2.105h9.473a1.053,1.053,0,0,1,0,2.105" transform="translate(0.947 -7.053)" fill="#f9eab0"/>
        <path id="XMLID_111_" d="M7.105,33.105H6.053a1.053,1.053,0,1,1,0-2.105H7.105a1.053,1.053,0,1,1,0,2.105" transform="translate(0.263 -6.79)" fill="#f9eab0"/>
        <path id="XMLID_110_" d="M13.158,33.105H11.053a1.053,1.053,0,1,1,0-2.105h2.105a1.053,1.053,0,1,1,0,2.105" transform="translate(0.526 -6.79)" fill="#f9eab0"/>
        <path id="XMLID_109_" d="M18.105,33.105H17.053a1.053,1.053,0,1,1,0-2.105h1.053a1.053,1.053,0,1,1,0,2.105" transform="translate(0.842 -6.79)" fill="#f9eab0"/>
        <path id="XMLID_108_" d="M24.158,33.105H22.053a1.053,1.053,0,1,1,0-2.105h2.105a1.053,1.053,0,1,1,0,2.105" transform="translate(1.105 -6.79)" fill="#f9eab0"/>
        <path id="XMLID_107_" d="M28.053,33.1a1.107,1.107,0,0,1-.747-.305A1.087,1.087,0,0,1,27,32.052,1.057,1.057,0,1,1,28.053,33.1" transform="translate(1.42 -6.789)" fill="#f9eab0"/>
        <path id="XMLID_106_" d="M46.631,39.316A6.316,6.316,0,1,1,40.316,33a6.315,6.315,0,0,1,6.316,6.316" transform="translate(1.789 -6.685)" fill="#db2215"/>
        <path id="XMLID_105_" d="M53.631,39.316A6.316,6.316,0,1,1,47.316,33a6.315,6.315,0,0,1,6.316,6.316" transform="translate(2.157 -6.685)" fill="#245ea9"/>
      </g>
    </g>
  </g>
</svg>
