<svg xmlns="http://www.w3.org/2000/svg" xmlns:xlink="http://www.w3.org/1999/xlink" width="475" height="225.058" viewBox="0 0 475 225.058">
  <defs>
    <clipPath id="clip-path">
      <rect id="Rectangle_49" data-name="Rectangle 49" width="474.086" height="225.058" fill="#fff"/>
    </clipPath>
    <filter id="Rectangle_44" x="76.675" y="27.483" width="275" height="67.981" filterUnits="userSpaceOnUse">
      <feOffset dx="5" dy="5" input="SourceAlpha"/>
      <feGaussianBlur stdDeviation="3" result="blur"/>
      <feFlood flood-opacity="0.4"/>
      <feComposite operator="in" in2="blur"/>
      <feComposite in="SourceGraphic"/>
    </filter>
    <filter id="Rectangle_46" x="102.282" y="173.045" width="159.139" height="55.486" filterUnits="userSpaceOnUse">
      <feOffset dx="5" dy="5" input="SourceAlpha"/>
      <feGaussianBlur stdDeviation="3" result="blur-2"/>
      <feFlood flood-opacity="0.4"/>
      <feComposite operator="in" in2="blur-2"/>
      <feComposite in="SourceGraphic"/>
    </filter>
    <filter id="Rectangle_47" x="256.602" y="173.045" width="154.151" height="55.486" filterUnits="userSpaceOnUse">
      <feOffset dx="5" dy="5" input="SourceAlpha"/>
      <feGaussianBlur stdDeviation="3" result="blur-3"/>
      <feFlood flood-opacity="0.4"/>
      <feComposite operator="in" in2="blur-3"/>
      <feComposite in="SourceGraphic"/>
    </filter>
    <filter id="Rectangle_50" x="76.556" y="95.296" width="231.711" height="66.218" filterUnits="userSpaceOnUse">
      <feOffset dx="5" dy="5" input="SourceAlpha"/>
      <feGaussianBlur stdDeviation="3" result="blur-4"/>
      <feFlood flood-opacity="0.4"/>
      <feComposite operator="in" in2="blur-4"/>
      <feComposite in="SourceGraphic"/>
    </filter>
  </defs>
  <g id="Group_61" data-name="Group 61" transform="translate(-190 -323.942)">
    <rect id="Rectangle_7" data-name="Rectangle 7" width="475" height="225" transform="translate(190 324)" fill="#ffb82c"/>
    <g id="Group_16" data-name="Group 16" transform="translate(188 323.942)">
      <g id="Mask_Group_3" data-name="Mask Group 3" transform="translate(2.071)" clip-path="url(#clip-path)">
        <g id="Group_8" data-name="Group 8" transform="translate(-49.904 -0.005)">
          <g id="Group_7" data-name="Group 7" transform="translate(0)">
            <rect id="Rectangle_9" data-name="Rectangle 9" width="144.131" height="24.991" rx="12.495" transform="translate(12.967)" fill="#ff9201"/>
            <rect id="Rectangle_11" data-name="Rectangle 11" width="144.131" height="25.49" rx="12.745" transform="translate(0 51.981)" fill="#ff9201"/>
            <path id="Subtraction_1" data-name="Subtraction 1" d="M72.358,27.49H0V0H72.383a13.746,13.746,0,0,0-.025,27.488Z" transform="translate(23.44 24.99)" fill="#ff9201"/>
            <path id="Subtraction_2" data-name="Subtraction 2" d="M72,26.77H0V0H72.026A13.385,13.385,0,0,0,72,26.768Z" transform="translate(0 75.471)" fill="#ff9201"/>
            <rect id="Rectangle_17" data-name="Rectangle 17" width="191.51" height="20.492" rx="10.246" transform="translate(7.481 98.963)" fill="#ff9201"/>
            <path id="Subtraction_3" data-name="Subtraction 3" d="M96.617,22.684H0V0H96.643a11.342,11.342,0,0,0-.026,22.681Z" transform="translate(23.44 118.955)" fill="#ff9201"/>
            <rect id="Rectangle_20" data-name="Rectangle 20" width="144.131" height="25.49" rx="12.745" transform="translate(7.481 141.447)" fill="#ff9201"/>
            <rect id="Rectangle_21" data-name="Rectangle 21" width="144.131" height="25.49" rx="12.745" transform="translate(7.481 177.933)" fill="#ff9201"/>
            <path id="Subtraction_4" data-name="Subtraction 4" d="M96.617,22.684H0V0H96.643a11.342,11.342,0,0,0-.026,22.681Z" transform="translate(18.453 202.923)" fill="#ff9201"/>
          </g>
          <rect id="Rectangle_31" data-name="Rectangle 31" width="128.671" height="24.991" rx="12.495" transform="translate(406.459)" fill="#ff9201"/>
          <rect id="Rectangle_32" data-name="Rectangle 32" width="129.169" height="25.49" rx="12.745" transform="translate(418.927 51.981)" fill="#ff9201"/>
          <path id="Subtraction_6" data-name="Subtraction 6" d="M97.739,27.49H0V0H97.766a13.746,13.746,0,0,0-.027,27.488Z" transform="translate(524.657 52.481) rotate(180)" fill="#ff9201"/>
          <path id="Subtraction_7" data-name="Subtraction 7" d="M69.554,21.83H0V0H69.578a10.916,10.916,0,0,0-.024,21.828Z" transform="translate(548.097 99.302) rotate(180)" fill="#ff9201"/>
          <rect id="Rectangle_37" data-name="Rectangle 37" width="167.571" height="29.989" rx="14.994" transform="translate(373.045 98.963)" fill="#ff9201"/>
          <path id="Subtraction_8" data-name="Subtraction 8" d="M96.617,22.684H0V0H96.643a11.342,11.342,0,0,0-.026,22.681Z" transform="translate(541.613 151.635) rotate(180)" fill="#ff9201"/>
          <rect id="Rectangle_40" data-name="Rectangle 40" width="144.131" height="25.49" rx="12.745" transform="translate(396.485 151.443)" fill="#ff9201"/>
          <rect id="Rectangle_41" data-name="Rectangle 41" width="161.586" height="25.49" rx="12.745" transform="translate(379.074 199.425)" fill="#ff9201"/>
          <path id="Subtraction_9" data-name="Subtraction 9" d="M96.617,22.684H0V0H96.643a11.342,11.342,0,0,0-.026,22.681Z" transform="translate(561.562 199.617) rotate(180)" fill="#ff9201"/>
          <g transform="matrix(1, 0, 0, 1, 49.83, 0.01)" filter="url(#Rectangle_44)">
            <rect id="Rectangle_44-2" data-name="Rectangle 44" width="257" height="49.981" transform="translate(80.68 31.48)" fill="#1d1c21"/>
          </g>
          <text id="FIRESTORE" transform="translate(192.48 64.487)" fill="#fff" font-size="29" font-family="Poppins-SemiBold, Poppins" font-weight="600" letter-spacing="0.1em"><tspan x="0" y="0">FIRESTORE</tspan></text>
          <g id="Group_13" data-name="Group 13" transform="translate(156.114 177.05)">
            <g transform="matrix(1, 0, 0, 1, -106.28, -177.05)" filter="url(#Rectangle_46)">
              <rect id="Rectangle_46-2" data-name="Rectangle 46" width="141.139" height="37.486" transform="translate(106.28 177.05)" fill="#1d1c21"/>
            </g>
            <g transform="matrix(1, 0, 0, 1, -106.28, -177.05)" filter="url(#Rectangle_47)">
              <rect id="Rectangle_47-2" data-name="Rectangle 47" width="136.151" height="37.486" transform="translate(260.6 177.05)" fill="#fff"/>
            </g>
            <text id="MASTER" transform="translate(27.93 24.501)" fill="#fff" font-size="18" font-family="Poppins-SemiBold, Poppins" font-weight="600" letter-spacing="0.1em"><tspan x="0" y="0">MASTER</tspan></text>
            <text id="COURSE" transform="translate(179.327 24.501)" fill="#1d1c21" font-size="18" font-family="Poppins-SemiBold, Poppins" font-weight="600" letter-spacing="0.1em"><tspan x="0" y="0">COURSE</tspan></text>
          </g>
          <g id="firebase-2" transform="translate(155.888 38.736)">
            <path id="Path_7" data-name="Path 7" d="M700.3,360.368l-3.422,3.194-3.177-6.425,1.641-3.694c.415-.737,1.093-.747,1.508,0Z" transform="translate(-684.076 -347.981)" fill="#ffa000"/>
            <path id="Path_8" data-name="Path 8" d="M12.8,665.023,0,676.956,9.625,658.6Z" transform="translate(0 -649.444)" fill="#f57f17"/>
            <path id="Path_9" data-name="Path 9" d="M19.976,515.834c.613-.585,1.244-.388,1.4.444l3.328,19.4-11.039,6.642a5.075,5.075,0,0,1-1.414.3,5.2,5.2,0,0,1-1.292-.311L0,535.844Z" transform="translate(0 -508.331)" fill="#ffca28"/>
            <path id="Path_10" data-name="Path 10" d="M9.625,9.206,0,27.563,4.29.732C4.45-.1,4.921-.184,5.345.553Z" transform="translate(0 -0.05)" fill="#ffa000"/>
          </g>
          <g transform="matrix(1, 0, 0, 1, 49.83, 0.01)" filter="url(#Rectangle_50)">
            <rect id="Rectangle_50-2" data-name="Rectangle 50" width="213.711" height="48.218" transform="translate(80.56 99.3)" fill="#fff"/>
          </g>
          <text id="DATA_MODELLING" data-name="DATA MODELLING" transform="translate(143.072 129.304)" fill="#1d1c21" font-size="18" font-family="Poppins-SemiBold, Poppins" font-weight="600" letter-spacing="0.1em"><tspan x="0" y="0">DATA MODELLING</tspan></text>
        </g>
      </g>
      <g id="server" transform="translate(348.124 28.312)">
        <path id="Path_21" data-name="Path 21" d="M75.513,27.528H5.943A4.944,4.944,0,0,1,1,22.586V6.443A4.944,4.944,0,0,1,5.943,1.5H75.511a4.944,4.944,0,0,1,4.944,4.943V22.584A4.944,4.944,0,0,1,75.513,27.528Z" transform="translate(-1 -1.5)" fill="#6463d8"/>
        <circle id="Ellipse_1" data-name="Ellipse 1" cx="5.48" cy="5.48" r="5.48" transform="translate(34.248 73.3)" fill="none" stroke="#fff" stroke-linecap="round" stroke-miterlimit="10" stroke-width="2"/>
        <path id="Path_22" data-name="Path 22" d="M75.513,46.528H5.943A4.944,4.944,0,0,1,1,41.586V25.443A4.944,4.944,0,0,1,5.943,20.5H75.511a4.943,4.943,0,0,1,4.943,4.943V41.584A4.942,4.942,0,0,1,75.513,46.528Z" transform="translate(-1 9.402)" fill="#6463d8"/>
        <line id="Line_2" data-name="Line 2" x2="34.248" transform="translate(0 78.779)" fill="none" stroke="#fff" stroke-linecap="round" stroke-miterlimit="10" stroke-width="2"/>
        <line id="Line_3" data-name="Line 3" x2="34.248" transform="translate(45.207 78.779)" fill="none" stroke="#fff" stroke-linecap="round" stroke-miterlimit="10" stroke-width="2"/>
        <line id="Line_4" data-name="Line 4" y1="13.699" transform="translate(39.728 59.601)" fill="none" stroke="#fff" stroke-miterlimit="10" stroke-width="2"/>
        <circle id="Ellipse_2" data-name="Ellipse 2" cx="4.795" cy="4.795" r="4.795" transform="translate(8.22 8.22)" fill="#fff"/>
        <circle id="Ellipse_3" data-name="Ellipse 3" cx="4.795" cy="4.795" r="4.795" transform="translate(8.22 38.097)" fill="#fff"/>
        <g id="Group_14" data-name="Group 14" transform="translate(43.837 9.589)">
          <circle id="Ellipse_4" data-name="Ellipse 4" cx="1.37" cy="1.37" r="1.37" transform="translate(21.919)" fill="#fff"/>
          <circle id="Ellipse_5" data-name="Ellipse 5" cx="1.37" cy="1.37" r="1.37" transform="translate(16.439)" fill="#fff"/>
          <circle id="Ellipse_6" data-name="Ellipse 6" cx="1.37" cy="1.37" r="1.37" transform="translate(24.659 4.11)" fill="#fff"/>
          <circle id="Ellipse_7" data-name="Ellipse 7" cx="1.37" cy="1.37" r="1.37" transform="translate(19.179 4.11)" fill="#fff"/>
          <circle id="Ellipse_8" data-name="Ellipse 8" cx="1.37" cy="1.37" r="1.37" transform="translate(10.959)" fill="#fff"/>
          <circle id="Ellipse_9" data-name="Ellipse 9" cx="1.37" cy="1.37" r="1.37" transform="translate(13.699 4.11)" fill="#fff"/>
          <circle id="Ellipse_10" data-name="Ellipse 10" cx="1.37" cy="1.37" r="1.37" transform="translate(5.48)" fill="#fff"/>
          <circle id="Ellipse_11" data-name="Ellipse 11" cx="1.37" cy="1.37" r="1.37" transform="translate(8.22 4.11)" fill="#fff"/>
          <circle id="Ellipse_12" data-name="Ellipse 12" cx="1.37" cy="1.37" r="1.37" fill="#fff"/>
          <circle id="Ellipse_13" data-name="Ellipse 13" cx="1.37" cy="1.37" r="1.37" transform="translate(2.74 4.11)" fill="#fff"/>
          <circle id="Ellipse_14" data-name="Ellipse 14" cx="1.37" cy="1.37" r="1.37" transform="translate(21.919 26.028)" fill="#fff"/>
          <circle id="Ellipse_15" data-name="Ellipse 15" cx="1.37" cy="1.37" r="1.37" transform="translate(16.439 26.028)" fill="#fff"/>
          <circle id="Ellipse_16" data-name="Ellipse 16" cx="1.37" cy="1.37" r="1.37" transform="translate(24.659 30.138)" fill="#fff"/>
          <circle id="Ellipse_17" data-name="Ellipse 17" cx="1.37" cy="1.37" r="1.37" transform="translate(19.179 30.138)" fill="#fff"/>
          <circle id="Ellipse_18" data-name="Ellipse 18" cx="1.37" cy="1.37" r="1.37" transform="translate(10.959 26.028)" fill="#fff"/>
          <circle id="Ellipse_19" data-name="Ellipse 19" cx="1.37" cy="1.37" r="1.37" transform="translate(13.699 30.138)" fill="#fff"/>
          <circle id="Ellipse_20" data-name="Ellipse 20" cx="1.37" cy="1.37" r="1.37" transform="translate(5.48 26.028)" fill="#fff"/>
          <circle id="Ellipse_21" data-name="Ellipse 21" cx="1.37" cy="1.37" r="1.37" transform="translate(8.22 30.138)" fill="#fff"/>
          <circle id="Ellipse_22" data-name="Ellipse 22" cx="1.37" cy="1.37" r="1.37" transform="translate(0 26.028)" fill="#fff"/>
          <circle id="Ellipse_23" data-name="Ellipse 23" cx="1.37" cy="1.37" r="1.37" transform="translate(2.74 30.138)" fill="#fff"/>
        </g>
      </g>
    </g>
  </g>
</svg>
