<svg xmlns="http://www.w3.org/2000/svg" width="214.368" height="214.369" viewBox="0 0 214.368 214.369">
  <g id="close-button" transform="translate(-293.165 -734.942) rotate(45)">
    <g id="close-button-2" data-name="close-button" transform="translate(1029.503 311.742) rotate(135)">
      <path id="Path_3903" data-name="Path 3903" d="M20.654,0s83.922,9.519,167.767,9.519c49.971,0,63.71,4.128,60.135,12.909-2.188,5.461,4.491,11.7-61.852,7.182L21.874,46.93C13.306,46.93,0,37.625,0,24.207S12.086,0,20.654,0Z" transform="translate(181.184 212.555) rotate(-135)" fill="#fff"/>
      <path id="Path_3904" data-name="Path 3904" d="M20.654,0s83.922,9.519,167.768,9.519c49.972,0,63.71,4.128,60.135,12.909-2.188,5.461,4.491,11.7-61.853,7.182L21.874,46.93C13.306,46.93,0,37.625,0,24.207S12.086,0,20.654,0Z" transform="translate(33.185 0) rotate(45)" fill="#fff"/>
    </g>
    <g id="Group_175" data-name="Group 175" transform="translate(877.922 161.443) rotate(45)">
      <path id="Path_3903-2" data-name="Path 3903" d="M20.654,0s83.922,9.519,167.767,9.519c49.971,0,63.71,4.128,60.135,12.909-2.188,5.461,4.491,11.7-61.852,7.182L21.874,46.93C13.306,46.93,0,37.625,0,24.207S12.086,0,20.654,0Z" transform="translate(181.184 212.555) rotate(-135)" fill="#fff"/>
      <path id="Path_3904-2" data-name="Path 3904" d="M20.654,0s83.922,9.519,167.768,9.519c49.972,0,63.71,4.128,60.135,12.909-2.188,5.461,4.491,11.7-61.853,7.182L21.874,46.93C13.306,46.93,0,37.625,0,24.207S12.086,0,20.654,0Z" transform="translate(33.185 0) rotate(45)" fill="#fff"/>
    </g>
  </g>
</svg>
