<svg id="facebook-icon" xmlns="http://www.w3.org/2000/svg" width="50" height="50" viewBox="0 0 50 50">
  <path id="Path_40" data-name="Path 40" d="M47.241,50A2.76,2.76,0,0,0,50,47.24V2.76A2.759,2.759,0,0,0,47.241,0H2.76A2.759,2.759,0,0,0,0,2.76V47.24A2.759,2.759,0,0,0,2.76,50H47.241Z" fill="#485a96"/>
  <path id="Path_41" data-name="Path 41" d="M122.342,83.527V63.814h6.617l.991-7.683h-7.608V51.226c0-2.224.618-3.74,3.807-3.74l4.068,0V40.613a54.441,54.441,0,0,0-5.928-.3c-5.866,0-9.881,3.58-9.881,10.155v5.666h-6.634v7.683h6.634V83.527h7.934Z" transform="translate(-87.872 -33.527)" fill="#fff"/>
</svg>
