<svg id="firebase-2" xmlns="http://www.w3.org/2000/svg" width="17.408" height="24.162" viewBox="0 0 17.408 24.162">
  <path id="Path_7" data-name="Path 7" d="M698.35,358.158l-2.411,2.25-2.238-4.527,1.156-2.6c.292-.519.77-.526,1.063,0Z" transform="translate(-686.92 -349.431)" fill="#ffa000"/>
  <path id="Path_8" data-name="Path 8" d="M9.02,663.125,0,671.533,6.781,658.6Z" transform="translate(0 -652.149)" fill="#f57f17"/>
  <path id="Path_9" data-name="Path 9" d="M14.074,515.735c.432-.412.877-.273.989.313l2.345,13.672L9.631,534.4a3.578,3.578,0,0,1-1,.213,3.661,3.661,0,0,1-.91-.219L0,529.832Z" transform="translate(0 -510.448)" fill="#ffca28"/>
  <path id="Path_10" data-name="Path 10" d="M6.781,6.5,0,19.434,3.022.531c.113-.586.445-.646.744-.126Z" transform="translate(0 -0.05)" fill="#ffa000"/>
</svg>
