<svg xmlns="http://www.w3.org/2000/svg" width="625.749" height="619.746" viewBox="0 0 625.749 619.746">
  <g id="follow-how" transform="translate(-5.829 -7.002)">
    <path id="Path_95" data-name="Path 95" d="M161.654,102.925a5.3,5.3,0,0,1-.607-.061v28.852a26.557,26.557,0,0,1,21.41-10.794c.184,0,.366.023.551.028V112.8a86.056,86.056,0,0,1,.576-9.872H161.654Z" transform="translate(242.288 149.636)" fill="#4671c6"/>
    <path id="Path_96" data-name="Path 96" d="M259.29,102.927H237.363a86.11,86.11,0,0,1,.576,9.872v8.149c.184,0,.364-.028.551-.028a26.571,26.571,0,0,1,21.41,10.794V102.863A5.284,5.284,0,0,1,259.29,102.927Z" transform="translate(361.414 149.635)" fill="#048aea"/>
    <path id="Path_97" data-name="Path 97" d="M316.759,159.271H302.654c-.031,0-.061-.005-.092-.005l-.005.005H209.768a44.383,44.383,0,0,0-44.384,44.384v40.3H361.141v-40.3a44.379,44.379,0,0,0-44.381-44.384Z" transform="translate(249.058 237.677)" fill="#e0ebfc"/>
    <path id="Path_98" data-name="Path 98" d="M234.955,209.11A51.536,51.536,0,0,0,286.4,159.271H274.355c-.031,0-.061-.005-.092-.005l-.005.005H183.513a51.538,51.538,0,0,0,51.442,49.839Z" transform="translate(277.357 237.677)" fill="#a4c9ff"/>
    <path id="Path_99" data-name="Path 99" d="M360.75,167.432c-.184,0-.366.023-.551.028v-8.149c0-47.631-38.965-86.245-87.029-86.245s-87.029,38.614-87.029,86.245v8.149c-.184,0-.364-.028-.551-.028a26.312,26.312,0,1,0,0,52.622,26.79,26.79,0,0,0,2.848-.156,87.2,87.2,0,0,0,169.463,0,26.827,26.827,0,0,0,2.848.156,26.312,26.312,0,1,0,0-52.622Z" transform="translate(239.154 103.123)" fill="#f9cfcf"/>
    <path id="Path_100" data-name="Path 100" d="M193.123,149.993a10.519,10.519,0,0,1-10.508-10.505V121.979a10.506,10.506,0,0,1,21.013,0v17.509A10.518,10.518,0,0,1,193.123,149.993Z" transform="translate(275.955 163.076)" fill="#3762cc"/>
    <path id="Path_101" data-name="Path 101" d="M226.737,149.993a10.519,10.519,0,0,1-10.508-10.505V121.979a10.506,10.506,0,0,1,21.013,0v17.509A10.518,10.518,0,0,1,226.737,149.993Z" transform="translate(328.425 163.076)" fill="#3762cc"/>
    <path id="Path_102" data-name="Path 102" d="M276.29,294.729c-41.621,0-77.489-27.115-88.655-66.447a31.416,31.416,0,0,1-3.493-62.523v-3.327c0-50.379,41.339-91.367,92.148-91.367s92.151,40.988,92.151,91.367v3.327a31.416,31.416,0,0,1-3.493,62.523c-11.168,39.331-47.034,66.447-88.658,66.447ZM191.566,217.9a5.123,5.123,0,0,1,4.981,3.949c8.679,36.88,41.47,62.636,79.743,62.636s71.066-25.758,79.746-62.636a5.125,5.125,0,0,1,5.532-3.921,21.2,21.2,0,1,0,2.371-42.251c-.138.008-.461.026-.515.026a4.946,4.946,0,0,1-3.688-1.462,5.121,5.121,0,0,1-1.539-3.657v-8.149c0-44.732-36.745-81.123-81.907-81.123s-81.9,36.391-81.9,81.123v8.149a5.117,5.117,0,0,1-1.539,3.657,4.974,4.974,0,0,1-3.688,1.462c-.085,0-.423-.018-.507-.026h0a21.188,21.188,0,1,0,2.369,42.248C191.2,217.909,191.384,217.9,191.566,217.9Z" transform="translate(236.032 100.001)" fill="#3762cc"/>
    <path id="Path_103" data-name="Path 103" d="M219.264,155.13h-3.818a23.983,23.983,0,0,1-7.542-1.1,21.006,21.006,0,0,1-8.39-5.048,15.582,15.582,0,0,1-4.717-10.958,5.122,5.122,0,1,1,10.244,0,5.467,5.467,0,0,0,1.747,3.744,10.78,10.78,0,0,0,4.3,2.525,14.026,14.026,0,0,0,4.356.586h3.818a14,14,0,0,0,4.361-.589,10.773,10.773,0,0,0,4.3-2.528,5.452,5.452,0,0,0,1.741-3.742,5.122,5.122,0,1,1,10.244,0,15.575,15.575,0,0,1-4.715,10.958,21.063,21.063,0,0,1-8.385,5.048,24.027,24.027,0,0,1-7.552,1.1Z" transform="translate(294.97 196.528)" fill="#3762cc"/>
    <path id="Path_104" data-name="Path 104" d="M254.972,168.273H164.788a5.749,5.749,0,0,1-5.749-5.749V139.511A78.512,78.512,0,0,1,237.55,61h41.859A21.56,21.56,0,0,1,300.97,82.561v39.715a46,46,0,0,1-46,46Z" transform="translate(239.154 84.289)" fill="#048aea"/>
    <path id="Path_105" data-name="Path 105" d="M295.04,168.273H260.455a46,46,0,0,1-45.995-45.995V82.561A21.56,21.56,0,0,1,236.021,61a64.771,64.771,0,0,1,64.772,64.772v36.752a5.753,5.753,0,0,1-5.752,5.749Z" transform="translate(325.663 84.289)" fill="#048aea"/>
    <path id="Path_106" data-name="Path 106" d="M227.675,162.118a87.231,87.231,0,0,1-39.49-9.378v15.071a39.48,39.48,0,1,0,78.959,0V152.75A87.22,87.22,0,0,1,227.675,162.118Z" transform="translate(284.649 227.491)" fill="#f9cfcf"/>
    <path id="Path_107" data-name="Path 107" d="M364.262,262.382H168.508a5.124,5.124,0,0,1-5.122-5.122v-40.3a49.562,49.562,0,0,1,49.506-49.506h8.881V155.864a5.122,5.122,0,0,1,7.434-4.571,82.715,82.715,0,0,0,74.337.013,5.12,5.12,0,0,1,7.432,4.571V167.46h8.9a49.562,49.562,0,0,1,49.506,49.506v40.3a5.124,5.124,0,0,1-5.124,5.119ZM173.63,252.138H359.14V216.963A39.307,39.307,0,0,0,319.878,177.7H305.811a5.12,5.12,0,0,1-5.117-5.332c.02-.476.038-.953.038-1.434v-7.13a93.221,93.221,0,0,1-68.716-.008v7.137c0,.481.018.958.038,1.434a5.12,5.12,0,0,1-5.117,5.332H212.894a39.307,39.307,0,0,0-39.262,39.262v35.175Z" transform="translate(245.939 224.367)" fill="#3762cc"/>
    <path id="Path_108" data-name="Path 108" d="M258.094,176.517H167.91a10.883,10.883,0,0,1-10.871-10.871V142.633A83.728,83.728,0,0,1,240.672,59h41.859a26.713,26.713,0,0,1,26.683,26.683V125.4a51.175,51.175,0,0,1-51.119,51.119ZM240.672,69.244a73.471,73.471,0,0,0-73.389,73.389v23.013a.628.628,0,0,0,.627.627h90.184A40.921,40.921,0,0,0,298.97,125.4V85.683a16.457,16.457,0,0,0-16.439-16.439Z" transform="translate(236.032 81.167)" fill="#3762cc"/>
    <path id="Path_109" data-name="Path 109" d="M298.165,176.517H263.577A51.174,51.174,0,0,1,212.46,125.4V85.683A26.713,26.713,0,0,1,239.143,59a69.972,69.972,0,0,1,69.893,69.894v36.752A10.884,10.884,0,0,1,298.165,176.517ZM239.143,69.244A16.457,16.457,0,0,0,222.7,85.683V125.4a40.917,40.917,0,0,0,40.873,40.873h34.588a.628.628,0,0,0,.627-.627v-36.75A59.718,59.718,0,0,0,239.143,69.244Z" transform="translate(322.542 81.167)" fill="#3762cc"/>
    <path id="Path_110" data-name="Path 110" d="M10.445,102.773a5.29,5.29,0,0,1-.607-.061v28.852a26.557,26.557,0,0,1,21.41-10.794c.187,0,.366.023.551.028v-8.149a86.063,86.063,0,0,1,.576-9.872H10.445Z" transform="translate(6.258 149.399)" fill="#4671c6"/>
    <path id="Path_111" data-name="Path 111" d="M108.081,102.775H86.154a86.1,86.1,0,0,1,.576,9.872V120.8c.184,0,.364-.028.551-.028a26.571,26.571,0,0,1,21.41,10.794V102.711a5.4,5.4,0,0,1-.609.064Z" transform="translate(125.384 149.398)" fill="#4671c6"/>
    <path id="Path_112" data-name="Path 112" d="M165.549,159.119H151.443c-.031,0-.061-.005-.092-.005l-.005.005H58.56A44.383,44.383,0,0,0,14.176,203.5v40.3H209.933V203.5A44.384,44.384,0,0,0,165.549,159.119Z" transform="translate(13.029 237.44)" fill="#e0ebfc"/>
    <path id="Path_113" data-name="Path 113" d="M83.746,208.958a51.536,51.536,0,0,0,51.442-49.839H123.146c-.031,0-.061-.005-.092-.005l-.005.005H32.3a51.535,51.535,0,0,0,51.442,49.839Z" transform="translate(41.326 237.44)" fill="#a4c9ff"/>
    <path id="Path_114" data-name="Path 114" d="M209.54,167.28c-.184,0-.366.023-.551.028v-8.149c0-47.631-38.965-86.245-87.029-86.245s-87.029,38.614-87.029,86.245v8.149c-.184,0-.364-.028-.551-.028a26.312,26.312,0,1,0,0,52.622,26.8,26.8,0,0,0,2.848-.156,87.2,87.2,0,0,0,169.463,0,26.836,26.836,0,0,0,2.848.156,26.312,26.312,0,1,0,0-52.622Z" transform="translate(3.122 102.886)" fill="#f9cfcf"/>
    <path id="Path_115" data-name="Path 115" d="M41.913,149.841A10.519,10.519,0,0,1,31.4,139.336V121.827a10.506,10.506,0,0,1,21.013,0v17.509A10.516,10.516,0,0,1,41.913,149.841Z" transform="translate(39.923 162.839)" fill="#3762cc"/>
    <path id="Path_116" data-name="Path 116" d="M75.527,149.841a10.519,10.519,0,0,1-10.508-10.505V121.827a10.506,10.506,0,0,1,21.013,0v17.509A10.516,10.516,0,0,1,75.527,149.841Z" transform="translate(92.393 162.839)" fill="#3762cc"/>
    <path id="Path_117" data-name="Path 117" d="M125.083,294.577c-41.623,0-77.489-27.115-88.658-66.447a31.417,31.417,0,0,1-3.493-62.526v-3.324c0-50.379,41.339-91.367,92.151-91.367s92.148,40.988,92.148,91.367v3.324a31.417,31.417,0,0,1-3.493,62.526c-11.171,39.334-47.037,66.447-88.655,66.447ZM40.357,217.749a5.125,5.125,0,0,1,4.981,3.949c8.682,36.88,41.472,62.636,79.746,62.636s71.061-25.758,79.743-62.636a5.118,5.118,0,0,1,5.524-3.921,22.239,22.239,0,0,0,2.31.128,21.19,21.19,0,1,0,.069-42.379c-.138.008-.461.026-.515.026a5.04,5.04,0,0,1-3.688-1.462,5.121,5.121,0,0,1-1.539-3.657v-8.149c0-44.732-36.745-81.123-81.9-81.123s-81.907,36.391-81.907,81.123v8.149a5.117,5.117,0,0,1-1.539,3.657,5.045,5.045,0,0,1-3.688,1.462c-.085,0-.423-.018-.507-.026h0a21.19,21.19,0,1,0,.064,42.379,22.161,22.161,0,0,0,2.31-.128,4.821,4.821,0,0,1,.543-.028Z" transform="translate(0.002 99.764)" fill="#3762cc"/>
    <path id="Path_118" data-name="Path 118" d="M68.053,154.977H64.234a23.911,23.911,0,0,1-7.545-1.1,21.036,21.036,0,0,1-8.385-5.043,15.592,15.592,0,0,1-4.717-10.961,5.122,5.122,0,0,1,10.244,0,5.455,5.455,0,0,0,1.744,3.744,10.789,10.789,0,0,0,4.3,2.523,13.985,13.985,0,0,0,4.359.589h3.818a13.974,13.974,0,0,0,4.359-.589,10.754,10.754,0,0,0,4.3-2.523,5.467,5.467,0,0,0,1.747-3.744,5.122,5.122,0,0,1,10.244,0,15.582,15.582,0,0,1-4.717,10.958,21,21,0,0,1-8.387,5.048A24.054,24.054,0,0,1,68.053,154.977Z" transform="translate(58.94 196.292)" fill="#3762cc"/>
    <path id="Path_119" data-name="Path 119" d="M103.763,168.121H13.579a5.749,5.749,0,0,1-5.749-5.749V139.359A78.512,78.512,0,0,1,86.341,60.848H128.2a21.56,21.56,0,0,1,21.561,21.561v39.715A46,46,0,0,1,103.763,168.121Z" transform="translate(3.123 84.051)" fill="#048aea"/>
    <path id="Path_120" data-name="Path 120" d="M143.833,168.121H109.245A46,46,0,0,1,63.25,122.127V82.409A21.56,21.56,0,0,1,84.811,60.848a64.771,64.771,0,0,1,64.772,64.772v36.752A5.749,5.749,0,0,1,143.833,168.121Z" transform="translate(89.632 84.051)" fill="#048aea"/>
    <path id="Path_121" data-name="Path 121" d="M76.465,161.966a87.231,87.231,0,0,1-39.49-9.378v15.071a39.48,39.48,0,0,0,78.959,0V152.6A87.212,87.212,0,0,1,76.465,161.966Z" transform="translate(48.617 227.253)" fill="#f9cfcf"/>
    <path id="Path_122" data-name="Path 122" d="M213.052,262.228H17.3a5.124,5.124,0,0,1-5.122-5.122V216.812a49.562,49.562,0,0,1,49.506-49.506h8.881V155.713A5.122,5.122,0,0,1,78,151.142a82.716,82.716,0,0,0,74.337.013,5.12,5.12,0,0,1,7.432,4.571v11.583h8.9a49.562,49.562,0,0,1,49.506,49.506v40.294A5.124,5.124,0,0,1,213.052,262.228ZM22.42,251.984H207.93V216.812a39.307,39.307,0,0,0-39.262-39.262H154.6a5.12,5.12,0,0,1-5.117-5.332c.021-.476.036-.953.036-1.434v-7.13a93.222,93.222,0,0,1-68.716-.008v7.137c0,.481.018.958.038,1.434a5.12,5.12,0,0,1-5.117,5.332H61.684a39.307,39.307,0,0,0-39.262,39.262v35.172Z" transform="translate(9.907 224.131)" fill="#3762cc"/>
    <path id="Path_123" data-name="Path 123" d="M106.887,176.365H16.7A10.883,10.883,0,0,1,5.829,165.494V142.481A83.728,83.728,0,0,1,89.462,58.848h41.859A26.713,26.713,0,0,1,158,85.531v39.715A51.175,51.175,0,0,1,106.887,176.365ZM89.462,69.092a73.471,73.471,0,0,0-73.389,73.389v23.013a.628.628,0,0,0,.627.627h90.187a40.919,40.919,0,0,0,40.873-40.873V85.531a16.457,16.457,0,0,0-16.439-16.439Z" transform="translate(0 80.929)" fill="#3762cc"/>
    <path id="Path_124" data-name="Path 124" d="M146.955,176.365H112.369A51.175,51.175,0,0,1,61.25,125.248V85.531A26.713,26.713,0,0,1,87.933,58.848a69.972,69.972,0,0,1,69.894,69.894v36.752A10.883,10.883,0,0,1,146.955,176.365ZM87.933,69.092A16.457,16.457,0,0,0,71.494,85.531v39.715a40.919,40.919,0,0,0,40.875,40.873h34.586a.628.628,0,0,0,.627-.627v-36.75A59.718,59.718,0,0,0,87.933,69.092Z" transform="translate(86.51 80.929)" fill="#3762cc"/>
    <path id="Path_125" data-name="Path 125" d="M286.44,145.77H266.547c-.044,0-.085-.008-.128-.008l-.008.008H135.554a62.552,62.552,0,0,0-62.595,62.508v56.751H349.032V208.277A62.551,62.551,0,0,0,286.44,145.77Z" transform="translate(104.787 216.598)" fill="#a4c9ff"/>
    <path id="Path_126" data-name="Path 126" d="M252.95,145.841c-.958-.044-1.918-.072-2.886-.072H230.171c-.044,0-.085-.008-.128-.008l-.008.008H119.176l-.008-.008c-.044,0-.085.008-.128.008H99.147c-.968,0-1.928.031-2.886.072a36.108,36.108,0,0,0,.574,4.387,23.064,23.064,0,0,0,.853,3.048l-.02-.008c.026.056.054.108.079.161a22.771,22.771,0,0,0,2.469,4.922c11.747,21.835,28.678,31.948,28.678,31.948l0-.008A79.287,79.287,0,0,0,174.6,205.635a79.287,79.287,0,0,0,45.713-15.343l0,.008s16.93-10.111,28.678-31.948a22.83,22.83,0,0,0,2.469-4.922c.026-.056.054-.105.079-.161l-.02.008a22.676,22.676,0,0,0,.853-3.048,35.084,35.084,0,0,0,.579-4.387Z" transform="translate(141.16 216.598)" fill="#e0ebfc"/>
    <path id="Path_127" data-name="Path 127" d="M160.821,149.163a120.316,120.316,0,0,1-55.708-13.586v23.758a12.382,12.382,0,0,0,.307,2.592.032.032,0,0,0,.015,0,12.908,12.908,0,0,0,.8,2.466c.046.1.09.21.138.312.151.325.32.64.5.948s.374.592.579.876c.11.154.2.32.325.466l7.911,10.044a56.157,56.157,0,0,0,31.169,20.137c1.659.387,3.38.722,5.16.989,20.08,3.007,40.169-5.534,52.653-21.62l11.532-14.859a12.4,12.4,0,0,0,.264-2.425V135.6a120.253,120.253,0,0,1-55.65,13.56Z" transform="translate(154.978 200.7)" fill="#f9cfcf"/>
    <path id="Path_128" data-name="Path 128" d="M343.448,156.063c-.256,0-.5.033-.758.038V144.885c0-65.558-53.7-118.7-119.947-118.7S102.8,79.327,102.8,144.885V156.1c-.254-.005-.5-.038-.758-.038a36.216,36.216,0,1,0,0,72.429,37.5,37.5,0,0,0,3.926-.215c12.377,52.515,59.944,91.646,116.78,91.646s104.4-39.131,116.779-91.646a37.5,37.5,0,0,0,3.926.215,36.216,36.216,0,1,0,0-72.429Z" transform="translate(93.056 29.939)" fill="#f9cfcf"/>
    <g id="Group_88" data-name="Group 88" transform="translate(153.376 50.997)">
      <path id="Path_129" data-name="Path 129" d="M225.864,328.169c-56.976,0-106.008-37.382-120.708-91.431a41.32,41.32,0,0,1-4.361-82.447v-6.282c0-68.278,56.105-123.827,125.069-123.827S350.936,79.728,350.936,148.008v6.282a41.32,41.32,0,0,1-4.361,82.447c-14.7,54.049-63.734,91.431-120.711,91.431ZM109.092,226.279a5.118,5.118,0,0,1,4.979,3.946c12.172,51.636,58.141,87.7,111.793,87.7s99.624-36.063,111.8-87.7a5.1,5.1,0,0,1,5.521-3.918,32.036,32.036,0,0,0,3.388.187,31.095,31.095,0,1,0,.046-62.185c-.307.02-.5.033-.7.036a4.917,4.917,0,0,1-3.688-1.462,5.119,5.119,0,0,1-1.537-3.657V148.011c0-62.631-51.511-113.583-114.828-113.583S111.038,85.38,111.038,148.008v11.214a5.119,5.119,0,0,1-1.537,3.657,4.925,4.925,0,0,1-3.685,1.462c-.2,0-.4-.015-.6-.031H105.2a31.093,31.093,0,1,0-.041,62.18,32.052,32.052,0,0,0,3.388-.187C108.731,226.289,108.91,226.279,109.092,226.279Z" transform="translate(-63.443 -24.181)" fill="#3762cc"/>
      <path id="Path_130" data-name="Path 130" d="M143.891,137.977a32.566,32.566,0,0,1-9.57-1.3,28.821,28.821,0,0,1-12.1-7.066,20.614,20.614,0,0,1-6.274-14.485,5.122,5.122,0,1,1,10.244,0,10.318,10.318,0,0,0,3.3,7.265,18.583,18.583,0,0,0,7.808,4.484,25.9,25.9,0,0,0,13.184,0,18.577,18.577,0,0,0,7.811-4.484,10.325,10.325,0,0,0,3.3-7.265,5.122,5.122,0,1,1,10.244,0,20.613,20.613,0,0,1-6.272,14.485,28.76,28.76,0,0,1-12.1,7.068,32.543,32.543,0,0,1-9.57,1.293Z" transform="translate(18.515 109.793)" fill="#3762cc"/>
      <path id="Path_131" data-name="Path 131" d="M112.522,134.675a14.486,14.486,0,0,1-14.48-14.459v-24.1a14.48,14.48,0,0,1,28.959,0v24.1A14.487,14.487,0,0,1,112.522,134.675Z" transform="translate(-9.436 65.538)" fill="#3762cc"/>
      <path id="Path_132" data-name="Path 132" d="M158.85,134.675a14.486,14.486,0,0,1-14.48-14.459v-24.1a14.48,14.48,0,0,1,28.959,0v24.1A14.487,14.487,0,0,1,158.85,134.675Z" transform="translate(62.88 65.538)" fill="#3762cc"/>
      <path id="Path_133" data-name="Path 133" d="M225.864,328.169c-56.976,0-106.008-37.382-120.708-91.431a41.32,41.32,0,0,1-4.361-82.447v-6.282c0-68.278,56.105-123.827,125.069-123.827S350.936,79.728,350.936,148.008v6.282a41.32,41.32,0,0,1-4.361,82.447c-14.7,54.049-63.734,91.431-120.711,91.431ZM109.092,226.279a5.118,5.118,0,0,1,4.979,3.946c12.172,51.636,58.141,87.7,111.793,87.7s99.624-36.063,111.8-87.7a5.1,5.1,0,0,1,5.521-3.918,32.036,32.036,0,0,0,3.388.187,31.095,31.095,0,1,0,.046-62.185c-.307.02-.5.033-.7.036a4.917,4.917,0,0,1-3.688-1.462,5.119,5.119,0,0,1-1.537-3.657V148.011c0-62.631-51.511-113.583-114.828-113.583S111.038,85.38,111.038,148.008v11.214a5.119,5.119,0,0,1-1.537,3.657,4.925,4.925,0,0,1-3.685,1.462c-.2,0-.4-.015-.6-.031H105.2a31.093,31.093,0,1,0-.041,62.18,32.052,32.052,0,0,0,3.388-.187C108.731,226.289,108.91,226.279,109.092,226.279Z" transform="translate(-63.443 -24.181)" fill="#3762cc"/>
    </g>
    <path id="Path_134" data-name="Path 134" d="M302.247,33.853A136.8,136.8,0,0,0,251.62,16.062c-24.5-8.257-56.087-10.52-96.264.036,0,0-29.817,12.766-73.469,8.943a4.035,4.035,0,0,0-4.261,5.071A147.629,147.629,0,0,0,93.212,65.983a4.045,4.045,0,0,1-1.975,5.834,203.032,203.032,0,0,1-30.329,9.429,4.032,4.032,0,0,0-2.492,6.131c13.368,20.536,72.337,96.54,198.179,68.9,2.243-.494,4.474-1.109,6.664-1.8A79.207,79.207,0,0,0,311,112.843l9.186-19.3c10.254-21.548,2.635-47.567-17.934-59.688Z" transform="translate(81.064 3.12)" fill="#048aea"/>
    <path id="Path_135" data-name="Path 135" d="M206.8,170.558c-91.124,0-136.45-57.137-149.555-77.269a9.158,9.158,0,0,1,5.649-13.921,198.7,198.7,0,0,0,28.4-8.728A153.038,153.038,0,0,1,75.8,34.584a9.158,9.158,0,0,1,9.65-11.529c41.882,3.662,70.713-8.428,71.005-8.551a5.119,5.119,0,0,1,.715-.246c36.719-9.645,69.94-9.675,98.745-.085a141.524,141.524,0,0,1,52.049,18.385c22.559,13.294,31.323,42.417,19.957,66.3l-9.186,19.3a84.559,84.559,0,0,1-50.832,44.325c-2.525.791-4.848,1.416-7.1,1.91a251.542,251.542,0,0,1-54.013,6.164ZM66.688,89c15.857,23.689,72.933,91.536,191.928,65.384,1.954-.428,3.993-.978,6.231-1.68a74.294,74.294,0,0,0,44.645-38.95l9.186-19.3c9.107-19.135,2.118-42.445-15.911-53.071a131.291,131.291,0,0,0-48.735-17.13,5.243,5.243,0,0,1-.927-.218c-26.9-9.063-58.18-9.045-92.988.044-3.749,1.537-32.522,12.61-74,9.312a144.509,144.509,0,0,0,14.613,33.082,9.167,9.167,0,0,1-4.471,13.217A208.511,208.511,0,0,1,66.688,89Z" transform="translate(77.942 0)" fill="#3762cc"/>
    <path id="Path_136" data-name="Path 136" d="M200.891,42.117a19.518,19.518,0,0,0-21.123-6.784l-6.751,2.041a46.549,46.549,0,0,1-2.886,12.815s0,.005.005.005c-.448,1.191-.937,2.374-1.493,3.544l-9.186,19.3c-.676,1.424-1.406,2.814-2.161,4.187-.041.074-.085.143-.125.218q-1.106,2-2.325,3.918s0,0,0,.005A69.29,69.29,0,0,0,183.087,128.7l20.057,14.421c.254-.005.5-.038.758-.038a36.74,36.74,0,0,1,17.5,4.4l2.543-18.636a116.486,116.486,0,0,0-23.051-86.732Z" transform="translate(232.602 42.918)" fill="#048aea"/>
    <path id="Path_137" data-name="Path 137" d="M224.524,155.72a5.115,5.115,0,0,1-2.433-.615,31.792,31.792,0,0,0-15.064-3.788c-.248.02-.451.033-.656.038a4.853,4.853,0,0,1-3.091-.96l-20.06-14.421a74.72,74.72,0,0,1-30.337-50.827,5.132,5.132,0,0,1,.507-2.973c.074-.146.156-.289.243-.428.761-1.2,1.49-2.423,2.184-3.672.015-.028.123-.218.141-.246.681-1.237,1.362-2.543,2-3.875l9.186-19.3c.492-1.037.927-2.09,1.329-3.15a41.765,41.765,0,0,0,2.566-11.417,5.12,5.12,0,0,1,3.624-4.5l6.751-2.041a24.754,24.754,0,0,1,26.667,8.566,122.388,122.388,0,0,1,24.063,90.548L229.6,151.3a5.127,5.127,0,0,1-2.753,3.875,5.219,5.219,0,0,1-2.323.548Zm-16.646-14.638a42.255,42.255,0,0,1,12.482,2.156l1.634-11.967a112.089,112.089,0,0,0-22.037-82.921,14.463,14.463,0,0,0-15.578-5l-3.532,1.068a51.892,51.892,0,0,1-2.8,10.7c-.53,1.429-1.073,2.717-1.652,3.934l-9.189,19.3c-.72,1.516-1.493,2.994-2.3,4.456,0,.005-.131.233-.136.238q-.718,1.287-1.473,2.54a64.432,64.432,0,0,0,25.9,42.066Z" transform="translate(229.478 39.807)" fill="#3762cc"/>
    <path id="Path_138" data-name="Path 138" d="M73.838,119.308a36.647,36.647,0,0,1,21.23-6.756c.256,0,.5.033.758.038V101.374A117.745,117.745,0,0,1,99.7,71.382,169.351,169.351,0,0,1,73.472,54.055a116.435,116.435,0,0,0-2.5,44.266Z" transform="translate(100.023 73.448)" fill="#048aea"/>
    <path id="Path_139" data-name="Path 139" d="M76.963,127.553a5.126,5.126,0,0,1-5.076-4.43l-2.866-20.987a121.119,121.119,0,0,1,2.61-46.212,5.123,5.123,0,0,1,8.175-2.74,164.448,164.448,0,0,0,25.433,16.8,5.122,5.122,0,0,1,2.54,5.821,112.742,112.742,0,0,0-3.7,28.69v11.217a5.119,5.119,0,0,1-1.537,3.657,4.925,4.925,0,0,1-3.685,1.462c-.207,0-.415-.015-.62-.031H98.2a31.477,31.477,0,0,0-18.283,5.808,5.094,5.094,0,0,1-2.958.942Zm2.937-61.4a110.665,110.665,0,0,0-.727,34.6l1.841,13.483a41.659,41.659,0,0,1,12.818-3.457V104.5a123.19,123.19,0,0,1,3.081-27.4A173.858,173.858,0,0,1,79.9,66.151Z" transform="translate(96.898 70.325)" fill="#3762cc"/>
    <path id="Path_140" data-name="Path 140" d="M352.157,289.172H76.081a5.124,5.124,0,0,1-5.122-5.122V227.3a67.749,67.749,0,0,1,67.714-67.63H153.3V138.7a5.12,5.12,0,0,1,7.486-4.543,116.013,116.013,0,0,0,53.345,13.007,114.411,114.411,0,0,0,53.286-12.976,5.123,5.123,0,0,1,7.486,4.543v20.938h14.659a67.751,67.751,0,0,1,67.717,67.63V284.05a5.122,5.122,0,0,1-5.122,5.122ZM81.2,278.928H347.035V227.3a57.5,57.5,0,0,0-57.473-57.386H269.533a5.127,5.127,0,0,1-5.035-6.123,7.319,7.319,0,0,0,.161-1.4V146.849a126.185,126.185,0,0,1-101.112-.028v15.632a7.175,7.175,0,0,0,.164,1.337,5.123,5.123,0,0,1-5.025,6.121H138.673A57.493,57.493,0,0,0,81.2,227.3Z" transform="translate(101.665 197.576)" fill="#3762cc"/>
    <path id="Path_144" data-name="Path 144" d="M116.029,0A116.029,116.029,0,1,1,0,116.029,116.029,116.029,0,0,1,116.029,0Z" transform="translate(202.39 389.568)" fill="#006eff"/>
    <circle id="Ellipse_52" data-name="Ellipse 52" cx="85.088" cy="85.088" r="85.088" transform="translate(233.331 420.509)" fill="#fff"/>
    <path id="Path_141" data-name="Path 141" d="M201.733,396.688A121.151,121.151,0,1,1,322.884,275.537,121.289,121.289,0,0,1,201.733,396.688Zm0-232.056a110.906,110.906,0,1,0,110.907,110.9A111.033,111.033,0,0,0,201.733,164.632Z" transform="translate(116.686 230.06)" fill="#3762cc"/>
    <path id="Path_142" data-name="Path 142" d="M124.792,292.156a3.885,3.885,0,0,1-3.88-3.88V183.626a3.885,3.885,0,0,1,3.88-3.88H152.77a3.885,3.885,0,0,1,3.88,3.88V288.277a3.885,3.885,0,0,1-3.88,3.88Z" transform="translate(179.639 269.646)" fill="#006eff"/>
    <path id="Path_143" data-name="Path 143" d="M109.822,230.453a3.885,3.885,0,0,1-3.88-3.88V198.595a3.885,3.885,0,0,1,3.88-3.88H214.473a3.885,3.885,0,0,1,3.88,3.88v27.978a3.885,3.885,0,0,1-3.88,3.88Z" transform="translate(156.272 293.012)" fill="#006eff"/>
  </g>
</svg>
