<svg xmlns="http://www.w3.org/2000/svg" width="50" height="50" viewBox="0 0 50 50">
  <path id="github-1" d="M25,0A25.186,25.186,0,0,0,0,25.381,25.316,25.316,0,0,0,18.938,50a3.474,3.474,0,0,1-.187-1.205V44.479H15.626a4.256,4.256,0,0,1-3.938-2.158c-.813-1.523-.938-3.871-3-5.331-.626-.508-.126-1.015.562-.953a6.567,6.567,0,0,1,3.374,2.6c1,1.333,1.438,1.65,3.313,1.65a24.83,24.83,0,0,0,3.5-.255,7.842,7.842,0,0,1,3.313-4.124c-8.374-1.015-12.374-5.2-12.374-10.915a10.557,10.557,0,0,1,2.813-6.854c-.562-1.968-1.313-6.029.251-7.614A8.828,8.828,0,0,1,20,13.635a18.984,18.984,0,0,1,6.062-1.015,18.687,18.687,0,0,1,6.062,1.015,8.825,8.825,0,0,1,6.562-3.108c1.5,1.523.813,5.647.187,7.614a10.359,10.359,0,0,1,2.751,6.854c0,5.711-3.938,9.9-12.249,10.788,2.313,1.205,3.938,4.631,3.938,7.169v5.78c0,.19-.062.38-.062.57A25.258,25.258,0,0,0,50,25.381,25.186,25.186,0,0,0,25,0Z" fill="#fff"/>
</svg>
