<svg xmlns="http://www.w3.org/2000/svg" width="70" height="60" viewBox="0 0 70 60">
  <g id="house-black-silhouette-without-door" transform="translate(-89 -16.89)">
    <path id="Path_27" data-name="Path 27" d="M69.123,34.164a2.728,2.728,0,0,0-.274-4.229L37.565,5.7a4.289,4.289,0,0,0-5.087.052L1.089,31.228a2.712,2.712,0,0,0-.151,4.223l.787.726a3.756,3.756,0,0,0,4.711.319l2.346-1.86V61.867A3.236,3.236,0,0,0,12.2,64.89H24.432a3.236,3.236,0,0,0,3.415-3.023V42.816H43.454V61.867a3.033,3.033,0,0,0,3.208,3.022H59.629a3.236,3.236,0,0,0,3.415-3.023V35.019l1.447,1.125c.8.621,2.474.123,3.743-1.114Z" transform="translate(89 12)" fill="#b2becd"/>
  </g>
</svg>
