<svg xmlns="http://www.w3.org/2000/svg" width="951.943" height="669.872" viewBox="0 0 951.943 669.872">
  <g id="Group_167" data-name="Group 167" transform="translate(-308.633 -50.233)">
    <path id="Path_3846" data-name="Path 3846" stroke="#7d7d7d" d="M717.876,379.256s2.229-16.788,21.912-35.109,42.755-62.293-21.912-40.22-116.416,0-143.733-42.262c-27.294-42.23-1.588-78.064,56.019-93.365" fill="none" transform="translate(282.265 130.908)" stroke-linecap="round" stroke-linejoin="round" stroke-width="5" style="mix-blend-mode: multiply;isolation: isolate"/>
    <path id="Path_3847" data-name="Path 3847" stroke="#7d7d7d" d="M734.9,485.656s3.4-14.232,0-34.9-6.986-41.125,26.482-61.129c76.97-46,60.1-221.523-90.677-221.523" fill="none" transform="translate(401.452 130.686)" stroke-linecap="round" stroke-linejoin="round" stroke-width="5" style="mix-blend-mode: multiply;isolation: isolate"/>
    <g id="Group_156" data-name="Group 156" transform="translate(308.633 457.033)">
      <rect id="Rectangle_176" data-name="Rectangle 176" width="165.475" height="216.935" transform="translate(0 28.735) rotate(-10)" fill="#8cd4e0"/>
      <path id="Path_3855" data-name="Path 3855" d="M313.453,277.665,346.959,467.7,473.01,445.474l18.412-26.29L461.853,251.5ZM334.8,291.388a5.932,5.932,0,1,1,4.812-6.872A5.932,5.932,0,0,1,334.8,291.388Zm13.96-2.461a5.932,5.932,0,1,1,4.81-6.872A5.934,5.934,0,0,1,348.762,288.928Zm13.96-2.461a5.932,5.932,0,1,1,4.812-6.872A5.936,5.936,0,0,1,362.722,286.467ZM376.68,284a5.931,5.931,0,1,1,4.814-6.872A5.935,5.935,0,0,1,376.68,284Zm13.962-2.461a5.932,5.932,0,1,1,4.812-6.872A5.932,5.932,0,0,1,390.642,281.543Zm13.958-2.461a5.932,5.932,0,1,1,4.812-6.875A5.934,5.934,0,0,1,404.6,279.082Zm13.962-2.463a5.932,5.932,0,1,1,4.81-6.872A5.933,5.933,0,0,1,418.562,276.619Zm13.958-2.461a5.932,5.932,0,1,1,4.812-6.872A5.931,5.931,0,0,1,432.52,274.158Zm13.962-2.461a5.933,5.933,0,1,1,4.81-6.872A5.933,5.933,0,0,1,446.482,271.7Z" transform="translate(-303.29 -233.88)" fill="#7d7d7d" style="mix-blend-mode: multiply;isolation: isolate"/>
      <path id="Path_3856" data-name="Path 3856" d="M313.12,275.775l33.506,190.033,126.053-22.226,18.407-26.288L461.518,249.607ZM334.469,289.5a5.933,5.933,0,1,1,4.81-6.87A5.932,5.932,0,0,1,334.469,289.5Zm13.96-2.461a5.932,5.932,0,1,1,4.81-6.872A5.93,5.93,0,0,1,348.429,287.035Zm13.96-2.461a5.933,5.933,0,1,1,4.81-6.872A5.934,5.934,0,0,1,362.389,284.574Zm13.958-2.463a5.931,5.931,0,1,1,4.812-6.872A5.932,5.932,0,0,1,376.347,282.111Zm13.962-2.459a5.933,5.933,0,1,1,4.81-6.875A5.937,5.937,0,0,1,390.309,279.653Zm13.958-2.463a5.932,5.932,0,1,1,4.81-6.872A5.933,5.933,0,0,1,404.267,277.19Zm13.96-2.461a5.932,5.932,0,1,1,4.812-6.872A5.933,5.933,0,0,1,418.227,274.729Zm13.958-2.463A5.932,5.932,0,1,1,437,265.393,5.93,5.93,0,0,1,432.185,272.266Zm13.962-2.461a5.931,5.931,0,1,1,4.812-6.872A5.932,5.932,0,0,1,446.147,269.8Z" transform="translate(-303.659 -235.975)" fill="#fff"/>
      <path id="Path_3857" data-name="Path 3857" d="M390.854,355.415l18.411-26.289-22.348,3.942Z" transform="translate(-221.837 -147.808)" fill="#7d7d7d" style="mix-blend-mode: multiply;isolation: isolate"/>
      <g id="Group_154" data-name="Group 154" transform="translate(27.713 38.184)">
        <line id="Line_5" data-name="Line 5" y1="21.098" x2="119.657" fill="none" stroke="#cccbcc" stroke-miterlimit="10" stroke-width="1"/>
        <line id="Line_6" data-name="Line 6" y1="21.099" x2="119.658" transform="translate(2.424 13.744)" fill="none" stroke="#cccbcc" stroke-miterlimit="10" stroke-width="1"/>
        <line id="Line_7" data-name="Line 7" y1="14.771" x2="83.76" transform="translate(4.847 33.818)" fill="none" stroke="#cccbcc" stroke-miterlimit="10" stroke-width="1"/>
        <line id="Line_8" data-name="Line 8" y1="14.77" x2="83.76" transform="translate(7.27 47.566)" fill="none" stroke="#cccbcc" stroke-miterlimit="10" stroke-width="1"/>
        <line id="Line_9" data-name="Line 9" y1="14.77" x2="83.759" transform="translate(9.695 61.312)" fill="none" stroke="#cccbcc" stroke-miterlimit="10" stroke-width="1"/>
        <line id="Line_10" data-name="Line 10" y1="21.098" x2="119.659" transform="translate(12.118 68.728)" fill="none" stroke="#cccbcc" stroke-miterlimit="10" stroke-width="1"/>
        <line id="Line_11" data-name="Line 11" y1="21.099" x2="119.661" transform="translate(14.542 82.472)" fill="none" stroke="#cccbcc" stroke-miterlimit="10" stroke-width="1"/>
        <line id="Line_12" data-name="Line 12" y1="21.099" x2="119.66" transform="translate(16.965 96.219)" fill="none" stroke="#cccbcc" stroke-miterlimit="10" stroke-width="1"/>
        <line id="Line_13" data-name="Line 13" y1="21.099" x2="119.657" transform="translate(19.39 109.965)" fill="none" stroke="#cccbcc" stroke-miterlimit="10" stroke-width="1"/>
        <rect id="Rectangle_177" data-name="Rectangle 177" width="30.714" height="27.916" transform="matrix(0.985, -0.174, 0.174, 0.985, 94.256, 32.823)" fill="none" stroke="#cccbcc" stroke-miterlimit="10" stroke-width="1"/>
        <g id="Group_153" data-name="Group 153" transform="translate(21.018 129.151)">
          <rect id="Rectangle_178" data-name="Rectangle 178" width="10.879" height="27.199" transform="translate(0 11.161) rotate(-10.007)" fill="#f05824"/>
          <rect id="Rectangle_179" data-name="Rectangle 179" width="10.881" height="15.834" transform="translate(19.501 19.261) rotate(-10)" fill="#f7af19"/>
          <rect id="Rectangle_180" data-name="Rectangle 180" width="10.88" height="19.465" transform="translate(36.396 12.595) rotate(-10)" fill="#093d5f"/>
          <rect id="Rectangle_181" data-name="Rectangle 181" width="10.88" height="27.198" transform="translate(52.58 1.889) rotate(-10.001)" fill="#cccbcc"/>
        </g>
      </g>
      <g id="Group_155" data-name="Group 155" transform="translate(21.626 0.569)">
        <path id="Path_3858" data-name="Path 3858" d="M330.3,275.343a4.051,4.051,0,1,1-7.975,1.407l-3.372-19.112a4.053,4.053,0,1,1,7.98-1.406Z" transform="translate(-318.889 -233.059)" fill="#444849"/>
        <path id="Path_3859" data-name="Path 3859" d="M336.924,274.176a4.052,4.052,0,1,1-7.977,1.4l-3.372-19.11a4.054,4.054,0,1,1,7.98-1.409Z" transform="translate(-311.549 -234.354)" fill="#444849"/>
        <path id="Path_3860" data-name="Path 3860" d="M343.541,273.007a4.051,4.051,0,1,1-7.975,1.406L332.2,255.3a4.052,4.052,0,1,1,7.977-1.407Z" transform="translate(-304.208 -235.647)" fill="#444849"/>
        <path id="Path_3861" data-name="Path 3861" d="M350.163,271.841a4.053,4.053,0,1,1-7.977,1.407l-3.37-19.114a4.052,4.052,0,1,1,7.977-1.4Z" transform="translate(-296.868 -236.942)" fill="#444849"/>
        <path id="Path_3862" data-name="Path 3862" d="M356.784,270.674a4.052,4.052,0,1,1-7.977,1.4l-3.372-19.11a4.053,4.053,0,1,1,7.977-1.409Z" transform="translate(-289.529 -238.237)" fill="#444849"/>
        <path id="Path_3863" data-name="Path 3863" d="M363.4,269.505a4.053,4.053,0,1,1-7.977,1.407l-3.37-19.112a4.051,4.051,0,1,1,7.975-1.407Z" transform="translate(-282.188 -239.531)" fill="#444849"/>
        <path id="Path_3864" data-name="Path 3864" d="M370.023,268.338a4.052,4.052,0,1,1-7.977,1.407l-3.37-19.112a4.051,4.051,0,1,1,7.975-1.406Z" transform="translate(-274.848 -240.824)" fill="#444849"/>
        <path id="Path_3865" data-name="Path 3865" d="M376.643,267.172a4.052,4.052,0,1,1-7.977,1.407l-3.37-19.112a4.053,4.053,0,1,1,7.977-1.407Z" transform="translate(-267.508 -242.119)" fill="#444849"/>
        <path id="Path_3866" data-name="Path 3866" d="M383.263,266a4.053,4.053,0,1,1-7.98,1.4l-3.368-19.11a4.052,4.052,0,1,1,7.977-1.407Z" transform="translate(-260.167 -243.413)" fill="#444849"/>
      </g>
    </g>
    <g id="Group_158" data-name="Group 158" transform="translate(595.287 434.836)">
      <rect id="Rectangle_182" data-name="Rectangle 182" width="178.874" height="405.819" rx="10" transform="translate(0 176.156) rotate(-80)" fill="#2a2a2a"/>
      <g id="Group_157" data-name="Group 157" transform="translate(18.957 18.273)">
        <rect id="Rectangle_183" data-name="Rectangle 183" width="19.005" height="19.003" rx="2" transform="translate(47.217 23.105) rotate(-80)" fill="#dbe1e8"/>
        <rect id="Rectangle_184" data-name="Rectangle 184" width="19.005" height="19.004" rx="2" transform="translate(72.106 27.493) rotate(-79.999)" fill="#dbe1e8"/>
        <rect id="Rectangle_185" data-name="Rectangle 185" width="19.004" height="19.004" rx="2" transform="translate(96.997 31.882) rotate(-80)" fill="#dbe1e8"/>
        <rect id="Rectangle_186" data-name="Rectangle 186" width="19.005" height="19.007" rx="2" transform="translate(121.885 36.271) rotate(-80.002)" fill="#dbe1e8"/>
        <rect id="Rectangle_187" data-name="Rectangle 187" width="19.003" height="19.006" rx="2" transform="matrix(0.174, -0.985, 0.985, 0.174, 146.777, 40.66)" fill="#dbe1e8"/>
        <rect id="Rectangle_188" data-name="Rectangle 188" width="19.004" height="19.006" rx="2" transform="translate(171.665 45.048) rotate(-80)" fill="#dbe1e8"/>
        <rect id="Rectangle_189" data-name="Rectangle 189" width="19.005" height="19.006" rx="2" transform="translate(196.555 49.436) rotate(-79.995)" fill="#dbe1e8"/>
        <rect id="Rectangle_190" data-name="Rectangle 190" width="19.005" height="19.004" rx="2" transform="translate(221.445 53.826) rotate(-79.999)" fill="#dbe1e8"/>
        <rect id="Rectangle_191" data-name="Rectangle 191" width="19.003" height="19.006" rx="2" transform="translate(246.334 58.214) rotate(-80.004)" fill="#dbe1e8"/>
        <rect id="Rectangle_192" data-name="Rectangle 192" width="19.004" height="19.006" rx="2" transform="matrix(0.174, -0.985, 0.985, 0.174, 271.224, 62.603)" fill="#dbe1e8"/>
        <rect id="Rectangle_193" data-name="Rectangle 193" width="19.005" height="19.006" rx="2" transform="translate(296.117 66.993) rotate(-80.004)" fill="#dbe1e8"/>
        <rect id="Rectangle_194" data-name="Rectangle 194" width="19.003" height="19.004" rx="2" transform="translate(321.006 71.381) rotate(-79.999)" fill="#dbe1e8"/>
        <rect id="Rectangle_195" data-name="Rectangle 195" width="19.003" height="19.004" rx="2" transform="matrix(0.174, -0.985, 0.985, 0.174, 345.897, 75.769)" fill="#dbe1e8"/>
        <rect id="Rectangle_196" data-name="Rectangle 196" width="19.006" height="19.003" rx="2" transform="matrix(0.174, -0.985, 0.985, 0.174, 370.785, 80.16)" fill="#dbe1e8"/>
        <rect id="Rectangle_197" data-name="Rectangle 197" width="19.006" height="19.004" rx="2" transform="translate(44.286 48.701) rotate(-80)" fill="#dbe1e8"/>
        <rect id="Rectangle_198" data-name="Rectangle 198" width="19.006" height="19.006" rx="2" transform="matrix(0.174, -0.985, 0.985, 0.174, 69.056, 53.069)" fill="#dbe1e8"/>
        <rect id="Rectangle_199" data-name="Rectangle 199" width="19.007" height="19.005" rx="2" transform="translate(93.827 57.436) rotate(-79.995)" fill="#dbe1e8"/>
        <rect id="Rectangle_200" data-name="Rectangle 200" width="19.006" height="19.005" rx="2" transform="translate(118.6 61.805) rotate(-80)" fill="#dbe1e8"/>
        <rect id="Rectangle_201" data-name="Rectangle 201" width="19.006" height="19.004" rx="2" transform="matrix(0.174, -0.985, 0.985, 0.174, 143.373, 66.174)" fill="#dbe1e8"/>
        <rect id="Rectangle_202" data-name="Rectangle 202" width="19.006" height="19.005" rx="2" transform="translate(168.144 70.541) rotate(-80)" fill="#dbe1e8"/>
        <rect id="Rectangle_203" data-name="Rectangle 203" width="19.005" height="19.005" rx="2" transform="matrix(0.174, -0.985, 0.985, 0.174, 192.916, 74.908)" fill="#dbe1e8"/>
        <rect id="Rectangle_204" data-name="Rectangle 204" width="19.006" height="19.004" rx="2" transform="translate(217.688 79.275) rotate(-79.994)" fill="#dbe1e8"/>
        <rect id="Rectangle_205" data-name="Rectangle 205" width="19.007" height="44.16" rx="2" transform="translate(242.459 83.645) rotate(-80.002)" fill="#dbe1e8"/>
        <rect id="Rectangle_206" data-name="Rectangle 206" width="19.007" height="19.005" rx="2" transform="translate(292.002 92.381) rotate(-80)" fill="#dbe1e8"/>
        <rect id="Rectangle_207" data-name="Rectangle 207" width="19.006" height="19.004" rx="2" transform="matrix(0.174, -0.985, 0.985, 0.174, 316.777, 96.749)" fill="#dbe1e8"/>
        <rect id="Rectangle_208" data-name="Rectangle 208" width="19.007" height="19.006" rx="2" transform="translate(341.547 101.115) rotate(-79.994)" fill="#dbe1e8"/>
        <rect id="Rectangle_209" data-name="Rectangle 209" width="19.005" height="19.004" rx="2" transform="translate(366.32 105.485) rotate(-79.999)" fill="#dbe1e8"/>
        <rect id="Rectangle_210" data-name="Rectangle 210" width="19.008" height="19.006" rx="2" transform="translate(58.26 77.276) rotate(-79.995)" fill="#dbe1e8"/>
        <rect id="Rectangle_211" data-name="Rectangle 211" width="19.006" height="19.004" rx="2" transform="translate(83.308 81.692) rotate(-80)" fill="#dbe1e8"/>
        <rect id="Rectangle_212" data-name="Rectangle 212" width="19.007" height="19.005" rx="2" transform="translate(108.08 86.061) rotate(-80)" fill="#dbe1e8"/>
        <rect id="Rectangle_213" data-name="Rectangle 213" width="19.008" height="19.004" rx="2" transform="translate(132.851 90.429) rotate(-80)" fill="#dbe1e8"/>
        <rect id="Rectangle_214" data-name="Rectangle 214" width="19.007" height="19.004" rx="2" transform="translate(157.622 94.795) rotate(-79.994)" fill="#dbe1e8"/>
        <rect id="Rectangle_215" data-name="Rectangle 215" width="19.007" height="19.004" rx="2" transform="translate(182.395 99.164) rotate(-79.996)" fill="#dbe1e8"/>
        <rect id="Rectangle_216" data-name="Rectangle 216" width="19.006" height="19.006" rx="2" transform="translate(207.166 103.531) rotate(-79.994)" fill="#dbe1e8"/>
        <rect id="Rectangle_217" data-name="Rectangle 217" width="19.007" height="19.005" rx="2" transform="translate(287.538 117.705) rotate(-80)" fill="#dbe1e8"/>
        <rect id="Rectangle_218" data-name="Rectangle 218" width="19.006" height="19.006" rx="2" transform="translate(312.309 122.071) rotate(-80)" fill="#dbe1e8"/>
        <rect id="Rectangle_219" data-name="Rectangle 219" width="19.008" height="19.004" rx="2" transform="translate(337.082 126.441) rotate(-80)" fill="#dbe1e8"/>
        <rect id="Rectangle_220" data-name="Rectangle 220" width="19.006" height="19.005" rx="2" transform="translate(66.181 104.783) rotate(-80)" fill="#dbe1e8"/>
        <rect id="Rectangle_221" data-name="Rectangle 221" width="19.008" height="19.003" rx="2" transform="translate(90.955 109.152) rotate(-80)" fill="#dbe1e8"/>
        <rect id="Rectangle_222" data-name="Rectangle 222" width="19.006" height="19.006" rx="2" transform="matrix(0.174, -0.985, 0.985, 0.174, 115.726, 113.52)" fill="#dbe1e8"/>
        <rect id="Rectangle_223" data-name="Rectangle 223" width="19.007" height="19.006" rx="2" transform="translate(140.496 117.888) rotate(-80)" fill="#dbe1e8"/>
        <rect id="Rectangle_224" data-name="Rectangle 224" width="19.005" height="19.006" rx="2" transform="translate(165.268 122.254) rotate(-80)" fill="#dbe1e8"/>
        <rect id="Rectangle_225" data-name="Rectangle 225" width="19.005" height="19.002" rx="2" transform="matrix(0.174, -0.985, 0.985, 0.174, 190.043, 126.622)" fill="#dbe1e8"/>
        <rect id="Rectangle_226" data-name="Rectangle 226" width="19.006" height="19.004" rx="2" transform="translate(214.813 130.991) rotate(-79.999)" fill="#dbe1e8"/>
        <path id="Path_3867" data-name="Path 3867" d="M566.845,283.573l-3.3,18.717,12.111,2.136-4.465,25.324,37.433,6.6,7.764-44.041Z" transform="translate(-331.607 -194.391)" fill="#dbe1e8"/>
        <rect id="Rectangle_227" data-name="Rectangle 227" width="19.007" height="19.006" rx="2" transform="matrix(0.174, -0.985, 0.985, 0.174, 283.072, 143.028)" fill="#dbe1e8"/>
        <rect id="Rectangle_228" data-name="Rectangle 228" width="19.006" height="19.006" rx="2" transform="translate(307.844 147.395) rotate(-80)" fill="#dbe1e8"/>
        <rect id="Rectangle_229" data-name="Rectangle 229" width="19.006" height="19.004" rx="2" transform="translate(332.617 151.762) rotate(-79.994)" fill="#dbe1e8"/>
        <rect id="Rectangle_230" data-name="Rectangle 230" width="44.722" height="19.003" rx="2" transform="translate(357.39 156.132) rotate(-80)" fill="#dbe1e8"/>
        <rect id="Rectangle_231" data-name="Rectangle 231" width="19.007" height="19.005" rx="2" transform="translate(33.917 125.206) rotate(-80)" fill="#dbe1e8"/>
        <rect id="Rectangle_232" data-name="Rectangle 232" width="19.006" height="19.002" rx="2" transform="translate(58.692 129.573) rotate(-79.999)" fill="#dbe1e8"/>
        <rect id="Rectangle_233" data-name="Rectangle 233" width="19.006" height="19.005" rx="2" transform="translate(83.462 133.941) rotate(-79.999)" fill="#dbe1e8"/>
        <rect id="Rectangle_234" data-name="Rectangle 234" width="19.006" height="19.005" rx="2" transform="translate(108.234 138.309) rotate(-79.999)" fill="#dbe1e8"/>
        <rect id="Rectangle_235" data-name="Rectangle 235" width="19.007" height="19.006" rx="2" transform="matrix(0.174, -0.985, 0.985, 0.174, 133.004, 142.678)" fill="#dbe1e8"/>
        <rect id="Rectangle_236" data-name="Rectangle 236" width="19.005" height="19.003" rx="2" transform="translate(157.778 147.045) rotate(-79.999)" fill="#dbe1e8"/>
        <rect id="Rectangle_237" data-name="Rectangle 237" width="19.007" height="19.006" rx="2" transform="translate(183.374 151.559) rotate(-80)" fill="#dbe1e8"/>
        <rect id="Rectangle_238" data-name="Rectangle 238" width="19.005" height="64.701" rx="2" transform="matrix(0.174, -0.985, 0.985, 0.174, 208.834, 156.047)" fill="#dbe1e8"/>
        <rect id="Rectangle_239" data-name="Rectangle 239" width="19.006" height="19.006" rx="2" transform="translate(278.608 168.351) rotate(-80)" fill="#dbe1e8"/>
        <rect id="Rectangle_240" data-name="Rectangle 240" width="19.006" height="19.006" rx="2" transform="translate(303.379 172.719) rotate(-80)" fill="#dbe1e8"/>
        <rect id="Rectangle_241" data-name="Rectangle 241" width="19.008" height="19.006" rx="2" transform="matrix(0.174, -0.985, 0.985, 0.174, 328.151, 177.088)" fill="#dbe1e8"/>
        <rect id="Rectangle_242" data-name="Rectangle 242" width="19.008" height="19.003" rx="2" transform="translate(24.773 149.705) rotate(-79.999)" fill="#dbe1e8"/>
        <rect id="Rectangle_243" data-name="Rectangle 243" width="19.004" height="19.005" rx="2" transform="translate(22.327 18.715) rotate(-79.996)" fill="#dbe1e8"/>
        <rect id="Rectangle_244" data-name="Rectangle 244" width="19.007" height="19.005" rx="2" transform="translate(17.862 44.042) rotate(-80)" fill="#dbe1e8"/>
        <rect id="Rectangle_245" data-name="Rectangle 245" width="19.007" height="39.407" rx="2" transform="matrix(0.174, -0.985, 0.985, 0.174, 13.397, 69.366)" fill="#dbe1e8"/>
        <rect id="Rectangle_246" data-name="Rectangle 246" width="19.006" height="51.984" rx="2" transform="matrix(0.174, -0.985, 0.985, 0.174, 8.932, 94.688)" fill="#dbe1e8"/>
        <rect id="Rectangle_247" data-name="Rectangle 247" width="19.006" height="23.059" rx="2" transform="translate(4.465 120.012) rotate(-80.002)" fill="#dbe1e8"/>
        <rect id="Rectangle_248" data-name="Rectangle 248" width="19.007" height="19.004" rx="2" transform="translate(0 145.336) rotate(-79.997)" fill="#dbe1e8"/>
        <rect id="Rectangle_249" data-name="Rectangle 249" width="19.008" height="117.05" rx="2" transform="matrix(0.174, -0.985, 0.985, 0.174, 49.543, 154.073)" fill="#dbe1e8"/>
        <rect id="Rectangle_250" data-name="Rectangle 250" width="19.007" height="19.006" rx="2" transform="matrix(0.174, -0.985, 0.985, 0.174, 196.523, 179.988)" fill="#dbe1e8"/>
        <rect id="Rectangle_251" data-name="Rectangle 251" width="19.007" height="19.006" rx="2" transform="translate(171.752 175.622) rotate(-80.004)" fill="#dbe1e8"/>
        <rect id="Rectangle_252" data-name="Rectangle 252" width="7.261" height="19.006" rx="2" transform="translate(238.063 175.387) rotate(-80.002)" fill="#dbe1e8"/>
        <rect id="Rectangle_253" data-name="Rectangle 253" width="7.553" height="19.006" rx="2" transform="matrix(0.174, -0.985, 0.985, 0.174, 236.023, 186.954)" fill="#dbe1e8"/>
        <rect id="Rectangle_254" data-name="Rectangle 254" width="19.007" height="10.541" rx="2" transform="translate(258.535 190.922) rotate(-79.993)" fill="#dbe1e8"/>
        <rect id="Rectangle_255" data-name="Rectangle 255" width="19.007" height="10.538" rx="2" transform="matrix(0.174, -0.985, 0.985, 0.174, 221.776, 184.441)" fill="#dbe1e8"/>
        <rect id="Rectangle_256" data-name="Rectangle 256" width="19.007" height="44.159" rx="2" transform="matrix(0.174, -0.985, 0.985, 0.174, 274.143, 193.675)" fill="#dbe1e8"/>
        <rect id="Rectangle_257" data-name="Rectangle 257" width="19.008" height="19.005" rx="2" transform="matrix(0.174, -0.985, 0.985, 0.174, 323.687, 202.411)" fill="#dbe1e8"/>
        <rect id="Rectangle_258" data-name="Rectangle 258" width="44.722" height="19.004" rx="2" transform="translate(348.459 206.78) rotate(-80)" fill="#dbe1e8"/>
      </g>
    </g>
    <g id="Group_159" data-name="Group 159" transform="translate(1095.589 616.342)">
      <path id="Path_3868" data-name="Path 3868" d="M752.564,401.418a23.861,23.861,0,0,1-23.694,21.035h-17.7a23.857,23.857,0,0,1-23.692-21.035l-5.491-45.965a23.862,23.862,0,0,1,5.2-17.9l8.214-10.078a23.863,23.863,0,0,1,18.5-8.783h12.952a23.858,23.858,0,0,1,18.852,9.236l7.553,9.738a23.855,23.855,0,0,1,4.838,17.454Z" transform="translate(-681.817 -318.689)" fill="#2a2a2a"/>
      <line id="Line_14" data-name="Line 14" y2="45.487" transform="translate(38.222 3.888)" fill="none" stroke="#444849" stroke-miterlimit="10" stroke-width="1"/>
      <path id="Rectangle_259" data-name="Rectangle 259" d="M2.793,0H9.478a2.794,2.794,0,0,1,2.794,2.794V25.365a2.793,2.793,0,0,1-2.793,2.793H2.793A2.793,2.793,0,0,1,0,25.365V2.793A2.793,2.793,0,0,1,2.793,0Z" transform="translate(32.085 11.634)" fill="#dbe1e8"/>
    </g>
    <g id="Group_160" data-name="Group 160" transform="translate(523.726 262.963)">
      <path id="Path_3869" data-name="Path 3869" d="M411.628,227.171a64.8,64.8,0,1,1,75.061,52.559A64.795,64.795,0,0,1,411.628,227.171Z" transform="translate(-410.633 -151.112)" fill="#f05824"/>
      <path id="Path_3870" data-name="Path 3870" d="M441.129,238.788a64.839,64.839,0,0,1,72.014-75.54,64.794,64.794,0,1,0-45.908,116.969A64.565,64.565,0,0,1,441.129,238.788Z" transform="translate(-410.632 -151.1)" fill="#e2e2e1" style="mix-blend-mode: soft-light;isolation: isolate"/>
      <path id="Path_3871" data-name="Path 3871" d="M418.643,216.47a49.327,49.327,0,1,1,57.143,40.014A49.325,49.325,0,0,1,418.643,216.47Z" transform="translate(-402.593 -142.844)" fill="#7d7d7d" style="mix-blend-mode: multiply;isolation: isolate"/>
      <path id="Path_3872" data-name="Path 3872" d="M420.222,214.064a45.886,45.886,0,1,1,53.158,37.22A45.886,45.886,0,0,1,420.222,214.064Z" transform="translate(-400.783 -141.034)" fill="#dbe1e8"/>
      <path id="Path_3873" data-name="Path 3873" d="M424.051,208.227A37.542,37.542,0,1,1,467.54,238.68,37.54,37.54,0,0,1,424.051,208.227Z" transform="translate(-396.395 -136.646)" fill="#cb844c"/>
      <path id="Path_3874" data-name="Path 3874" d="M452.9,164.736A37.506,37.506,0,0,0,424.92,186.91a37.54,37.54,0,0,1,58.008,44.073A37.544,37.544,0,0,0,452.9,164.736Z" transform="translate(-394.792 -136.646)" fill="#7d7d7d" style="mix-blend-mode: multiply;isolation: isolate"/>
      <path id="Path_3875" data-name="Path 3875" d="M430.322,183.091a5.709,5.709,0,1,1,6.613,4.631A5.71,5.71,0,0,1,430.322,183.091Z" transform="translate(-388.9 -123.085)" fill="#e2e2e1" style="mix-blend-mode: soft-light;isolation: isolate"/>
      <path id="Path_3876" data-name="Path 3876" d="M438.2,175a5.709,5.709,0,1,1,6.615,4.631A5.713,5.713,0,0,1,438.2,175Z" transform="translate(-380.159 -132.056)" fill="#e2e2e1" style="mix-blend-mode: soft-light;isolation: isolate"/>
      <path id="Path_3877" data-name="Path 3877" d="M445.553,171.637a3.015,3.015,0,1,1,3.492,2.444A3.012,3.012,0,0,1,445.553,171.637Z" transform="translate(-371.966 -132.277)" fill="none" stroke="#e2e2e1" stroke-miterlimit="10" stroke-width="1" style="mix-blend-mode: soft-light;isolation: isolate"/>
      <path id="Path_3878" data-name="Path 3878" d="M449.9,172.574a1.924,1.924,0,1,1,2.229,1.561A1.926,1.926,0,0,1,449.9,172.574Z" transform="translate(-367.124 -129.821)" fill="none" stroke="#e2e2e1" stroke-miterlimit="10" stroke-width="1" style="mix-blend-mode: soft-light;isolation: isolate"/>
      <path id="Path_3879" data-name="Path 3879" d="M446.1,181.054a6.911,6.911,0,1,1,8,5.607A6.909,6.909,0,0,1,446.1,181.054Z" transform="translate(-371.427 -126.91)" fill="#e2e2e1" style="mix-blend-mode: soft-light;isolation: isolate"/>
      <path id="Path_3880" data-name="Path 3880" d="M492.675,180.788a4.552,4.552,0,0,1-.552,2.952,3.308,3.308,0,0,1-2.147,1.626l-27.992,5.867-1.859-12.539,27.99-5.869a2.91,2.91,0,0,1,2.485.656,4.093,4.093,0,0,1,1.368,2.552Z" transform="translate(-351.605 -127.104)" fill="#b2becd"/>
    </g>
    <g id="Group_161" data-name="Group 161" transform="translate(499.856 458.056)">
      <path id="Path_3881" data-name="Path 3881" d="M400.521,246.07a2.079,2.079,0,1,1,2.408,1.685A2.082,2.082,0,0,1,400.521,246.07Z" transform="translate(-398.01 -243.628)" fill="#444849"/>
      <rect id="Rectangle_260" data-name="Rectangle 260" width="17.126" height="126.676" transform="translate(0.001 25.533) rotate(-9.999)" fill="#f05824"/>
      <path id="Path_3882" data-name="Path 3882" d="M405.92,244.443l-4.094.722-2.512,23.092,16.866-2.974Z" transform="translate(-399.313 -242.724)" fill="#7d7d7d"/>
      <rect id="Rectangle_261" data-name="Rectangle 261" width="17.128" height="8.837" transform="matrix(0.985, -0.174, 0.174, 0.985, 16.042, 116.517)" fill="#093d5f"/>
      <path id="Path_3883" data-name="Path 3883" d="M424.391,350.151l-10.124-57.415a5.943,5.943,0,0,1,.875-4.319,5.34,5.34,0,0,1,3.534-2.349l3.283-.58L432.137,343.2a5.5,5.5,0,0,1-4.46,6.371Z" transform="translate(-382.837 -197.215)" fill="#093d5f"/>
      <rect id="Rectangle_262" data-name="Rectangle 262" width="17.127" height="8.837" transform="translate(20.641 142.597) rotate(-9.998)" fill="#093d5f"/>
      <rect id="Rectangle_263" data-name="Rectangle 263" width="2.361" height="4.631" transform="translate(33.275 115.615) rotate(-9.994)" fill="#093d5f"/>
      <rect id="Rectangle_264" data-name="Rectangle 264" width="2.359" height="4.63" transform="matrix(0.985, -0.174, 0.174, 0.985, 37.873, 141.696)" fill="#093d5f"/>
      <path id="Path_3884" data-name="Path 3884" d="M427.708,338.076a5.509,5.509,0,0,1-4.462,6.371l-1.824.323a5.5,5.5,0,0,1-6.375-4.462l-4.22-23.934,12.659-2.231Z" transform="translate(-386.548 -165.444)" fill="#7d7d7d"/>
      <rect id="Rectangle_265" data-name="Rectangle 265" width="8.563" height="127.707" transform="matrix(0.985, -0.174, 0.174, 0.985, 8.434, 24.046)" fill="#e2e2e1" style="mix-blend-mode: soft-light;isolation: isolate"/>
      <path id="Path_3885" data-name="Path 3885" d="M427.478,348.54a5.372,5.372,0,0,0,2.134-5.339l-10.177-57.713-2.984.527Z" transform="translate(-380.312 -197.215)" fill="#e2e2e1" style="mix-blend-mode: soft-light;isolation: isolate"/>
    </g>
    <g id="Group_163" data-name="Group 163" transform="translate(720.557 50.233)">
      <path id="Path_3887" data-name="Path 3887" d="M581.951,212.089a72.207,72.207,0,1,1,58.571,83.646A72.2,72.2,0,0,1,581.951,212.089Z" transform="translate(-418.743 63.055)" fill="#2a2a2a"/>
      <path id="Path_3888" data-name="Path 3888" d="M1040.489,190.986s5.936-30.229,1.87-39.212-12.486-15.206-23.114-17.083L543.378,50.783c-10.622-1.875-20.67,1.1-27.559,8.146s-11.657,37.487-11.657,37.487Z" transform="translate(-503.764 -50.233)" fill="#2a2a2a"/>
      <path id="Path_3889" data-name="Path 3889" d="M575.922,297.3c-17.056-3.009-32.549-17.722-36.03-34.225L504.707,96.255c-2.168-10.28.515-20.075,7.366-26.882s16.866-9.635,27.492-7.76l475.869,83.908c10.622,1.87,19.072,7.956,23.177,16.7s3.279,18.861-2.273,27.777l-90.12,144.722c-8.916,14.318-28.5,22.846-45.562,19.837Z" transform="translate(-503.973 -38.246)" fill="#7d7d7d"/>
      <path id="Path_3890" data-name="Path 3890" d="M920.326,321.954c-5.158,8.481-17.38,14.015-27.157,12.292L568.435,276.987c-9.774-1.725-19.369-11.1-21.313-20.837l-34.329-171.7c-1.944-9.736,4.464-16.292,14.24-14.567L1002.9,153.8c9.781,1.725,13.555,10.071,8.4,18.557Z" transform="translate(-494.579 -28.747)" fill="#f05824"/>
      <path id="Path_3891" data-name="Path 3891" d="M719.751,220.895a72.5,72.5,0,0,0,4.409-15.107L581.941,180.71a72.217,72.217,0,0,0-1.021,15.7Z" transform="translate(-418.733 94.434)" fill="#7d7d7d" style="mix-blend-mode: multiply;isolation: isolate"/>
      <g id="Group_162" data-name="Group 162" transform="translate(58.961 113.06)">
        <path id="Path_3892" data-name="Path 3892" d="M725.566,234.3,551.89,203.674l-19.957-99.826,212.149,37.408Z" transform="translate(-531.932 -103.848)" fill="#e2e2e1"/>
        <path id="Path_3893" data-name="Path 3893" d="M699.32,211.22l-146.876-25.9-11.178-70.256,168.843,28.538Z" transform="translate(-521.584 -91.408)" fill="#b9b9ba"/>
        <path id="Path_3894" data-name="Path 3894" d="M741.55,153.945,534.62,117.458l-2.687-13.61,212.149,37.408Z" transform="translate(-531.932 -103.848)" fill="#fcb843"/>
        <path id="Path_3895" data-name="Path 3895" d="M549.5,115.1l-13.18-2.323-.885-6.849,13.791,2.432Z" transform="translate(-528.044 -101.54)" fill="none" stroke="#e2e2e1" stroke-miterlimit="10" stroke-width="1"/>
        <path id="Path_3896" data-name="Path 3896" d="M558.122,116.621l-13.18-2.325-.886-6.847,13.792,2.432Z" transform="translate(-518.49 -99.856)" fill="none" stroke="#e2e2e1" stroke-miterlimit="10" stroke-width="1"/>
        <path id="Path_3897" data-name="Path 3897" d="M566.739,118.14l-13.18-2.325-.886-6.847,13.792,2.432Z" transform="translate(-508.935 -98.171)" fill="none" stroke="#e2e2e1" stroke-miterlimit="10" stroke-width="1"/>
      </g>
      <path id="Path_3898" data-name="Path 3898" d="M1002.9,153.8l-475.87-83.91c-9.776-1.725-16.185,4.831-14.24,14.567l1.976,9.869,491.3,86.63,5.23-8.6C1016.458,163.869,1012.683,155.523,1002.9,153.8Z" transform="translate(-494.579 -28.747)" fill="#cccbcc"/>
      <path id="Path_3899" data-name="Path 3899" d="M921.1,140.58,586.275,81.541l159.606,227.94,65.484,11.545c9.776,1.725,21.994-3.8,27.157-12.288l90.972-149.6C934.655,150.656,930.876,142.3,921.1,140.58Z" transform="translate(-412.719 -15.521)" fill="#e2e2e1" style="mix-blend-mode: soft-light;isolation: isolate"/>
      <path id="Path_3900" data-name="Path 3900" d="M522.59,90.152c0-11.09,8.713-18.542,19.47-16.644S561.537,85.93,561.539,97.02s-8.718,18.544-19.477,16.647S522.586,101.244,522.59,90.152Z" transform="translate(-483.331 -24.756)" fill="#cccbcc"/>
      <path id="Path_3901" data-name="Path 3901" d="M524.559,88.6c0-8.728,6.855-14.593,15.318-13.1s15.324,9.776,15.326,18.5-6.86,14.591-15.324,13.1S524.557,97.329,524.559,88.6Z" transform="translate(-481.147 -22.473)" fill="#b9b9ba"/>
    </g>
  </g>
</svg>
