<svg xmlns="http://www.w3.org/2000/svg" width="331.517" height="345.122" viewBox="0 0 331.517 345.122">
  <g id="logo-main" transform="translate(-766.19 -193.208)">
    <g id="Group_173" data-name="Group 173" transform="matrix(-0.259, 0.966, -0.966, -0.259, 1892.139, -645.179)">
      <path id="Path_3903" data-name="Path 3903" d="M26.044,1.686s113.6,12.885,227.1,12.885c67.646,0,86.243,5.588,81.4,17.474-2.961,7.392,6.08,15.84-83.729,9.723L27.7,65.215c-11.6,0-29.611-12.6-29.611-30.76S14.446,1.686,26.044,1.686Z" transform="translate(1322.642 809.525) rotate(-135)" fill="#fa503e"/>
      <path id="Path_3904" data-name="Path 3904" d="M133.477,129.652s113.6,12.885,227.1,12.886c67.646,0,86.243,5.588,81.4,17.474-2.961,7.392,6.08,15.84-83.729,9.723L135.129,193.182c-11.6,0-29.611-12.6-29.611-30.76S121.879,129.652,133.477,129.652Z" transform="translate(1141.91 355.663) rotate(45)" fill="#fa503e"/>
    </g>
    <g id="Group_174" data-name="Group 174" transform="matrix(-0.966, 0.259, -0.259, -0.966, 2287.55, 691.844)">
      <path id="Path_3903-2" data-name="Path 3903" d="M26.044,1.686s113.6,12.885,227.1,12.885c67.646,0,86.243,5.588,81.4,17.474-2.961,7.392,6.08,15.84-83.729,9.723L27.7,65.215c-11.6,0-29.611-12.6-29.611-30.76S14.446,1.686,26.044,1.686Z" transform="translate(1322.642 809.525) rotate(-135)" fill="#fa503e"/>
      <path id="Path_3904-2" data-name="Path 3904" d="M133.477,129.652s113.6,12.885,227.1,12.886c67.646,0,86.243,5.588,81.4,17.474-2.961,7.392,6.08,15.84-83.729,9.723L135.129,193.182c-11.6,0-29.611-12.6-29.611-30.76S121.879,129.652,133.477,129.652Z" transform="translate(1141.91 355.663) rotate(45)" fill="#fa503e"/>
    </g>
    <g id="Group_175" data-name="Group 175" transform="translate(536.537 -971.255) rotate(45)">
      <path id="Path_3903-3" data-name="Path 3903" d="M26.044,1.686s113.6,12.885,227.1,12.885c67.646,0,86.243,5.588,81.4,17.474-2.961,7.392,6.08,15.84-83.729,9.723L27.7,65.215c-11.6,0-29.611-12.6-29.611-30.76S14.446,1.686,26.044,1.686Z" transform="translate(1322.642 809.525) rotate(-135)" fill="#fa503e"/>
      <path id="Path_3904-3" data-name="Path 3904" d="M133.477,129.652s113.6,12.885,227.1,12.886c67.646,0,86.243,5.588,81.4,17.474-2.961,7.392,6.08,15.84-83.729,9.723L135.129,193.182c-11.6,0-29.611-12.6-29.611-30.76S121.879,129.652,133.477,129.652Z" transform="translate(1141.91 355.663) rotate(45)" fill="#fa503e"/>
    </g>
  </g>
</svg>
