<svg xmlns="http://www.w3.org/2000/svg" width="184.893" height="305.262" viewBox="0 0 184.893 305.262">
  <g id="Group_186" data-name="Group 186" transform="translate(-66.976 -315.484)">
    <g id="Group_182" data-name="Group 182" transform="translate(67.495 335.127)">
      <g id="Group_176" data-name="Group 176" transform="translate(11.195 164.795)">
        <path id="Path_3905" data-name="Path 3905" d="M174.89,448.282l-.029-33.338a21.927,21.927,0,0,0-43.855,0l.029,33.331c-36.3,6.746-58.834,35.893-58.834,65.038l80.733.012,80.733-.012C233.667,484.185,211.156,455.05,174.89,448.282Z" transform="translate(-72.201 -393.019)" fill="#f9fbfc" stroke="#2b343b" stroke-linecap="round" stroke-linejoin="round" stroke-width="1.038"/>
        <path id="Path_3906" data-name="Path 3906" d="M97.471,397.848l41.3.012v26.721s-23.555,10.341-41.3-.012Z" transform="translate(-37.36 -386.361)" fill="#ffaa96"/>
      </g>
      <g id="Group_179" data-name="Group 179">
        <g id="Group_177" data-name="Group 177" transform="translate(0 140.058)">
          <path id="Path_3907" data-name="Path 3907" d="M67.5,401.876c-.057,10.614,8.913,19.2,20.039,19.18s20.189-8.644,20.246-19.258-8.913-19.2-20.039-19.178S67.552,391.262,67.5,401.876Z" transform="translate(-67.495 -382.62)" fill="#f9fbfc" stroke="#2b343b" stroke-linecap="round" stroke-linejoin="round" stroke-width="1.038"/>
          <path id="Path_3908" data-name="Path 3908" d="M72.212,390.609a47.72,47.72,0,0,1,9.051.259,15.988,15.988,0,0,1,8.2,3.561" transform="translate(-60.991 -371.728)" fill="none" stroke="#2b343b" stroke-linecap="round" stroke-linejoin="round" stroke-width="1.383"/>
        </g>
        <g id="Group_178" data-name="Group 178" transform="translate(143.573 140.058)">
          <path id="Path_3909" data-name="Path 3909" d="M168.133,401.876c.059,10.614-8.913,19.2-20.036,19.18s-20.189-8.644-20.246-19.258,8.913-19.2,20.036-19.178S168.076,391.262,168.133,401.876Z" transform="translate(-127.851 -382.62)" fill="#f9fbfc" stroke="#2b343b" stroke-linecap="round" stroke-linejoin="round" stroke-width="1.038"/>
          <path id="Path_3910" data-name="Path 3910" d="M149.947,390.609a47.72,47.72,0,0,0-9.051.259,16,16,0,0,0-8.2,3.561" transform="translate(-121.178 -371.728)" fill="none" stroke="#2b343b" stroke-linecap="round" stroke-linejoin="round" stroke-width="1.383"/>
        </g>
        <rect id="Rectangle_266" data-name="Rectangle 266" width="146.384" height="191.464" rx="26.082" transform="translate(165.082 191.464) rotate(180)" stroke-width="1.038" stroke="#2b343b" stroke-linecap="round" stroke-linejoin="round" fill="#f9fbfc"/>
      </g>
      <path id="Path_3911" data-name="Path 3911" d="M137.4,446.115h22.3a62.226,62.226,0,0,0,62.043-62.045l.067-10.217c-35.375,43.555-41.992,11.356-64.169,8.9l-14.646.419c-11.794.419-17.027,16.7-38.251,15.931A39.419,39.419,0,0,1,94.054,397.7c-5.2-1.487-18.7-13.626-18.7-13.626A62.227,62.227,0,0,0,137.4,446.115Z" transform="translate(-56.658 -254.65)" fill="#2b343b"/>
      <g id="Group_181" data-name="Group 181" transform="translate(54.983 82.405)">
        <path id="Path_3912" data-name="Path 3912" d="M102.277,380.04c3.437,6.4,6.263,5.952,9.025,6.427,2.455.423,6.694-1.32,9.215-7.307" transform="translate(-74.522 -329.737)" fill="none" stroke="#f9fbfc" stroke-linecap="round" stroke-linejoin="round" stroke-width="1.038"/>
        <path id="Path_3915" data-name="Path 3915" d="M114.608,373.838a7.278,7.278,0,1,0,7.5-7.445A7.478,7.478,0,0,0,114.608,373.838Z" transform="translate(-57.525 -347.345)" fill="#2b343b"/>
        <path id="Path_3916" data-name="Path 3916" d="M91.668,373.838a7.278,7.278,0,1,0,7.5-7.445A7.478,7.478,0,0,0,91.668,373.838Z" transform="translate(-89.154 -347.345)" fill="#2b343b"/>
        <path id="Path_3917" data-name="Path 3917" d="M133.1,363.942s-4.208-5.352-9.586-5.552-9.969,4.717-9.969,4.717" transform="translate(-58.98 -358.383)" fill="none" stroke="#2b343b" stroke-linecap="round" stroke-linejoin="round" stroke-width="1.038"/>
        <path id="Path_3918" data-name="Path 3918" d="M110.165,363.942s-4.208-5.352-9.586-5.552-9.969,4.717-9.969,4.717" transform="translate(-90.609 -358.383)" fill="none" stroke="#2b343b" stroke-linecap="round" stroke-linejoin="round" stroke-width="1.038"/>
        <path id="Path_3919" data-name="Path 3919" d="M105.231,373.141a26.739,26.739,0,0,0-1.827,3.39" transform="translate(-72.968 -338.036)" fill="none" stroke="#2b343b" stroke-linecap="round" stroke-linejoin="round" stroke-width="1.163"/>
        <path id="Path_3920" data-name="Path 3920" d="M106.951,359.681c1.651,14.437,8.573,30.677.516,37.311" transform="translate(-68.077 -356.594)" fill="none" stroke="#2b343b" stroke-linecap="round" stroke-linejoin="round" stroke-width="1.038"/>
      </g>
    </g>
    <path id="Path_3921" data-name="Path 3921" d="M226.945,460.672a136.91,136.91,0,0,0,5.592-52.583c-1.315-14.758-1.794-18.564-3.268-30.108l.852-7.814c4.565-2.186,8.987-3.937,10.607-6.285,3.739-5.424,2.248-7.1,1.494-9.846a18.16,18.16,0,0,0-4.86-7.446c-.676-.668-3.326-.433-4.194-.821a8.266,8.266,0,0,0-3.611-.507c-4.886.124-9.732,1.68-10.352.1l1.063.642c-1.468-1.587,5.152-4.037,6.839-6.194,1.755-2.243,3.254-6.839,2.9-9.555-.921-7.108-4.106-9.56-6.53-11.723s-10.581-3.711-13.695-2.776c-1.744.526-12.31,5.975-14.061,6.477-11.456,3.276-11.723,4.962-21.092,4.8s-16.1-.426-25.472-.664c-18.4-.464-41.238,3.713-56.224,16.121H92.3c-2.36-2.369-.49-4.08-4.008-5.69-3.04-1.392-6.468.925-7.572,4.777a14.648,14.648,0,0,0-.2,5.045c.509,5.49-.573,7.481,1.03,11.83l-1.32-.521c-1.33-2.978-5.186-6.975-7.455-4.629s-1.068,9.277-.316,12.453,1.089,6.049,2.005,9.182c1.553,5.324.131,11.687-.193,17.225a470.315,470.315,0,0,0,1.518,73.877c.345,3.452,1.363,7.669,4.731,8.487l.687.238A229.388,229.388,0,0,0,85.1,432.995c.007-4.765,3.894-15.431,5.4-19.951,5.652-17.015,11.637-16.1,24.3-21.116,4.51-1.789,9.215-3.306,14.066-3.442,6.58-.186,12.938,2.172,19.449,3.147,9.016,1.349,17.52,2.6,25.776-1.273,5.688-2.667,10.766-5.954,17.044-6.149,4.4-.138,8.606,1.38,12.667,3.073,2.253.942,4.76,3.321,6.534,5,2.4,2.267,7.517,14.139,8.5,17.289,7.55,24.232,8.052,36.709,7.129,62.074" transform="translate(5.47 0)" fill="#2b343b"/>
    <g id="Group_185" data-name="Group 185" transform="translate(115.577 459.111)">
      <g id="Group_183" data-name="Group 183" transform="translate(79.011)">
        <path id="Path_3922" data-name="Path 3922" d="M123.6,379.966a1.34,1.34,0,1,1-1.342-1.339A1.342,1.342,0,0,1,123.6,379.966Z" transform="translate(-120.923 -372.052)" fill="#2b343b"/>
        <path id="Path_3923" data-name="Path 3923" d="M127.749,377.2a1.34,1.34,0,1,1-1.339-1.342A1.339,1.339,0,0,1,127.749,377.2Z" transform="translate(-115.208 -375.863)" fill="#2b343b"/>
        <path id="Path_3924" data-name="Path 3924" d="M127.749,381.35a1.34,1.34,0,1,1-1.339-1.342A1.339,1.339,0,0,1,127.749,381.35Z" transform="translate(-115.208 -370.148)" fill="#2b343b"/>
      </g>
      <g id="Group_184" data-name="Group 184">
        <path id="Path_3925" data-name="Path 3925" d="M91.853,379.966a1.34,1.34,0,1,0,1.339-1.339A1.341,1.341,0,0,0,91.853,379.966Z" transform="translate(-81.993 -372.052)" fill="#2b343b"/>
        <path id="Path_3926" data-name="Path 3926" d="M87.708,377.2a1.34,1.34,0,1,0,1.339-1.342A1.339,1.339,0,0,0,87.708,377.2Z" transform="translate(-87.708 -375.863)" fill="#2b343b"/>
        <path id="Path_3927" data-name="Path 3927" d="M87.708,381.35a1.34,1.34,0,1,0,1.339-1.342A1.339,1.339,0,0,0,87.708,381.35Z" transform="translate(-87.708 -370.148)" fill="#2b343b"/>
      </g>
    </g>
    <path id="Path_3928" data-name="Path 3928" d="M180.882,416.826c-.026,12.039-12.543,19.085-27.908,19.085s-27.891-7.051-27.908-19.1c-32.767,8.68-52.854,36.164-52.854,63.668l80.733.012,80.733-.012C233.679,452.993,213.616,425.523,180.882,416.826Z" transform="translate(6.505 139.71)" fill="#2b343b"/>
  </g>
</svg>
