<svg id="man" xmlns="http://www.w3.org/2000/svg" xmlns:xlink="http://www.w3.org/1999/xlink" width="929.825" height="929.825" viewBox="0 0 929.825 929.825">
  <defs>
    <clipPath id="clip-path">
      <circle id="Ellipse_26" data-name="Ellipse 26" cx="464.913" cy="464.913" r="464.913"/>
    </clipPath>
  </defs>
  <g id="Group_79" data-name="Group 79">
    <path id="Path_94" data-name="Path 94" d="M464.913,0C721.677,0,929.826,208.149,929.826,464.913S721.677,929.826,464.913,929.826,0,721.677,0,464.913,208.149,0,464.913,0Z" transform="translate(0 0)" fill="#fa7a38"/>
    <g id="Group_64" data-name="Group 64" transform="translate(0 0)" clip-path="url(#clip-path)">
      <path id="Path_77" data-name="Path 77" d="M465.977,217.776V372.292c0,2.239-.054,4.473-.1,6.706-.1,4.626-.356,9.246-.761,13.818-.1,1.577-.257,3.148-.46,4.725-.662,6.553-1.571,13.007-2.743,19.412-.41,2.135-.815,4.216-1.275,6.3a8.884,8.884,0,0,1-.252,1.27c-.41,2.135-.919,4.22-1.423,6.3-.2,1.117-.509,2.234-.761,3.356-.257.964-.509,1.932-.81,2.9-1.072,4.166-2.288,8.233-3.563,12.3-.608,1.932-1.216,3.81-1.878,5.743-.054.2-.153.405-.2.608q-.919,2.587-1.828,5.179c-.2.509-.405,1.013-.613,1.576-.608,1.626-1.216,3.252-1.878,4.878-.761,1.982-1.571,3.914-2.387,5.846-.712,1.73-1.473,3.454-2.234,5.184-.1.306-.257.558-.356.86-.865,1.829-1.675,3.662-2.54,5.436q-1.3,2.817-2.748,5.644c-1.829,3.706-3.81,7.418-5.792,11.026q-1.371,2.439-2.748,4.878a298.671,298.671,0,0,1-25.96,37.8c-1.275,1.675-2.59,3.3-3.964,4.878-1.883,2.283-3.815,4.522-5.743,6.706-1.73,1.932-3.454,3.86-5.234,5.743-4.878,5.234-9.859,10.215-14.94,14.89-1.013,1.018-2.086,1.932-3.153,2.9-1.725,1.577-3.45,3.1-5.234,4.571-1.369,1.221-2.792,2.387-4.22,3.558-3.657,2.995-7.314,5.891-11.021,8.584-1.527,1.171-3.1,2.288-4.675,3.356-2.54,1.829-5.13,3.558-7.724,5.234-1.423.964-2.9,1.878-4.374,2.743-5.184,3.2-10.413,6.148-15.6,8.688-1.27.657-2.54,1.27-3.81,1.878s-2.59,1.221-3.964,1.828q-2.52,1.142-5.031,2.135a15.82,15.82,0,0,1-1.982.761c-1.977.815-4.013,1.576-5.995,2.234-2.491.914-5.031,1.675-7.517,2.387-1.73.509-3.5.964-5.234,1.369a.7.7,0,0,1-.356.1c-1.73.405-3.454.815-5.184,1.117a12.085,12.085,0,0,1-1.369.252c-1.423.252-2.847.509-4.27.662-2.031.306-4.062.558-6.093.662a14.693,14.693,0,0,1-2.086.153c-1.621.1-3.247.153-4.828.153h-.148q-2.365,0-4.725-.153a10.926,10.926,0,0,1-1.833-.153c-1.418-.049-2.9-.208-4.418-.41a6.305,6.305,0,0,1-.964-.1c-1.883-.252-3.761-.559-5.693-.914-1.621-.252-3.247-.613-4.927-1.018a145.694,145.694,0,0,1-26.672-8.994,194.466,194.466,0,0,1-23.321-12.3c-3.914-2.387-7.828-4.927-11.688-7.621-1.932-1.374-3.86-2.743-5.792-4.166q-9.073-6.635-17.939-14.431c-1.621-1.473-3.247-2.945-4.873-4.472-1.626-1.473-3.252-2.995-4.828-4.468q-5.953-5.715-11.589-11.89-2.209-2.357-4.423-4.878c-4.062-4.571-8.026-9.3-11.787-14.228-1.478-1.779-2.847-3.608-4.22-5.436q-7.695-10.208-14.584-21.29c-1.216-1.982-2.436-4.018-3.6-5.995-1.423-2.387-2.792-4.823-4.166-7.265a277.044,277.044,0,0,1-13.823-28.456c-.608-1.423-1.221-2.847-1.73-4.265-.815-1.829-1.527-3.711-2.184-5.54q-1.52-4.04-2.9-8.08c-.914-2.693-1.774-5.436-2.639-8.179-.815-2.644-1.576-5.283-2.288-7.976-.815-2.847-1.572-5.743-2.234-8.688-.054-.306-.153-.608-.2-.914q-1.446-6.093-2.59-12.345c-1.018-5.491-1.829-11.08-2.441-16.719-.252-1.779-.405-3.558-.558-5.337-.2-1.878-.351-3.711-.455-5.589-.257-3.405-.41-6.859-.514-10.314-.049-2.239-.1-4.473-.1-6.706V217.776c0-114.17,92.529-206.743,206.7-206.847h.2a209.114,209.114,0,0,1,45.827,5.08A207.412,207.412,0,0,1,421.909,90.194,205.805,205.805,0,0,1,465.977,217.776Z" transform="translate(205.827 43.082)" fill="#ecc19c"/>
    </g>
    <g id="Group_65" data-name="Group 65" transform="translate(0 0)" clip-path="url(#clip-path)">
      <path id="Path_78" data-name="Path 78" d="M578.586,509.21v.049H39.538v-.049a268.164,268.164,0,0,1,14.381-87.038q2.513-7.391,5.486-14.633v-.049c1.977-4.828,4.062-9.553,6.3-14.228a266.78,266.78,0,0,1,32.825-52.336c3.252-4.013,6.553-7.927,9.963-11.688,1.675-1.932,3.454-3.81,5.234-5.688,1.779-1.829,3.558-3.657,5.387-5.486a268.221,268.221,0,0,1,29.118-25.1c5.13-3.81,10.314-7.369,15.7-10.823,5.387-3.405,10.872-6.657,16.462-9.706a.323.323,0,0,1,.2-.1c2.184-1.166,4.319-2.436,6.454-3.761,4.22-2.54,8.382-5.283,12.35-8.228,2.031-1.423,3.964-2.9,5.891-4.472,4.571-3.657,8.989-7.571,13.21-11.688,1.369-1.369,2.748-2.743,4.117-4.166,2.842-2.95,5.535-6.049,8.13-9.2,1.275-1.522,2.545-3.1,3.711-4.675,1.221-1.572,2.387-3.2,3.558-4.828a169.083,169.083,0,0,0,31.6-98.83l39.279.2,40.391.2a170.081,170.081,0,0,0,63.87,133.019c1.883,1.527,3.761,3,5.644,4.369q2.743,2.061,5.639,3.964c.41.306.761.558,1.171.815,1.829,1.221,3.657,2.441,5.589,3.558,2.081,1.27,4.22,2.54,6.35,3.711a2.49,2.49,0,0,1,.914.46c4.472,2.491,8.9,5.08,13.215,7.774,2.081,1.27,4.166,2.59,6.2,4.067q6.331,4.114,12.345,8.688a.053.053,0,0,0,.054.054h.049a272.084,272.084,0,0,1,29.064,25.1A268.181,268.181,0,0,1,578.586,509.21Z" transform="translate(155.858 482.85)" fill="#ecc19c"/>
    </g>
    <g id="Group_66" data-name="Group 66" transform="translate(0 0)" clip-path="url(#clip-path)">
      <path id="Path_79" data-name="Path 79" d="M578.586,402.9H39.539A268.275,268.275,0,0,1,53.92,315.862q2.513-7.4,5.486-14.633c-.054-.054,0-.054,0-.054,1.932-4.828,4.062-9.553,6.3-14.223a266.779,266.779,0,0,1,32.825-52.336c3.252-4.018,6.558-7.927,9.963-11.688,1.675-1.932,3.454-3.81,5.234-5.688,1.779-1.828,3.558-3.657,5.387-5.486a267.678,267.678,0,0,1,29.118-25.1c5.13-3.81,10.314-7.368,15.7-10.823s10.872-6.706,16.462-9.755a.182.182,0,0,1,.2-.049v-.049c2.184-1.221,4.319-2.441,6.454-3.711a157.026,157.026,0,0,0,18.142-12.8c.049.049.049.049.1.1a144.821,144.821,0,0,0,103.6,43.747h.405a145.132,145.132,0,0,0,103.856-43.7l.054-.049a136.02,136.02,0,0,0,11.228,8.382c.405.3.761.558,1.166.811,1.829,1.221,3.706,2.387,5.589,3.558,2.086,1.27,4.22,2.491,6.351,3.657a4.933,4.933,0,0,1,.914.455c4.472,2.491,8.9,5.08,13.215,7.823,2.081,1.27,4.166,2.59,6.2,4.067,4.22,2.693,8.337,5.639,12.345,8.688h.1A269.882,269.882,0,0,1,578.586,402.9Z" transform="translate(155.862 589.17)" fill="#c7d4e2"/>
    </g>
    <g id="Group_67" data-name="Group 67" transform="translate(0 0)" clip-path="url(#clip-path)">
      <path id="Path_80" data-name="Path 80" d="M465.981,84.054c0,2.239-.054,4.473-.1,6.706-.1,4.626-.356,9.246-.761,13.818-.1,1.577-.257,3.148-.46,4.725-.662,6.553-1.571,13.007-2.743,19.412-.41,2.135-.815,4.216-1.275,6.3a8.884,8.884,0,0,1-.252,1.27c-.41,2.135-.919,4.22-1.423,6.3-.257,1.221-.558,2.387-.919,3.558a22.79,22.79,0,0,1-.657,2.693c-1.072,4.166-2.288,8.233-3.563,12.3-.608,1.932-1.216,3.81-1.878,5.743-.054.2-.153.405-.2.608q-.919,2.587-1.828,5.179c-.2.509-.405,1.013-.613,1.576-.608,1.626-1.216,3.252-1.878,4.878-.761,1.982-1.572,3.914-2.387,5.846-.712,1.73-1.473,3.454-2.234,5.184-.1.306-.257.558-.356.86-.865,1.829-1.675,3.662-2.54,5.436q-1.3,2.817-2.748,5.644c-1.828,3.706-3.81,7.418-5.792,11.026q-1.371,2.439-2.748,4.878a298.663,298.663,0,0,1-25.96,37.8c-1.275,1.675-2.59,3.3-3.964,4.878-1.883,2.283-3.815,4.522-5.743,6.706-1.73,1.932-3.454,3.86-5.234,5.743-4.878,5.234-9.859,10.215-14.94,14.89-1.013,1.018-2.086,1.932-3.153,2.9-1.725,1.577-3.449,3.1-5.234,4.571-1.369,1.221-2.792,2.387-4.22,3.558-3.657,2.995-7.314,5.891-11.021,8.584-1.527,1.171-3.1,2.288-4.675,3.356-2.54,1.829-5.13,3.558-7.724,5.234-1.423.964-2.9,1.878-4.374,2.743-5.184,3.2-10.413,6.148-15.6,8.688-1.27.657-2.54,1.27-3.81,1.878s-2.59,1.221-3.964,1.828q-2.52,1.142-5.031,2.135a15.821,15.821,0,0,1-1.982.761c-1.977.815-4.013,1.576-5.995,2.234-2.491.914-5.031,1.675-7.517,2.387-1.73.509-3.5.964-5.234,1.369a.7.7,0,0,1-.356.1c-1.73.405-3.454.815-5.184,1.117a12.085,12.085,0,0,1-1.369.252c-1.423.252-2.847.509-4.27.662-2.031.306-4.062.558-6.093.662a14.692,14.692,0,0,1-2.086.153c-1.621.1-3.247.153-4.828.153h-.148q-2.365,0-4.725-.153a10.926,10.926,0,0,1-1.833-.153c-1.418-.049-2.9-.208-4.418-.41a6.306,6.306,0,0,1-.964-.1c-1.883-.252-3.761-.559-5.693-.914-1.621-.252-3.247-.613-4.927-1.018a145.693,145.693,0,0,1-26.672-8.994,194.464,194.464,0,0,1-23.321-12.3c-3.914-2.338-7.774-4.878-11.688-7.621-1.932-1.374-3.86-2.743-5.792-4.166q-9.074-6.635-17.939-14.431c-1.621-1.473-3.247-2.945-4.873-4.472-1.626-1.473-3.252-2.995-4.828-4.468q-5.953-5.715-11.589-11.89-2.209-2.357-4.423-4.878c-4.062-4.571-8.026-9.3-11.787-14.228-1.478-1.779-2.847-3.608-4.22-5.436q-7.695-10.208-14.584-21.29c-1.216-1.982-2.436-4.018-3.6-5.995-1.423-2.387-2.792-4.823-4.166-7.265A277.05,277.05,0,0,1,73.048,184.7c-.608-1.423-1.221-2.847-1.73-4.265-.815-1.829-1.527-3.711-2.184-5.54q-1.52-4.04-2.9-8.08c-.914-2.693-1.774-5.436-2.639-8.179-.815-2.644-1.577-5.283-2.288-7.976-.815-2.847-1.572-5.743-2.234-8.688-.054-.306-.153-.608-.2-.914q-1.446-6.093-2.59-12.345c-1.018-5.491-1.829-11.08-2.441-16.719-.252-1.779-.405-3.558-.558-5.337-.2-1.878-.351-3.711-.455-5.589-.257-3.405-.41-6.859-.514-10.314-.049-2.239-.1-4.473-.1-6.706l33.032,64.938L142,173.731l67.117,6.049,49.8,4.522h.306l46.593,4.22,103.806,9.35Z" transform="translate(205.823 331.32)" fill="#543e36"/>
    </g>
    <g id="Group_68" data-name="Group 68" transform="translate(0 0)" clip-path="url(#clip-path)">
      <path id="Path_81" data-name="Path 81" d="M421.908,90.182A284.513,284.513,0,0,1,383.088,153.7c-.914,1.122-1.829,2.239-2.792,3.356a284.822,284.822,0,0,1-121.385,85.615,276.809,276.809,0,0,1-38.819,11.179q-13.336,2.817-27.132,4.423a294.155,294.155,0,0,1-32.261,1.779,283.7,283.7,0,0,1-36.783-2.387,268.393,268.393,0,0,1-34.6-6.6c-6.454-1.626-12.755-3.5-19.007-5.589-6.148-2.031-12.142-4.27-18.088-6.706V217.779c0-114.17,92.529-206.743,206.7-206.847h.2a209.113,209.113,0,0,1,45.827,5.08A207.483,207.483,0,0,1,421.908,90.182Z" transform="translate(205.839 43.094)" fill="#543e36"/>
    </g>
    <g id="Group_69" data-name="Group 69" transform="translate(0 0)" clip-path="url(#clip-path)">
      <path id="Path_82" data-name="Path 82" d="M233.49,203.392v40.7a317.161,317.161,0,0,1-85.566-101.212c-.049-.049-.049-.153-.1-.2a315.157,315.157,0,0,1-36.63-128.1,205.221,205.221,0,0,1,46.39,28.708A206.834,206.834,0,0,1,233.49,203.392Z" transform="translate(438.314 57.466)" fill="#543e36"/>
    </g>
    <g id="Group_70" data-name="Group 70" transform="translate(0 0)" clip-path="url(#clip-path)">
      <path id="Path_83" data-name="Path 83" d="M76.455,60.716c-2.179,3.81-4.166,7.724-6.148,11.737-.756,1.572-1.522,3.252-2.283,4.878-10.008,22.254-15.043,44.1-15.755,63.821,0,.558-.054,1.166-.054,1.73V63.207c0-2.847.1-5.644.1-8.387C60.35,56.906,68.375,58.937,76.455,60.716Z" transform="translate(205.831 216.1)" fill="#543e36"/>
    </g>
    <g id="Group_71" data-name="Group 71" transform="translate(0 0)" clip-path="url(#clip-path)">
      <path id="Path_84" data-name="Path 84" d="M131.054,60.7c3.074,5.4,5.817,10.937,8.451,16.61,10.319,22.946,15.37,45.358,15.8,65.57V63.166c0-2.8-.1-5.6-.1-8.342C147.185,56.895,139.174,58.9,131.054,60.7Z" transform="translate(516.614 216.116)" fill="#543e36"/>
    </g>
    <g id="Group_72" data-name="Group 72" transform="translate(0 0)" clip-path="url(#clip-path)">
      <path id="Path_85" data-name="Path 85" d="M422.135,66.048a1.756,1.756,0,0,0-1.527-1.73,553.8,553.8,0,0,0-75.657-5.644c-40.193,0-92.069,12.6-101.113,12.6h-8.026c-4.22,0-17.732-2.743-35.009-5.639-19.867-3.356-44.661-6.963-66.1-6.963a555.929,555.929,0,0,0-64.681,4.166c-5.184.613-8.994,1.166-10.976,1.473a1.756,1.756,0,0,0-1.527,1.73L57.11,87.635a1.884,1.884,0,0,0,1.166,1.73l2.436.865c3.608,1.374,3.306,66.46,22.713,82.719,11.535,9.6,21.8,15.088,65.037,15.088,25.051,0,40.8-6.756,55.741-26.929,10.774-14.48,20.321-48.728,20.321-48.728,2.9-14.124,13.413-15.241,15.093-15.345h.2c.351,0,12.2.2,15.3,15.345,0,0,9.553,34.248,20.321,48.728,14.935,20.173,30.69,26.929,55.736,26.929,43.242,0,53.5-5.486,65.037-15.088,19.412-16.259,19.106-81.345,22.713-82.719l2.441-.865a1.879,1.879,0,0,0,1.166-1.73ZM204.208,143.074c-6.35,15.038-22.763,34.451-45.881,35.617-69.356,3.5-72.558-15.854-77.031-31.2a105.614,105.614,0,0,1-3.914-44.157C79.211,87.991,83.075,79,90.039,74.475c2.995-1.982,6.252-3.761,14.584-5.031,7.467-1.117,19-1.779,38.207-1.779a192.235,192.235,0,0,1,30.838,2.387c24.7,3.963,41.36,12.35,41.36,20.628C215.026,96.328,213.6,120.816,204.208,143.074Zm194.141,4.418c-4.468,15.345-7.67,34.7-77.026,31.2-23.119-1.166-39.531-20.578-45.881-35.617-9.4-22.254-10.818-46.746-10.818-52.385,0-11.381,31.6-23.02,72.2-23.02s47.1,3.049,52.8,6.81C396.575,79,400.435,88,402.268,103.341A105.426,105.426,0,0,1,398.349,147.492Z" transform="translate(225.127 231.296)" fill="#1a1a1a"/>
    </g>
    <g id="Group_73" data-name="Group 73" transform="translate(0 0)" clip-path="url(#clip-path)">
      <path id="Path_86" data-name="Path 86" d="M259.324,165.1l-.054,50.1-.049,17.529V246.5l-.054,45.728v.049l-.049-.049h-.054l-.148-.1L59.079,190.406c-.054-.306-.153-.608-.2-.914q-1.446-6.093-2.59-12.345c-1.018-5.491-1.829-11.08-2.441-16.719-.252-1.779-.405-3.558-.558-5.337-.2-1.878-.351-3.711-.455-5.589-.257-3.405-.41-6.859-.514-10.314-.049-2.239-.1-4.473-.1-6.706V71.764c0,.865.054,1.73.054,2.59a202.19,202.19,0,0,0,7.265,47.354,205.536,205.536,0,0,0,12.958,34.905v.049c13.314,27.695,31.149,46.489,47.557,49.539,1.018.153,2.086.252,3.1.356a178.653,178.653,0,0,0,19.867,1.117c25.911,0,48.931-20.831,63.411-29.266.1-.049.2-.1.306-.153.761-.46,1.527-.914,2.184-1.374a3.883,3.883,0,0,1,.608-.356c12.2-6.963,29.776-11.381,49.39-11.431h.405Z" transform="translate(205.831 282.893)" fill="#543e36"/>
      <path id="Path_87" data-name="Path 87" d="M301.14,71.764l-.049,60.717a249.083,249.083,0,0,1-4.062,44.666c-1.072,5.792-2.288,11.53-3.711,17.223l-46.9,67.73L94.293,292.231h-.049l-.054.049v-.049l-.148-127.143h.405c19.615.049,37.243,4.473,49.44,11.431a3.755,3.755,0,0,1,.558.356c.712.46,1.473.914,2.234,1.374a1.017,1.017,0,0,0,.252.153c14.534,8.436,37.5,29.281,63.416,29.281a178.562,178.562,0,0,0,19.862-1.117c1.068-.1,2.086-.2,3.153-.356,16.363-3.049,34.248-21.849,47.507-49.539v-.049a205.532,205.532,0,0,0,12.953-34.905,199.939,199.939,0,0,0,7.27-48.016C301.14,73.034,301.14,72.421,301.14,71.764Z" transform="translate(370.709 282.893)" fill="#543e36"/>
    </g>
    <g id="Group_74" data-name="Group 74" clip-path="url(#clip-path)">
      <ellipse id="Ellipse_36" data-name="Ellipse 36" cx="50.68" cy="15.666" rx="50.68" ry="15.666" transform="translate(414.233 498.078)" fill="#ecc19c"/>
    </g>
    <g id="Group_75" data-name="Group 75" transform="translate(0 0)" clip-path="url(#clip-path)">
      <path id="Path_88" data-name="Path 88" d="M81.354,155.174V434.683H59.762V170.929c2.9-2.338,5.792-4.626,8.742-6.81C72.72,160.971,76.985,158.021,81.354,155.174Z" transform="translate(235.581 611.694)" fill="#435363"/>
      <path id="Path_89" data-name="Path 89" d="M124.021,155.185V434.64h21.592v-263.7Z" transform="translate(488.89 611.738)" fill="#435363"/>
    </g>
    <g id="Group_78" data-name="Group 78" transform="translate(0 0)" clip-path="url(#clip-path)">
      <g id="Group_76" data-name="Group 76" transform="translate(405.802 749.764)">
        <path id="Path_90" data-name="Path 90" d="M82.113,151.713l59.111,70.848,59.116-70.848Z" transform="translate(-82.113 -151.713)" fill="#141720"/>
        <path id="Path_91" data-name="Path 91" d="M121.956,484.82H87l25.254-325.183c1.063,4.136,18.345,4.136,19.407,0L156.915,484.82Z" transform="translate(-62.845 -120.477)" fill="#141720"/>
      </g>
      <g id="Group_77" data-name="Group 77" transform="translate(355.191 703.972)">
        <path id="Path_92" data-name="Path 92" d="M181.574,187.707l-.148.252-.054.1L156.83,229.269l-22.916,38.409L71.872,181.456c1.982-1.423,3.963-2.945,5.846-4.522l.1.1a169.011,169.011,0,0,0,32.721-34.549l70.883,45.12Z" transform="translate(-71.872 -142.285)" fill="#e7ecf2"/>
        <path id="Path_93" data-name="Path 93" d="M203.826,181.617,141.784,267.84l-22.916-38.409-24.6-41.206-.2-.356,71.343-45.422a170.421,170.421,0,0,0,32.77,34.8C200.07,178.771,201.943,180.248,203.826,181.617Z" transform="translate(15.628 -142.447)" fill="#e7ecf2"/>
      </g>
    </g>
  </g>
</svg>
