<svg xmlns="http://www.w3.org/2000/svg" width="75.001" height="75.001" viewBox="0 0 75.001 75.001">
  <g id="Group_63" data-name="Group 63" transform="translate(-1815 -560)">
    <path id="Subtraction_10" data-name="Subtraction 10" d="M39.5-355a37.266,37.266,0,0,1-14.6-2.947,37.376,37.376,0,0,1-11.92-8.037A37.375,37.375,0,0,1,4.947-377.9,37.265,37.265,0,0,1,2-392.5a37.265,37.265,0,0,1,2.947-14.6,37.375,37.375,0,0,1,8.037-11.92,37.375,37.375,0,0,1,11.92-8.037A37.265,37.265,0,0,1,39.5-430a37.265,37.265,0,0,1,14.6,2.947,37.375,37.375,0,0,1,11.92,8.037,37.375,37.375,0,0,1,8.037,11.92A37.265,37.265,0,0,1,77-392.5a37.265,37.265,0,0,1-2.947,14.6,37.375,37.375,0,0,1-8.037,11.92,37.376,37.376,0,0,1-11.92,8.037A37.266,37.266,0,0,1,39.5-355ZM28.745-416.88h0a53.4,53.4,0,0,1,4.89,7.577A46.9,46.9,0,0,1,37-401.5a29.717,29.717,0,0,1,1.528,9.005A30.418,30.418,0,0,1,37-383.412a49.4,49.4,0,0,1-3.362,7.969,57.312,57.312,0,0,1-4.89,7.813l24.625-24.625L28.744-416.881Z" transform="translate(1813 990)" fill="#fff"/>
  </g>
</svg>
