<svg id="Group_63" data-name="Group 63" xmlns="http://www.w3.org/2000/svg" width="75.001" height="75.001" viewBox="0 0 75.001 75.001">
  <path id="Subtraction_10" data-name="Subtraction 10" d="M37.5,75A37.51,37.51,0,0,1,22.9,2.947,37.51,37.51,0,0,1,52.1,72.054,37.266,37.266,0,0,1,37.5,75ZM26.745,13.12h0a53.4,53.4,0,0,1,4.89,7.577A46.9,46.9,0,0,1,35,28.5a29.717,29.717,0,0,1,1.528,9.005A30.418,30.418,0,0,1,35,46.588a49.4,49.4,0,0,1-3.362,7.969,57.312,57.312,0,0,1-4.89,7.813L51.369,37.745,26.744,13.119Z" transform="translate(0)" fill="#454e56"/>
</svg>
