<svg xmlns="http://www.w3.org/2000/svg" xmlns:xlink="http://www.w3.org/1999/xlink" width="880.979" height="592.824" viewBox="0 0 880.979 592.824">
  <defs>
    <clipPath id="clip-path">
      <path id="Path_3969" data-name="Path 3969" d="M0-250.591H880.979V342.233H0Z" transform="translate(0 250.591)" fill="none"/>
    </clipPath>
  </defs>
  <g id="no-res" transform="translate(-520 -216.358)">
    <g id="Group_242" data-name="Group 242" transform="translate(520 466.949)">
      <g id="Group_240" data-name="Group 240" transform="translate(0 -250.591)" clip-path="url(#clip-path)">
        <g id="Group_177" data-name="Group 177" transform="translate(137.852 4.732)">
          <path id="Path_3906" data-name="Path 3906" d="M144.657,13.232-98.165,396.085c-20.842,32.862,2.768,75.792,41.681,75.792H429.159c38.914,0,62.521-42.93,41.681-75.792L228.018,13.232c-19.382-30.56-63.976-30.56-83.36,0" transform="translate(105.922 9.689)" fill="#e8b130"/>
        </g>
        <g id="Group_178" data-name="Group 178" transform="translate(137.852 4.732)">
          <path id="Path_3907" data-name="Path 3907" d="M144.657,13.232-98.165,396.085c-20.842,32.862,2.768,75.792,41.681,75.792H429.159c38.914,0,62.521-42.93,41.681-75.792L228.018,13.232C208.636-17.329,164.042-17.329,144.657,13.232Z" transform="translate(105.922 9.689)" fill="none" stroke="#272424" stroke-width="4"/>
        </g>
        <g id="Group_179" data-name="Group 179" transform="translate(180.609 47.488)">
          <path id="Path_3908" data-name="Path 3908" d="M3.857,228.638a6.131,6.131,0,0,1-5.784-3.418,6.121,6.121,0,0,1,.213-6.714L241.107-164.348a6.243,6.243,0,0,1,5.571-3.066,6.243,6.243,0,0,1,5.571,3.066L495.072,218.506a6.6,6.6,0,0,1-5.574,10.132Z" transform="translate(2.824 167.414)" fill="#fff02c"/>
        </g>
        <g id="Group_180" data-name="Group 180" transform="translate(180.609 47.488)">
          <path id="Path_3909" data-name="Path 3909" d="M3.857,228.638a6.131,6.131,0,0,1-5.784-3.418,6.121,6.121,0,0,1,.213-6.714L241.107-164.348a6.243,6.243,0,0,1,5.571-3.066,6.243,6.243,0,0,1,5.571,3.066L495.072,218.506a6.6,6.6,0,0,1-5.574,10.132Z" transform="translate(2.824 167.414)" fill="none" stroke="#272424" stroke-width="7"/>
        </g>
        <g id="Group_181" data-name="Group 181" transform="translate(275.472 28.638)">
          <path id="Path_3910" data-name="Path 3910" d="M4.933,120.127a8.554,8.554,0,0,1-7.189-13.172L120.313-84.026A8.552,8.552,0,0,1,132.13-86.6a8.551,8.551,0,0,1,2.579,11.814L12.136,116.193a8.544,8.544,0,0,1-7.2,3.934" transform="translate(3.612 87.96)" fill="#f8ea36"/>
        </g>
        <g id="Group_182" data-name="Group 182" transform="translate(3.634 393.211)">
          <path id="Path_3911" data-name="Path 3911" d="M4.049,38.27l107.1,46.59a112.65,112.65,0,0,0,90.375-1.327l97.978-42.954a11.452,11.452,0,0,0-1.185-21.306L154.182-27.92a2.057,2.057,0,0,0-1.247-.012L5.173,16.75A11.453,11.453,0,0,0,4.049,38.27" transform="translate(2.965 28.022)" fill="#d4692d"/>
        </g>
        <g id="Group_183" data-name="Group 183" transform="translate(3.549 393.211)">
          <path id="Path_3912" data-name="Path 3912" d="M4.1,38.27l107.1,46.59a112.65,112.65,0,0,0,90.375-1.327l97.978-42.954c9.494-4.327,6.056-28.916,6.056-28.916L154.231-27.92a2.057,2.057,0,0,0-1.247-.012L-2.462,9.974S-5.792,34.109,4.1,38.27Z" transform="translate(3.001 28.022)" fill="none" stroke="#272424" stroke-linecap="round" stroke-width="3"/>
        </g>
        <g id="Group_184" data-name="Group 184" transform="translate(3.634 376.621)">
          <path id="Path_3913" data-name="Path 3913" d="M4.049,38.269l107.1,46.593a112.66,112.66,0,0,0,90.375-1.327L299.507,40.58a11.452,11.452,0,0,0-1.185-21.306L154.182-27.919a2.058,2.058,0,0,0-1.247-.012L5.173,16.751A11.452,11.452,0,0,0,4.049,38.269" transform="translate(2.965 28.021)" fill="#e29e37"/>
        </g>
        <g id="Group_185" data-name="Group 185" transform="translate(19.205 407.04)">
          <path id="Path_3914" data-name="Path 3914" d="M112.033,33.462C97.373,26.867,83.16,19.4,68.875,12.034,45.013-.268,21.084-12.51-2.95-24.5L-79.994-1.2a2.871,2.871,0,0,0-.315,5.38l96.3,41.89a99.221,99.221,0,0,0,38.67,7.8h0a99.326,99.326,0,0,0,41.52-9.049l20.778-9.11c-1.635-.75-3.274-1.5-4.923-2.245" transform="translate(82.033 24.502)" fill="#f4d73a"/>
        </g>
        <g id="Group_186" data-name="Group 186" transform="translate(3.634 376.621)">
          <path id="Path_3915" data-name="Path 3915" d="M4.049,38.269l107.1,46.593a112.66,112.66,0,0,0,90.375-1.327L299.507,40.58a11.452,11.452,0,0,0-1.185-21.306L154.182-27.919a2.058,2.058,0,0,0-1.247-.012L5.173,16.751A11.452,11.452,0,0,0,4.049,38.269Z" transform="translate(2.965 28.021)" fill="none" stroke="#272424" stroke-linecap="round" stroke-width="3"/>
        </g>
        <g id="Group_187" data-name="Group 187" transform="translate(72.292 180.354)">
          <path id="Path_3916" data-name="Path 3916" d="M0,146.236s7.989,37.482,86.024,38.1,93.4-32.569,93.4-32.569L108.143-101.392s-4.452-5.685-19.2-5.685c-13.825,0-17.052,5.685-17.052,5.685Z" transform="translate(0 107.077)" fill="#fff"/>
        </g>
        <g id="Group_188" data-name="Group 188" transform="translate(155.33 180.353)">
          <path id="Path_3917" data-name="Path 3917" d="M55.642,149.427-15.635-103.729s-4.455-5.685-19.2-5.685a40.594,40.594,0,0,0-5.9.414L26.049,171.975c23.584-9.572,29.593-22.548,29.593-22.548" transform="translate(40.742 109.414)" fill="#e7e7e6"/>
        </g>
        <g id="Group_189" data-name="Group 189" transform="translate(86.425 395.57)">
          <path id="Path_3918" data-name="Path 3918" d="M0,0S63.9,38.1,151.772,0" fill="none" stroke="#272424" stroke-linecap="round" stroke-width="3"/>
        </g>
        <g id="Group_190" data-name="Group 190" transform="translate(99.203 341.38)">
          <path id="Path_3919" data-name="Path 3919" d="M0,.294c21.218,8.3,67.193,20.189,125.281-.509" transform="translate(0 0.215)" fill="none" stroke="#272424" stroke-linecap="round" stroke-width="3"/>
        </g>
        <g id="Group_191" data-name="Group 191" transform="translate(114.236 286.65)">
          <path id="Path_3920" data-name="Path 3920" d="M0,.347c21.7,5.962,54.8,10.17,94.687-.6" transform="translate(0 0.254)" fill="none" stroke="#272424" stroke-linecap="round" stroke-width="3"/>
        </g>
        <g id="Group_192" data-name="Group 192" transform="translate(130.992 230.566)">
          <path id="Path_3921" data-name="Path 3921" d="M0,.44A179.854,179.854,0,0,0,62.469-.322" transform="translate(0 0.322)" fill="none" stroke="#272424" stroke-linecap="round" stroke-width="3"/>
        </g>
        <g id="Group_193" data-name="Group 193" transform="translate(72.292 180.354)">
          <path id="Path_3922" data-name="Path 3922" d="M0,146.236s7.989,37.482,86.024,38.1,93.4-32.569,93.4-32.569L108.143-101.392s-4.452-5.685-19.2-5.685c-13.825,0-17.052,5.685-17.052,5.685Z" transform="translate(0 107.077)" fill="none" stroke="#272424" stroke-linecap="round" stroke-width="3"/>
        </g>
        <g id="Group_194" data-name="Group 194" transform="translate(76.133 399.575)">
          <path id="Path_3923" data-name="Path 3923" d="M92.8.311c-28.925,12.1-55.156,16.21-77.375,16.21-39.921,0-66.9-13.177-73.476-16.749l-9.9,34.083c1.767,5.082,14.781,33.886,82.213,34.419l2.108,0c64.539,0,83.774-23.974,87.287-29.384Z" transform="translate(67.949 0.228)" fill="#d4692d"/>
        </g>
        <g id="Group_195" data-name="Group 195" transform="translate(135.755 184.042)">
          <path id="Path_3924" data-name="Path 3924" d="M30.35,25.186,19.174-14.51c-1.254-1.013-5.742-3.932-15.919-3.932-9.373,0-12.855,2.829-13.707,3.7L-22.223,25.8a175.852,175.852,0,0,0,52.573-.617" transform="translate(22.223 18.442)" fill="#d4692d"/>
        </g>
        <g id="Group_196" data-name="Group 196" transform="translate(103.455 291.138)">
          <path id="Path_3925" data-name="Path 3925" d="M67.111,27.7,53.6-20.281A191.256,191.256,0,0,1,7.225-14.454a176.994,176.994,0,0,1-42.519-5.112l-13.846,47.7c22.025,8.058,63.827,17.2,116.251-.435" transform="translate(49.14 20.281)" fill="#d4692d"/>
        </g>
        <g id="Group_197" data-name="Group 197" transform="translate(209.695 398.27)">
          <path id="Path_3926" data-name="Path 3926" d="M21.965,22.273,11.1-16.309A218.26,218.26,0,0,1-16.083-6.953L-4.541,41.611c17.466-7.249,24.513-16.271,26.505-19.337" transform="translate(16.083 16.309)" fill="#aa402c"/>
        </g>
        <g id="Group_198" data-name="Group 198" transform="translate(156.185 184.042)">
          <path id="Path_3927" data-name="Path 3927" d="M12.1,2.27C10.85,1.26,6.363-1.662-3.815-1.662a37.268,37.268,0,0,0-5.048.322L1.939,44.1A181.638,181.638,0,0,0,23.28,41.966Z" transform="translate(8.863 1.662)" fill="#aa402c"/>
        </g>
        <g id="Group_199" data-name="Group 199" transform="translate(182.611 291.137)">
          <path id="Path_3928" data-name="Path 3928" d="M13.616,0A196.966,196.966,0,0,1-9.97,4.4L1.977,54.655a197.875,197.875,0,0,0,25.147-6.676Z" transform="translate(9.97)" fill="#aa402c"/>
        </g>
        <g id="Group_200" data-name="Group 200" transform="translate(140.294 190.34)">
          <path id="Path_3929" data-name="Path 3929" d="M4.187,24.249,8.812-17.756-3.066,23.656c2.42.192,4.838.362,7.253.594" transform="translate(3.066 17.756)" fill="#e8ad39"/>
        </g>
        <g id="Group_201" data-name="Group 201" transform="translate(107.337 289.926)">
          <path id="Path_3930" data-name="Path 3930" d="M9.395,0-6.879,56.739c8.351,3.984,17.854,4.052,27.049,5.221l6.56-59.571C20.9,1.994,15.176.887,9.395,0" transform="translate(6.879)" fill="#e8ad39"/>
        </g>
        <g id="Group_202" data-name="Group 202" transform="translate(82.739 397.866)">
          <path id="Path_3931" data-name="Path 3931" d="M5.724,0-4.191,34.57C9.942,57.917,35.9,58.994,35.9,58.994l5.285-48c-11.907-2.836-25.5-3.4-35.462-11" transform="translate(4.191)" fill="#e8ad39"/>
        </g>
        <g id="Group_203" data-name="Group 203" transform="translate(72.292 180.354)">
          <path id="Path_3932" data-name="Path 3932" d="M0,146.236s7.989,37.482,86.024,38.1,93.4-32.569,93.4-32.569L108.143-101.392s-4.452-5.685-19.2-5.685c-13.825,0-17.052,5.685-17.052,5.685Z" transform="translate(0 107.077)" fill="none" stroke="#272424" stroke-linecap="round" stroke-width="3"/>
        </g>
        <g id="Group_204" data-name="Group 204" transform="translate(86.425 395.57)">
          <path id="Path_3933" data-name="Path 3933" d="M0,0S63.9,38.1,151.772,0" fill="none" stroke="#272424" stroke-linecap="round" stroke-width="3"/>
        </g>
        <g id="Group_205" data-name="Group 205" transform="translate(99.203 341.38)">
          <path id="Path_3934" data-name="Path 3934" d="M0,.294c21.218,8.3,67.193,20.189,125.281-.509" transform="translate(0 0.215)" fill="none" stroke="#272424" stroke-linecap="round" stroke-width="3"/>
        </g>
        <g id="Group_206" data-name="Group 206" transform="translate(114.236 286.65)">
          <path id="Path_3935" data-name="Path 3935" d="M0,.347c21.7,5.962,54.8,10.17,94.687-.6" transform="translate(0 0.254)" fill="none" stroke="#272424" stroke-linecap="round" stroke-width="3"/>
        </g>
        <g id="Group_207" data-name="Group 207" transform="translate(130.992 230.566)">
          <path id="Path_3936" data-name="Path 3936" d="M0,.44A179.854,179.854,0,0,0,62.469-.322" transform="translate(0 0.322)" fill="none" stroke="#272424" stroke-linecap="round" stroke-width="3"/>
        </g>
        <g id="Group_208" data-name="Group 208" transform="translate(229.594 412.312)">
          <path id="Path_3937" data-name="Path 3937" d="M0,0,6.759,25.654" fill="none" stroke="#6f2b1f" stroke-linecap="round" stroke-width="3"/>
        </g>
        <g id="Group_209" data-name="Group 209" transform="translate(199.793 300.942)">
          <path id="Path_3938" data-name="Path 3938" d="M0,0,8.294,31.338" fill="none" stroke="#6f2b1f" stroke-linecap="round" stroke-width="3"/>
        </g>
        <g id="Group_210" data-name="Group 210" transform="translate(171.988 196.023)">
          <path id="Path_3939" data-name="Path 3939" d="M0,0,5.377,21.2" fill="none" stroke="#6f2b1f" stroke-linecap="round" stroke-width="3"/>
        </g>
        <g id="Group_211" data-name="Group 211" transform="translate(557.359 266.492)">
          <path id="Path_3940" data-name="Path 3940" d="M95.186,1.141l-97.9,63.7A112.667,112.667,0,0,0-51.4,140.994l-18.143,105.43a11.452,11.452,0,0,0,18.431,10.752L67.689,162.9a2.073,2.073,0,0,0,.7-1.034l44.13-147.925a11.451,11.451,0,0,0-17.336-12.8" transform="translate(69.697 0.835)" fill="#d4692d"/>
        </g>
        <g id="Group_212" data-name="Group 212" transform="translate(557.425 267.142)">
          <path id="Path_3941" data-name="Path 3941" d="M95.148.765l-97.9,63.7a112.667,112.667,0,0,0-48.691,76.15l-18.143,105.43c-1.62,10.307,20.792,20.986,20.792,20.986L67.651,162.52a2.073,2.073,0,0,0,.7-1.034L122.375,10.881S104.069-5.2,95.148.765Z" transform="translate(69.669 0.56)" fill="none" stroke="#272424" stroke-linecap="round" stroke-width="3"/>
        </g>
        <g id="Group_213" data-name="Group 213" transform="translate(571.205 275.633)">
          <path id="Path_3942" data-name="Path 3942" d="M95.185,1.141l-97.9,63.706A112.657,112.657,0,0,0-51.4,140.994l-18.143,105.43a11.452,11.452,0,0,0,18.431,10.752L67.691,162.9a2.069,2.069,0,0,0,.7-1.034L112.523,13.937a11.452,11.452,0,0,0-17.338-12.8" transform="translate(69.697 0.835)" fill="#e29e37"/>
        </g>
        <g id="Group_214" data-name="Group 214" transform="translate(601.415 289.677)">
          <path id="Path_3943" data-name="Path 3943" d="M2.648,83.617c13.582-8.6,27.646-16.342,41.66-24.2q35.12-19.705,70.067-39.805l23.011-77.131a2.871,2.871,0,0,0-4.317-3.227L45.051-3.474A99.135,99.135,0,0,0,17.235,24.493l0,0A99.34,99.34,0,0,0,1.908,64.133L-1.939,86.489Q.35,85.063,2.648,83.617" transform="translate(1.939 61.226)" fill="#f4d73a"/>
        </g>
        <g id="Group_215" data-name="Group 215" transform="translate(571.205 275.633)">
          <path id="Path_3944" data-name="Path 3944" d="M95.185,1.141l-97.9,63.706A112.657,112.657,0,0,0-51.4,140.994l-18.143,105.43a11.452,11.452,0,0,0,18.431,10.752L67.691,162.9a2.069,2.069,0,0,0,.7-1.034L112.523,13.937A11.452,11.452,0,0,0,95.185,1.141Z" transform="translate(69.697 0.835)" fill="none" stroke="#272424" stroke-linecap="round" stroke-width="3"/>
        </g>
        <g id="Group_216" data-name="Group 216" transform="translate(602.123 332.875)">
          <path id="Path_3945" data-name="Path 3945" d="M62.182.735S26.5-13.254-17.012,51.529-41.3,147.411-41.3,147.411l250.533,80.018s7.2-.587,15.323-12.891c7.618-11.538,4.653-17.362,4.653-17.362Z" transform="translate(45.531 0.538)" fill="#fff"/>
        </g>
        <g id="Group_217" data-name="Group 217" transform="translate(602.125 443.705)">
          <path id="Path_3946" data-name="Path 3946" d="M2.441,21.428l250.533,80.018s7.2-.587,15.323-12.891a40.613,40.613,0,0,0,2.91-5.155L-.066-15.69C-5.075,9.263,2.441,21.428,2.441,21.428" transform="translate(1.787 15.69)" fill="#e7e7e6"/>
        </g>
        <g id="Group_218" data-name="Group 218" transform="translate(650.208 366.932)">
          <path id="Path_3947" data-name="Path 3947" d="M48.28,0s-67,32.334-83.632,126.65" transform="translate(35.352)" fill="none" stroke="#272424" stroke-linecap="round" stroke-width="3"/>
        </g>
        <g id="Group_219" data-name="Group 219" transform="translate(702.984 407.174)">
          <path id="Path_3948" data-name="Path 3948" d="M39.608,0C20.992,13.134-14.266,44.946-29,104.824" transform="translate(29.002)" fill="none" stroke="#272424" stroke-linecap="round" stroke-width="3"/>
        </g>
        <g id="Group_220" data-name="Group 220" transform="translate(757.229 449.826)">
          <path id="Path_3949" data-name="Path 3949" d="M29.832,0C12.9,14.821-8.854,40.125-21.844,79.348" transform="translate(21.844)" fill="none" stroke="#272424" stroke-linecap="round" stroke-width="3"/>
        </g>
        <g id="Group_221" data-name="Group 221" transform="translate(812.551 494.624)">
          <path id="Path_3950" data-name="Path 3950" d="M19.5,0A179.783,179.783,0,0,0-14.282,52.549" transform="translate(14.282)" fill="none" stroke="#272424" stroke-linecap="round" stroke-width="3"/>
        </g>
        <g id="Group_222" data-name="Group 222" transform="translate(602.123 332.875)">
          <path id="Path_3951" data-name="Path 3951" d="M62.182.735S26.5-13.254-17.012,51.529-41.3,147.411-41.3,147.411l250.533,80.018s7.2-.587,15.323-12.891c7.618-11.538,4.653-17.362,4.653-17.362Z" transform="translate(45.531 0.538)" fill="none" stroke="#272424" stroke-linecap="round" stroke-width="3"/>
        </g>
        <g id="Group_223" data-name="Group 223" transform="translate(605.899 336.633)">
          <path id="Path_3952" data-name="Path 3952" d="M23.808,88.525c5.843-30.8,16.867-54.958,29.11-73.5,22-33.314,47.856-48.568,54.463-52.09L84.392-64.1c-5.214-1.322-36.42-6.335-74.021,49.642L9.2-12.7C-26.359,41.155-16.95,70.418-14.374,76.333Z" transform="translate(17.433 64.82)" fill="#d4692d"/>
        </g>
        <g id="Group_224" data-name="Group 224" transform="translate(817.795 500.276)">
          <path id="Path_3953" data-name="Path 3953" d="M0,25.522,39.285,38.07c1.535-.49,6.444-2.626,12.053-11.119C56.5,19.133,56.06,14.664,55.8,13.471L28.452-18.688A175.815,175.815,0,0,0,0,25.522" transform="translate(0 18.688)" fill="#d4692d"/>
        </g>
        <g id="Group_225" data-name="Group 225" transform="translate(707.505 412.013)">
          <path id="Path_3954" data-name="Path 3954" d="M0,56.14,47.482,71.3A191.149,191.149,0,0,1,68.175,29.393,177.156,177.156,0,0,1,95.868-3.272L63.7-41.107C44.835-27.171,14.173,2.677,0,56.14" transform="translate(0 41.107)" fill="#d4692d"/>
        </g>
        <g id="Group_226" data-name="Group 226" transform="translate(607.443 446.027)">
          <path id="Path_3955" data-name="Path 3955" d="M1.763,18.92,39.946,31.113a217.865,217.865,0,0,1,7.173-27.84L.233-13.854C-3.344,4.714.3,15.568,1.763,18.92" transform="translate(1.291 13.854)" fill="#aa402c"/>
        </g>
        <g id="Group_227" data-name="Group 227" transform="translate(817.796 525.501)">
          <path id="Path_3956" data-name="Path 3956" d="M22.679,18.2c1.533-.49,6.444-2.624,12.053-11.116A37.522,37.522,0,0,0,37.245,2.7L-6.625-13.329A181.387,181.387,0,0,0-16.606,5.656Z" transform="translate(16.606 13.329)" fill="#aa402c"/>
        </g>
        <g id="Group_228" data-name="Group 228" transform="translate(707.506 484.595)">
          <path id="Path_3957" data-name="Path 3957" d="M27.411,22.993A197.949,197.949,0,0,1,36.737.888L-11.784-16.836A198.137,198.137,0,0,0-20.071,7.829Z" transform="translate(20.071 16.836)" fill="#aa402c"/>
        </g>
        <g id="Group_229" data-name="Group 229" transform="translate(836.367 502.153)">
          <path id="Path_3958" data-name="Path 3958" d="M0,3.305l32.5,27L4.49-2.42C3-.506,1.524,1.417,0,3.305" transform="translate(0 2.42)" fill="#e8ad39"/>
        </g>
        <g id="Group_230" data-name="Group 230" transform="translate(743.862 411.33)">
          <path id="Path_3959" data-name="Path 3959" d="M33.278,25.888-5.105-18.956C-13.031-14.18-18.323-6.29-24.367.738l46.1,38.3c3.539-4.646,7.62-8.815,11.547-13.151" transform="translate(24.367 18.956)" fill="#e8ad39"/>
        </g>
        <g id="Group_231" data-name="Group 231" transform="translate(662.631 343.5)">
          <path id="Path_3960" data-name="Path 3960" d="M38.021,15.8,14.634-11.527c-27.272-1.074-42.474,20-42.474,20L9.3,39.328C18.232,30.956,26.2,19.92,38.021,15.8" transform="translate(27.84 11.567)" fill="#e8ad39"/>
        </g>
        <g id="Group_232" data-name="Group 232" transform="translate(602.123 332.875)">
          <path id="Path_3961" data-name="Path 3961" d="M62.182.735S26.5-13.254-17.012,51.529-41.3,147.411-41.3,147.411l250.533,80.018s7.2-.587,15.323-12.891c7.618-11.538,4.653-17.362,4.653-17.362Z" transform="translate(45.531 0.538)" fill="none" stroke="#272424" stroke-linecap="round" stroke-width="3"/>
        </g>
        <g id="Group_233" data-name="Group 233" transform="translate(650.208 366.932)">
          <path id="Path_3962" data-name="Path 3962" d="M48.28,0s-67,32.334-83.632,126.65" transform="translate(35.352)" fill="none" stroke="#272424" stroke-linecap="round" stroke-width="3"/>
        </g>
        <g id="Group_234" data-name="Group 234" transform="translate(702.984 407.174)">
          <path id="Path_3963" data-name="Path 3963" d="M39.608,0C20.992,13.134-14.266,44.946-29,104.824" transform="translate(29.002)" fill="none" stroke="#272424" stroke-linecap="round" stroke-width="3"/>
        </g>
        <g id="Group_235" data-name="Group 235" transform="translate(757.229 449.826)">
          <path id="Path_3964" data-name="Path 3964" d="M29.832,0C12.9,14.821-8.854,40.125-21.844,79.348" transform="translate(21.844)" fill="none" stroke="#272424" stroke-linecap="round" stroke-width="3"/>
        </g>
        <g id="Group_236" data-name="Group 236" transform="translate(812.551 494.624)">
          <path id="Path_3965" data-name="Path 3965" d="M19.5,0A179.783,179.783,0,0,0-14.282,52.549" transform="translate(14.282)" fill="none" stroke="#272424" stroke-linecap="round" stroke-width="3"/>
        </g>
        <g id="Group_237" data-name="Group 237" transform="translate(615.844 468.682)">
          <path id="Path_3966" data-name="Path 3966" d="M14.509,4.9l-25.133-8.5" transform="translate(10.624 3.591)" fill="none" stroke="#6f2b1f" stroke-linecap="round" stroke-width="3"/>
        </g>
        <g id="Group_238" data-name="Group 238" transform="translate(719.614 503.332)">
          <path id="Path_3967" data-name="Path 3967" d="M17.735,5.972-12.986-4.373" transform="translate(12.986 4.373)" fill="none" stroke="#6f2b1f" stroke-linecap="round" stroke-width="3"/>
        </g>
        <g id="Group_239" data-name="Group 239" transform="translate(832.556 541.093)">
          <path id="Path_3968" data-name="Path 3968" d="M11.923,4.154-8.73-3.042" transform="translate(8.73 3.042)" fill="none" stroke="#6f2b1f" stroke-linecap="round" stroke-width="3"/>
        </g>
      </g>
      <g id="Group_241" data-name="Group 241" transform="translate(0 -250.591)" clip-path="url(#clip-path)">
        <path id="Path_3970" data-name="Path 3970" d="M348.724-43.785H137.079V-107.6H348.724Z" transform="translate(187.209 445.877)" fill="#272424"/>
      </g>
      <text id="No_Result" data-name="No Result" transform="translate(334 133.051)" fill="#fff" font-size="42" font-family="MaipoSans-Heavy, Maipo Sans" font-weight="800"><tspan x="0" y="0">No Result</tspan></text>
    </g>
    <text id="Oops.." transform="translate(854 501)" fill="#2a2a2a" font-size="60" font-family="MaipoSans-Heavy, Maipo Sans" font-weight="800"><tspan x="0" y="0">Oops..</tspan></text>
  </g>
</svg>
