<svg xmlns="http://www.w3.org/2000/svg" width="481.403" height="258.6" viewBox="0 0 481.403 258.6">
  <g id="no-tags" transform="translate(-409.987 -243.64)">
    <g id="Group_196" data-name="Group 196" transform="translate(291.921 243.64)">
      <g id="Group_195" data-name="Group 195" transform="translate(118.066)">
        <path id="Path_3911" data-name="Path 3911" d="M427.892,250.482c22.9,5.219-24.451,13.769-61.105,5.767-43.729-9.545-91.277-9.148-97.007-.995-5.693,8.1,68.142,7.929,85.665,14.02,15.923,5.536-51.029,9.768-36.016,21.18,19.094,14.517,124.5,12.727,149.708,4.175,56.4-19.133,114.572-6.363,135.96-2.385,45.185,8.4,156.515-1.943,73.327-15.312-41.246-6.63-34.086-13.346-2.175-17.2,51.822-6.265,4.849-16.6-31.815-13.423-9.76.846-17.757,3.58-36.662,4.475-16.488.78-35.382-.916-37.81-3.548-6.11-6.628,51-11.571,45.829-17.334-7.638-8.518-79.436-9.977-84.783-1.227-5.835,9.549-28.907,13.556-65.572,10.374-27.5-2.385-49.951-1.19-58.167,2.885C399.249,245.91,418.725,248.395,427.892,250.482Z" transform="translate(-248.611 -77.672)" fill="#313444"/>
        <g id="Group_188" data-name="Group 188" transform="translate(59.478)">
          <g id="Group_184" data-name="Group 184" transform="translate(0 21.056)">
            <g id="Group_181" data-name="Group 181" transform="translate(14.532)">
              <rect id="Rectangle_268" data-name="Rectangle 268" width="16.6" height="205.814" transform="translate(11.966)" fill="#c9c8cd"/>
              <rect id="Rectangle_269" data-name="Rectangle 269" width="16.6" height="205.814" transform="translate(304.099)" fill="#c9c8cd"/>
              <rect id="Rectangle_270" data-name="Rectangle 270" width="40.531" height="9.41" transform="translate(0 198.888)" fill="#848489"/>
              <rect id="Rectangle_271" data-name="Rectangle 271" width="40.531" height="9.41" transform="translate(292.134 198.888)" fill="#848489"/>
            </g>
            <g id="Group_183" data-name="Group 183">
              <g id="Group_182" data-name="Group 182">
                <rect id="Rectangle_272" data-name="Rectangle 272" width="361.736" height="45.084" fill="#ff7300"/>
                <rect id="Rectangle_273" data-name="Rectangle 273" width="361.736" height="45.084" transform="translate(0 72.565)" fill="#ff7300"/>
                <path id="Path_3912" data-name="Path 3912" d="M431.892,164.422l12.509,22.55,12.488,22.534h27.487l-12.488-22.534-12.509-22.55Z" transform="translate(-125.226 -164.422)" fill="#fff"/>
                <path id="Path_3913" data-name="Path 3913" d="M433.313,198.556l12.354,22.55,12.355,22.534H485.15L472.8,221.106l-12.355-22.55Z" transform="translate(-123.625 -125.991)" fill="#fff"/>
                <path id="Path_3914" data-name="Path 3914" d="M393.609,164.422l14.034,22.55,14.012,22.534h30.862l-14.035-22.534-14.034-22.55Z" transform="translate(-168.326 -164.422)" fill="#fff"/>
                <path id="Path_3915" data-name="Path 3915" d="M397.019,198.556l12.874,22.55,12.873,22.534h28.288l-12.873-22.534-12.894-22.55Z" transform="translate(-164.487 -125.991)" fill="#fff"/>
                <path id="Path_3916" data-name="Path 3916" d="M359.889,164.422l13.249,22.55,13.227,22.534H415.5l-13.227-22.534-13.249-22.55Z" transform="translate(-206.289 -164.422)" fill="#fff"/>
                <path id="Path_3917" data-name="Path 3917" d="M363.154,198.556l12.162,22.55,12.162,22.534h26.745l-12.162-22.534L389.9,198.556Z" transform="translate(-202.613 -125.991)" fill="#fff"/>
                <path id="Path_3918" data-name="Path 3918" d="M326.5,164.422l12.3,22.55,12.277,22.534h27.061l-12.3-22.534-12.3-22.55Z" transform="translate(-243.88 -164.422)" fill="#fff"/>
                <path id="Path_3919" data-name="Path 3919" d="M326.632,198.556l12.8,22.55,12.8,22.534h28.128l-12.8-22.534-12.822-22.55Z" transform="translate(-243.732 -125.991)" fill="#fff"/>
                <path id="Path_3920" data-name="Path 3920" d="M291.572,198.556l12.8,22.55,12.8,22.534H345.3l-12.8-22.534-12.821-22.55Z" transform="translate(-283.204 -125.991)" fill="#fff"/>
                <path id="Path_3921" data-name="Path 3921" d="M292.237,164.422l11.791,22.55L315.8,209.506h25.929l-11.772-22.534-11.791-22.55Z" transform="translate(-282.455 -164.422)" fill="#fff"/>
              </g>
            </g>
          </g>
          <g id="Group_187" data-name="Group 187" transform="translate(94.024)">
            <path id="Path_3922" data-name="Path 3922" d="M501.412,279.878,430.825,161.97a15.249,15.249,0,0,0-26.212,0L334.055,279.878A15.283,15.283,0,0,0,347.176,303H488.291A15.284,15.284,0,0,0,501.412,279.878Z" transform="translate(-331.865 -154.517)" fill="#ffce00"/>
            <g id="Group_185" data-name="Group 185" transform="translate(7.002 6.21)">
              <path id="Path_3923" data-name="Path 3923" d="M483.373,292.3H344.666a9.488,9.488,0,0,1-8.142-14.364l69.354-115.884a9.49,9.49,0,0,1,16.284,0l69.354,115.884a9.492,9.492,0,0,1-8.142,14.364Zm-69.354-129.2a3.742,3.742,0,0,0-3.28,1.858L341.386,280.848a3.823,3.823,0,0,0,3.28,5.787H483.373a3.823,3.823,0,0,0,3.278-5.787L417.3,164.963A3.742,3.742,0,0,0,414.02,163.106Z" transform="translate(-335.159 -157.438)" fill="#232321"/>
            </g>
            <g id="Group_186" data-name="Group 186" transform="translate(78.678 35.845)">
              <path id="Path_3924" data-name="Path 3924" d="M375.4,171.407a7.389,7.389,0,0,0-6.507,7.825l3.2,54.551a3.964,3.964,0,0,0,7.919,0l3.216-54.866A7.186,7.186,0,0,0,375.4,171.407Z" transform="translate(-368.866 -171.378)" fill="#232321"/>
              <path id="Path_3925" data-name="Path 3925" d="M383.244,212.969a7.184,7.184,0,1,1-7.183-7.185A7.184,7.184,0,0,1,383.244,212.969Z" transform="translate(-368.875 -132.643)" fill="#232321"/>
            </g>
          </g>
        </g>
        <g id="Group_191" data-name="Group 191" transform="translate(0 98.957)">
          <path id="Path_3926" data-name="Path 3926" d="M320.533,267.31c0,1.811-13.629,3.28-30.438,3.28s-30.438-1.469-30.438-3.28,13.627-3.278,30.438-3.278S320.533,265.5,320.533,267.31Z" transform="translate(-259.657 -130.177)" fill="#cecece"/>
          <g id="Group_190" data-name="Group 190" transform="translate(17.6)">
            <rect id="Rectangle_274" data-name="Rectangle 274" width="35.74" height="9.829" transform="translate(37.705 46.19) rotate(-68.533)" fill="#b3b3b3"/>
            <path id="Path_3927" data-name="Path 3927" d="M288.179,221.887l17,6.682c24.179,9.337,27.823,16.005,29.383,11.8,2-5.391,5.612-17.572-22.443-29.122l-17-6.681a2.435,2.435,0,0,0-3.165,1.354l-5.13,12.8A2.437,2.437,0,0,0,288.179,221.887Z" transform="translate(-246.87 -197.32)" fill="#9a9896"/>
            <rect id="Rectangle_275" data-name="Rectangle 275" width="14.07" height="2.973" transform="translate(37.087 20.559) rotate(-68.16)" fill="#b3b3b3"/>
            <rect id="Rectangle_276" data-name="Rectangle 276" width="99.963" height="15.571" rx="3.376" transform="translate(0 134.585) rotate(-68.595)" fill="#f5a200"/>
            <path id="Rectangle_277" data-name="Rectangle 277" d="M2.239,0H8.086a2.238,2.238,0,0,1,2.238,2.238V24.407a2.239,2.239,0,0,1-2.239,2.239H2.239A2.239,2.239,0,0,1,0,24.407V2.239A2.239,2.239,0,0,1,2.239,0Z" transform="translate(27.72 48.691) rotate(-68.599)" fill="#d98400"/>
            <rect id="Rectangle_278" data-name="Rectangle 278" width="23.209" height="9.823" rx="2.13" transform="matrix(0.365, -0.931, 0.931, 0.365, 26.762, 21.607)" fill="#9a9896"/>
            <g id="Group_189" data-name="Group 189" transform="translate(4.558 58.352)">
              <rect id="Rectangle_279" data-name="Rectangle 279" width="77.629" height="1.335" rx="0.289" transform="translate(0 72.282) rotate(-68.61)" fill="#d98400"/>
              <rect id="Rectangle_280" data-name="Rectangle 280" width="77.629" height="1.335" rx="0.289" transform="translate(4.029 73.861) rotate(-68.61)" fill="#d98400"/>
              <path id="Rectangle_281" data-name="Rectangle 281" d="M.289,0h77.05a.29.29,0,0,1,.29.29v.756a.289.289,0,0,1-.289.289H.289A.289.289,0,0,1,0,1.045V.289A.289.289,0,0,1,.289,0Z" transform="translate(8.078 75.447) rotate(-68.569)" fill="#d98400"/>
            </g>
          </g>
        </g>
        <g id="Group_194" data-name="Group 194" transform="translate(360.05 114.249)">
          <path id="Path_3928" data-name="Path 3928" d="M521.949,279.175c0,1.775-13.359,3.214-29.838,3.214s-29.841-1.439-29.841-3.214,13.361-3.214,29.841-3.214S521.949,277.4,521.949,279.175Z" transform="translate(-400.596 -138.039)" fill="#cecece"/>
          <g id="Group_193" data-name="Group 193">
            <rect id="Rectangle_282" data-name="Rectangle 282" width="11.851" height="20.739" transform="matrix(0.798, -0.603, 0.603, 0.798, 50.695, 73.619)" fill="#6e6e6e"/>
            <path id="Rectangle_283" data-name="Rectangle 283" d="M2.284,0h9.908a2.285,2.285,0,0,1,2.285,2.285V86.7a2.285,2.285,0,0,1-2.285,2.285H2.285A2.285,2.285,0,0,1,0,86.7V2.284A2.284,2.284,0,0,1,2.284,0Z" transform="matrix(0.798, -0.603, 0.603, 0.798, 0, 8.73)" fill="#f5a200"/>
            <rect id="Rectangle_284" data-name="Rectangle 284" width="32.264" height="12.502" rx="2.585" transform="translate(40.016 76.418) rotate(-37.086)" fill="#d98400"/>
            <path id="Path_3929" data-name="Path 3929" d="M451.738,281.755l53.714-40.6,20.869,27.608c4.466,5.91,2.43,39.184-7.124,46.407s-41.475.963-47.16-6.556S451.738,281.755,451.738,281.755Z" transform="translate(-412.454 -177.227)" fill="#9a9896"/>
            <path id="Path_3930" data-name="Path 3930" d="M458.93,257.694l-7.192,5.438s14.615,19.339,20.3,26.858,37.6,13.778,47.16,6.556c5.491-4.152,8.495-16.907,9.211-28.129C505.265,266.017,482.021,261.665,458.93,257.694Z" transform="translate(-412.454 -158.604)" fill="#8d8b8a"/>
            <g id="Group_192" data-name="Group 192" transform="translate(5.355 5.734)">
              <path id="Path_3931" data-name="Path 3931" d="M439.254,213.932h0a.6.6,0,0,1,.835.03L481.325,269a.6.6,0,0,1-.2.81h0a.6.6,0,0,1-.833-.03L439.05,214.744A.6.6,0,0,1,439.254,213.932Z" transform="translate(-432.191 -213.779)" fill="#d98400"/>
              <path id="Path_3932" data-name="Path 3932" d="M437.67,215.123h0a.6.6,0,0,1,.835.03l41.235,55.036a.6.6,0,0,1-.2.81h0a.6.6,0,0,1-.833-.03l-41.237-55.036A.6.6,0,0,1,437.67,215.123Z" transform="translate(-433.974 -212.439)" fill="#d98400"/>
              <path id="Path_3933" data-name="Path 3933" d="M436.07,216.325h0a.6.6,0,0,1,.833.032l41.237,55.036a.6.6,0,0,1-.2.81h0a.6.6,0,0,1-.836-.03l-41.235-55.036A.6.6,0,0,1,436.07,216.325Z" transform="translate(-435.777 -211.084)" fill="#d98400"/>
            </g>
          </g>
        </g>
      </g>
    </g>
  </g>
</svg>
