<svg xmlns="http://www.w3.org/2000/svg" width="240.708" height="225.258" viewBox="0 0 240.708 225.258">
  <g id="presentation" transform="translate(0 -11.502)">
    <g id="Group_206" data-name="Group 206" transform="translate(0 11.502)">
      <g id="Group_205" data-name="Group 205">
        <path id="Path_3940" data-name="Path 3940" d="M225.287,22.732H123.21V16.785a5.283,5.283,0,0,0-10.566,0v5.947H10.567A10.579,10.579,0,0,0,0,33.3v9.8A10.579,10.579,0,0,0,10.567,53.67H12V172.424A10.579,10.579,0,0,0,22.57,182.991h90.074l5.283,7.631L73.492,227.216a5.283,5.283,0,1,0,6.25,8.521l32.9-29.122v24.862a5.283,5.283,0,0,0,10.566,0V206.615l32.9,29.122a5.283,5.283,0,1,0,6.25-8.52l-44.435-36.595-5.283-7.631H213.285a10.579,10.579,0,0,0,10.567-10.567V53.67h1.436A10.579,10.579,0,0,0,235.854,43.1V33.3A10.579,10.579,0,0,0,225.287,22.732Zm-12,149.691H22.57V43.1H213.285v129.32Zm12-129.32s41.677,0-12,0H10.567V33.3H225.288v9.8Z" transform="translate(0 -11.502)"/>
      </g>
    </g>
  </g>
</svg>
