<svg id="Group_63" data-name="Group 63" xmlns="http://www.w3.org/2000/svg" width="75.001" height="75.001" viewBox="0 0 75.001 75.001">
  <path id="Subtraction_10" data-name="Subtraction 10" d="M37.5,0A37.51,37.51,0,0,0,22.9,72.054,37.51,37.51,0,0,0,52.1,2.947,37.266,37.266,0,0,0,37.5,0ZM26.745,61.881h0a53.4,53.4,0,0,0,4.89-7.577A46.9,46.9,0,0,0,35,46.5a29.717,29.717,0,0,0,1.528-9.005A30.418,30.418,0,0,0,35,28.412a49.4,49.4,0,0,0-3.362-7.969,57.312,57.312,0,0,0-4.89-7.813L51.369,37.255,26.744,61.881Z" transform="translate(75.001 75.001) rotate(180)" fill="#454e56"/>
</svg>
