<svg xmlns="http://www.w3.org/2000/svg" width="59.953" height="59.391" viewBox="0 0 59.953 59.391">
  <g id="benutzerschattenbild" transform="translate(0.001 -1.916)">
    <g id="Group_20" data-name="Group 20" transform="translate(-0.001 1.916)">
      <path id="Path_33" data-name="Path 33" d="M126.285,33.383c7.424,0,13.442-7.044,13.442-15.734,0-12.05-6.018-15.733-13.442-15.733S112.843,5.6,112.843,17.649C112.843,26.339,118.861,33.383,126.285,33.383Z" transform="translate(-96.309 -1.916)" fill="#b2becd"/>
      <path id="Path_34" data-name="Path 34" d="M59.659,243.867,52.877,228.59a3.4,3.4,0,0,0-1.533-1.632l-10.525-5.479a.678.678,0,0,0-.722.061,16.6,16.6,0,0,1-20.243,0,.679.679,0,0,0-.722-.061L8.608,226.958a3.4,3.4,0,0,0-1.533,1.632L.293,243.867a3.391,3.391,0,0,0,3.1,4.767H56.56a3.391,3.391,0,0,0,3.1-4.767Z" transform="translate(0.001 -189.242)" fill="#b2becd"/>
    </g>
  </g>
</svg>
