<svg id="profile" xmlns="http://www.w3.org/2000/svg" width="283.563" height="283.563" viewBox="0 0 283.563 283.563">
  <path id="Path_3941" data-name="Path 3941" d="M207.462,154.924A7.462,7.462,0,1,0,200,147.462,7.465,7.465,0,0,0,207.462,154.924Zm0,0" transform="translate(-50.757 -35.53)"/>
  <path id="Path_3942" data-name="Path 3942" d="M167.462,154.924A7.462,7.462,0,1,0,160,147.462,7.465,7.465,0,0,0,167.462,154.924Zm0,0" transform="translate(-40.605 -35.53)"/>
  <path id="Path_3944" data-name="Path 3944" d="M283.563,141.781C283.563,63.6,219.959,0,141.781,0S0,63.6,0,141.781c0,77.525,63.035,141.781,141.781,141.781C220.183,283.563,283.563,219.7,283.563,141.781ZM141.781,268.638a126.035,126.035,0,0,1-66.212-18.69,67.157,67.157,0,0,1,132.424,0A126.035,126.035,0,0,1,141.781,268.638ZM89.546,126.857a52.235,52.235,0,1,1,52.235,52.235A52.295,52.295,0,0,1,89.546,126.857ZM221.253,240.588A82.156,82.156,0,0,0,174.1,185.712a67.16,67.16,0,1,0-64.641,0,82.149,82.149,0,0,0-47.152,54.876,126.857,126.857,0,1,1,158.944,0Zm0,0"/>
  <path id="Path_3946" data-name="Path 3946" d="M196.11,190.467a22.406,22.406,0,0,1-31.65,0A7.463,7.463,0,1,0,153.9,201.019a37.34,37.34,0,0,0,52.766,0,7.463,7.463,0,0,0-10.558-10.552Zm0,0" transform="translate(-38.504 -47.782)"/>
</svg>
