<svg xmlns="http://www.w3.org/2000/svg" width="53.026" height="49.661" viewBox="0 0 53.026 49.661">
  <g id="moon" transform="translate(0 -12.156)">
    <g id="Group_24" data-name="Group 24" transform="translate(22.665 19.966)">
      <g id="Group_23" data-name="Group 23">
        <path id="Path_36" data-name="Path 36" d="M172.5,76.267a1.229,1.229,0,0,0-.852-.266H166.96l4.373-4.882.41-.454.266-.321a1.481,1.481,0,0,0,.177-.332,1.107,1.107,0,0,0,.077-.4.83.83,0,0,0-.41-.8,2.481,2.481,0,0,0-1.162-.221H165.2a1.2,1.2,0,0,0-.808.244.819.819,0,0,0-.288.653c0,.376.122.6.376.686a3.579,3.579,0,0,0,1.107.133h3.543q-.221.31-.587.731l-.919,1.041-1.2,1.328L165,74.994c-.5.554-.819.93-.974,1.107a1.041,1.041,0,0,0,.1,1.428,1.505,1.505,0,0,0,1.041.332h6.465a1.262,1.262,0,0,0,.863-.255.842.842,0,0,0,.288-.653A.885.885,0,0,0,172.5,76.267Z" transform="translate(-163.789 -68.592)" fill="#454e56"/>
      </g>
    </g>
    <g id="Group_26" data-name="Group 26" transform="translate(34.263 27.073)">
      <g id="Group_25" data-name="Group 25">
        <path id="Path_37" data-name="Path 37" d="M254.469,126.091a.974.974,0,0,0-.686-.21h-3.72l3.487-3.9.332-.365.21-.255a1.183,1.183,0,0,0,.144-.266.909.909,0,0,0,.066-.321.664.664,0,0,0-.321-.642,1.971,1.971,0,0,0-.93-.177h-4.34a.963.963,0,0,0-.642.2.653.653,0,0,0-.232.52c0,.3.1.476.3.554a2.79,2.79,0,0,0,.886.111h2.79c-.122.166-.277.354-.465.587l-.731.83-.952,1.107-1.107,1.262q-.6.664-.786.908a.83.83,0,0,0,.078,1.107,1.2,1.2,0,0,0,.786.21h5.159a1.008,1.008,0,0,0,.686-.2.675.675,0,0,0,.221-.52A.708.708,0,0,0,254.469,126.091Z" transform="translate(-247.596 -119.955)" fill="#454e56"/>
      </g>
    </g>
    <g id="Group_28" data-name="Group 28" transform="translate(44.057 19.269)">
      <g id="Group_27" data-name="Group 27">
        <path id="Path_38" data-name="Path 38" d="M327.056,71.309a1.229,1.229,0,0,0-.852-.266h-4.672l4.373-4.882.4-.5.266-.321a1.514,1.514,0,0,0,.177-.332,1.107,1.107,0,0,0,.077-.4.83.83,0,0,0-.41-.8,2.49,2.49,0,0,0-1.218-.255h-5.425a1.2,1.2,0,0,0-.808.244.819.819,0,0,0-.288.653c0,.376.122.6.376.686a3.587,3.587,0,0,0,1.107.133H323.7q-.221.31-.576.731l-.919,1.041-1.2,1.328-1.428,1.583c-.5.554-.819.93-.974,1.107a1.018,1.018,0,0,0-.232.62,1.03,1.03,0,0,0,.332.808,1.506,1.506,0,0,0,1.018.3h6.465a1.262,1.262,0,0,0,.863-.255.842.842,0,0,0,.288-.653A.885.885,0,0,0,327.056,71.309Z" transform="translate(-318.375 -63.557)" fill="#454e56"/>
      </g>
    </g>
    <g id="Group_30" data-name="Group 30" transform="translate(0 12.156)">
      <g id="Group_29" data-name="Group 29">
        <path id="Path_39" data-name="Path 39" d="M48.59,45.418a1.107,1.107,0,0,0-.9-.02H47.7A23.514,23.514,0,0,1,17.4,13.736a1.107,1.107,0,0,0-1.428-1.495A25.75,25.75,0,1,0,49.118,46.892,1.107,1.107,0,0,0,48.59,45.418Z" transform="translate(0 -12.156)" fill="#454e56"/>
      </g>
    </g>
  </g>
</svg>
