<svg xmlns="http://www.w3.org/2000/svg" width="50" height="50" viewBox="0 0 50 50">
  <g id="slack-1" transform="translate(0 -0.079)">
    <path id="Path_42" data-name="Path 42" d="M129.907,3.171A4.289,4.289,0,0,0,124.466.3a4.506,4.506,0,0,0-2.772,5.634l11.166,35.575a4.287,4.287,0,0,0,5.253,2.773,4.458,4.458,0,0,0,2.958-5.535L129.907,3.171" transform="translate(-96.947 0)" fill="#dfa22f"/>
    <path id="Path_43" data-name="Path 43" d="M38.567,32.848a4.29,4.29,0,0,0-5.442-2.871,4.506,4.506,0,0,0-2.773,5.635L41.519,71.188a4.287,4.287,0,0,0,5.253,2.772,4.458,4.458,0,0,0,2.958-5.535L38.567,32.848" transform="translate(-24.431 -24.056)" fill="#3cb187"/>
    <path id="Path_44" data-name="Path 44" d="M70.965,129.988a4.289,4.289,0,0,0,2.871-5.442,4.507,4.507,0,0,0-5.635-2.772L32.626,132.94a4.287,4.287,0,0,0-2.773,5.253,4.458,4.458,0,0,0,5.535,2.958l35.577-11.163" transform="translate(-24.056 -96.948)" fill="#ce1e5b"/>
    <path id="Path_45" data-name="Path 45" d="M71.088,170.714l8.211-2.668-2.668-8.212L68.419,162.5l2.669,8.211" transform="translate(-54.934 -128.268)" fill="#392538"/>
    <path id="Path_46" data-name="Path 46" d="M162.426,141.029l8.211-2.668-2.669-8.214-8.212,2.669,2.669,8.212" transform="translate(-128.27 -104.432)" fill="#bb242a"/>
    <path id="Path_47" data-name="Path 47" d="M41.287,38.648a4.289,4.289,0,0,0,2.871-5.442,4.507,4.507,0,0,0-5.635-2.772L2.948,41.6A4.286,4.286,0,0,0,.176,46.853a4.458,4.458,0,0,0,5.535,2.958L41.287,38.648" transform="translate(0 -24.432)" fill="#72c5cd"/>
    <path id="Path_48" data-name="Path 48" d="M41.4,79.375l8.212-2.668-2.668-8.212-8.214,2.669L41.4,79.375" transform="translate(-31.098 -54.931)" fill="#248c73"/>
    <path id="Path_49" data-name="Path 49" d="M132.739,49.681l8.213-2.669q-1.328-4.106-2.667-8.216l-8.215,2.672,2.669,8.213" transform="translate(-104.434 -31.086)" fill="#62803a"/>
  </g>
</svg>
