<svg xmlns="http://www.w3.org/2000/svg" width="1013.146" height="853.4" viewBox="0 0 1013.146 853.4">
  <g id="snorlax" transform="translate(-12.202 -22.029)">
    <g id="Group_72" data-name="Group 72" transform="translate(30.564 41.935)">
      <g id="Group_67" data-name="Group 67">
        <g id="Group_64" data-name="Group 64" transform="translate(12.383 12.202)">
          <path id="Path_77" data-name="Path 77" d="M56.477,15.283C-.849,94.029-12.857,201.418,34.879,293.871c47.727,92.5,142.206,144.883,239.638,143.809,57.327-78.778,69.326-186.135,21.59-278.62S153.917,14.185,56.477,15.283Z" transform="translate(-5.279 -15.266)" fill="#0d5c9e"/>
        </g>
        <g id="Group_65" data-name="Group 65" transform="translate(63.581 12.194)">
          <path id="Path_78" data-name="Path 78" d="M229.613,437.679c57.327-78.778,69.326-186.135,21.59-278.62C203.467,66.589,109.013,14.184,11.573,15.282" transform="translate(-11.573 -15.265)" fill="#009be8"/>
        </g>
      </g>
      <g id="Group_71" data-name="Group 71" transform="translate(631.233 0)">
        <g id="Group_68" data-name="Group 68" transform="translate(12.375 12.202)">
          <path id="Path_80" data-name="Path 80" d="M352.107,15.283c57.327,78.746,69.334,186.135,21.6,278.588-47.727,92.5-142.2,144.883-239.638,143.809C76.74,358.9,64.741,251.545,112.477,159.059S254.667,14.185,352.107,15.283Z" transform="translate(-82.874 -15.266)" fill="#0d5c9e"/>
        </g>
        <g id="Group_69" data-name="Group 69" transform="translate(12.375 12.194)">
          <path id="Path_81" data-name="Path 81" d="M134.067,437.679C76.74,358.9,64.741,251.544,112.477,159.058c47.736-92.469,142.19-144.875,239.63-143.776" transform="translate(-82.874 -15.265)" fill="#009be8"/>
        </g>
      </g>
    </g>
    <g id="Group_86" data-name="Group 86" transform="translate(0 9.818)">
      <g id="Group_84" data-name="Group 84">
        <g id="Group_83" data-name="Group 83">
          <g id="Group_82" data-name="Group 82">
            <g id="Group_81" data-name="Group 81">
              <g id="Group_73" data-name="Group 73" transform="translate(12.202 12.21)">
                <path id="Path_83" data-name="Path 83" d="M1014.645,479.279c0,212.858-226.8,385.44-506.569,385.44S1.5,692.137,1.5,479.279c0-212.874,226.8-467.96,506.569-467.96S1014.645,266.405,1014.645,479.279Z" transform="translate(-1.5 -11.319)" fill="#009be8"/>
              </g>
              <g id="Group_74" data-name="Group 74" transform="translate(12.202 120.616)">
                <path id="Path_84" data-name="Path 84" d="M1014.645,384.2c0,212.858-226.8,385.44-506.569,385.44S1.5,597.058,1.5,384.2C1.5,171.326,228.3,24.645,508.069,24.645S1014.645,171.325,1014.645,384.2Z" transform="translate(-1.5 -24.645)" fill="#0d5c9e"/>
              </g>
              <g id="Group_75" data-name="Group 75" transform="translate(12.202 417.947)">
                <path id="Path_85" data-name="Path 85" d="M1014.645,123.419c0,212.858-226.8,385.44-506.569,385.44S1.5,336.277,1.5,123.419c0-212.89,64.453,188.8,506.569,188.8S1014.645-89.472,1014.645,123.419Z" transform="translate(-1.5 -61.195)" fill="#063b66"/>
              </g>
              <g id="Group_76" data-name="Group 76" transform="translate(49.753 233.659)">
                <path id="Path_86" data-name="Path 86" d="M622.449,38.541,475.134,185.856,327.827,38.541C140.985,67.428,6.116,155.684,6.116,313.615c0,197.084,209.978,356.87,469.018,356.87s469.018-159.794,469.018-356.87C944.16,155.7,809.291,67.428,622.449,38.541Z" transform="translate(-6.116 -38.541)" fill="#f4d7b8"/>
              </g>
              <g id="Group_77" data-name="Group 77" transform="translate(189.999 233.659)">
                <path id="Path_87" data-name="Path 87" d="M680.9,95.355C630.261,67.981,568.411,49.2,499.435,38.541L352.128,185.856,204.821,38.541C135.845,49.206,74,67.981,23.356,95.355c84.636,63.314,200.68,102.435,328.772,102.435S596.265,158.677,680.9,95.355Z" transform="translate(-23.356 -38.541)" fill="#fce6c8"/>
              </g>
              <g id="Group_78" data-name="Group 78" transform="translate(49.753 447.818)">
                <path id="Path_88" data-name="Path 88" d="M944.16,125.781a246.169,246.169,0,0,0-7.452-60.914c-58.352,66.544-187.249,221.156-461.566,221.156S71.919,131.411,13.568,64.867a245.784,245.784,0,0,0-7.452,60.914c0,190.918,197.068,346.848,444.874,356.4,8,.285,16.05.48,24.144.48s16.132-.187,24.144-.48C747.092,472.629,944.16,316.7,944.16,125.781Z" transform="translate(-6.116 -64.867)" fill="#eac79d"/>
              </g>
            </g>
          </g>
        </g>
      </g>
      <g id="Group_85" data-name="Group 85" transform="translate(417.768 548.854)">
        <path id="Path_91" data-name="Path 91" d="M253.361,115.8c0,21.257-45.222,9.323-101,9.323s-101,11.934-101-9.323,45.222-38.511,101-38.511S253.361,94.541,253.361,115.8Z" transform="translate(-51.355 -77.287)" fill="#fce6c8"/>
      </g>
    </g>
    <g id="Group_90" data-name="Group 90" transform="translate(280.435 445.153)">
      <g id="Group_89" data-name="Group 89">
        <g id="Group_87" data-name="Group 87" transform="translate(0 0.002)">
          <path id="Path_92" data-name="Path 92" d="M190.134,144.488a12.217,12.217,0,0,1-11.495-8.1c-8.4-23.559-24.982-38.812-49.289-45.311-22.623-6.061-50.518-3.872-78.567,6.142a12.205,12.205,0,0,1-8.208-22.989C75.245,62.57,108.3,60.17,135.655,67.5c32.068,8.582,54.878,29.57,65.974,60.695a12.206,12.206,0,0,1-7.4,15.595A12.4,12.4,0,0,1,190.134,144.488Z" transform="translate(-34.473 -63.333)" fill="#33363a"/>
        </g>
        <g id="Group_88" data-name="Group 88" transform="translate(308.805)">
          <path id="Path_93" data-name="Path 93" d="M84.639,144.49a12.084,12.084,0,0,1-4.1-.708,12.209,12.209,0,0,1-7.395-15.595c11.1-31.124,33.914-52.112,65.982-60.695,27.35-7.321,60.41-4.922,93.08,6.728A12.205,12.205,0,0,1,224,97.21C195.949,87.2,168.047,85,145.432,91.069c-24.315,6.508-40.9,21.753-49.3,45.311A12.221,12.221,0,0,1,84.639,144.49Z" transform="translate(-72.434 -63.332)" fill="#33363a"/>
        </g>
      </g>
      <path id="Path_94" data-name="Path 94" d="M391.357,86.558a12.19,12.19,0,0,0-3.23-1.09l-28.586-4.9a12.077,12.077,0,0,0-9.111,2.066,12.225,12.225,0,0,0-4.979,7.915l-4.726,27.708c-26.268,7.687-66.234,14.269-119.038,14.269s-92.77-6.589-119.038-14.269L97.922,90.552a12.2,12.2,0,0,0-14.09-9.982l-28.586,4.9a11.9,11.9,0,0,0-3.23,1.09,12.174,12.174,0,0,0-10.38,12.015c0,40.1,93.332,58.36,180.042,58.36S401.72,138.67,401.72,98.573A12.138,12.138,0,0,0,391.357,86.558ZM76.162,108.034c-.675-.374-1.171-.724-1.79-1.082l1.554-.268Zm291.3-1.35,1.554.268c-.61.366-1.106.716-1.79,1.082Z" transform="translate(16.641 58.337)" fill="#33363a"/>
    </g>
  </g>
</svg>
