<svg xmlns="http://www.w3.org/2000/svg" width="64.009" height="50.06" viewBox="0 0 64.009 50.06">
  <g id="tag" transform="translate(0 -53.064)">
    <path id="Path_32" data-name="Path 32" d="M17.265,101.684a4.919,4.919,0,0,0,6.953,0l23.8-23.8a6.971,6.971,0,0,0,1.551-2.366,25.027,25.027,0,0,0,6.769,1.012c5.074-.026,6.756-2.248,7.308-3.575s.946-4.075-2.616-7.7l-.118-.118a28.458,28.458,0,0,0-9.056-5.757c-.67-.276-1.341-.526-2-.762v-.039a5.381,5.381,0,0,0-5.31-5.31l-14.261-.2a6.936,6.936,0,0,0-5.034,2.05L1.439,78.919a4.919,4.919,0,0,0,0,6.953Zm18.349-40.1a4.066,4.066,0,0,1,6.9,3.47,28.373,28.373,0,0,0,5.428,2.957c.71.289,1.393.552,2.05.775l-.079-5.731c.118.053.223.092.342.145a24.775,24.775,0,0,1,7.716,4.863l.079.079c1.709,1.748,1.893,2.865,1.748,3.207-.447,1.065-5.244,2.011-12.526-1.025a28.112,28.112,0,0,1-5.744-3.194c-.053.066-.118.131-.171.2a4.062,4.062,0,1,1-5.744-5.744Z" transform="translate(0 0)" fill="#b2becd"/>
  </g>
</svg>
