<svg xmlns="http://www.w3.org/2000/svg" width="511.987" height="512" viewBox="0 0 511.987 512">
  <g id="tag" transform="translate(-0.006)">
    <g id="Group_204" data-name="Group 204">
      <g id="Group_203" data-name="Group 203">
        <g id="Group_202" data-name="Group 202">
          <path id="Path_3938" data-name="Path 3938" d="M503.981,273.84,238.166,8.026A27.224,27.224,0,0,0,218.79,0H27.408A27.432,27.432,0,0,0,.006,27.4V218.783a27.224,27.224,0,0,0,8.026,19.376L273.847,503.974a27.4,27.4,0,0,0,38.751,0L503.98,312.592A27.434,27.434,0,0,0,503.981,273.84Zm-14.425,24.328L298.174,489.549a7,7,0,0,1-9.9,0L22.457,223.735a6.951,6.951,0,0,1-2.052-4.952V27.4a7.011,7.011,0,0,1,7-7H218.789a6.955,6.955,0,0,1,4.953,2.052L489.557,288.265a7,7,0,0,1,0,9.9Z"/>
          <path id="Path_3939" data-name="Path 3939" d="M61.107,61.1a48.363,48.363,0,1,0,68.394,0A48.419,48.419,0,0,0,61.107,61.1Zm48.7,48.7a20.517,20.517,0,1,1,6.01-14.509A20.385,20.385,0,0,1,109.812,109.808Z" transform="translate(7.071 7.071)"/>
        </g>
      </g>
    </g>
  </g>
</svg>
