<svg xmlns="http://www.w3.org/2000/svg" width="55.017" height="44.792" viewBox="0 0 55.017 44.792">
  <g id="twitter" transform="translate(404.952 175.197)">
    <path id="Path_50" data-name="Path 50" d="M36.426.01V0h2.556l.934.187a9.991,9.991,0,0,1,1.7.477,12.064,12.064,0,0,1,1.475.688,14.024,14.024,0,0,1,1.293.8,7.957,7.957,0,0,1,1.032.855,1.432,1.432,0,0,0,1.411.236,18.87,18.87,0,0,0,2.065-.614q1.106-.393,2.188-.885t1.318-.624l.246-.147.01-.015L52.7.934l.049-.025L52.8.885,52.845.86l.01-.015.015-.01.015-.01.01-.015L52.944.8l.049-.01-.01.074-.015.074-.025.074-.025.074-.025.049-.025.049-.025.074a1.709,1.709,0,0,0-.049.2,8.246,8.246,0,0,1-.467.983,12.3,12.3,0,0,1-1.106,1.745,8.58,8.58,0,0,1-1.19,1.337q-.531.457-.7.639a2.11,2.11,0,0,1-.418.344l-.246.162-.049.025-.049.025-.01.015-.015.01-.015.01-.01.015-.049.025-.049.025-.01.015-.015.01-.015.01-.01.015-.01.015-.015.01-.015.01-.01.015h.246l1.376-.295a24.632,24.632,0,0,0,2.63-.713L53.9,5.457l.147-.049.074-.025.049-.025.049-.025.049-.025.049-.025.1-.015.1-.01v.1l-.025.01-.025.015-.01.015-.015.01-.015.01-.01.015-.01.015-.015.01-.015.01-.01.015-.01.015-.015.01-.025.049L54.3,5.6l-.015.01q-.01.015-.624.836a6.909,6.909,0,0,1-.664.836q-.049.015-.138.147a14.089,14.089,0,0,1-1.042,1.1,24.742,24.742,0,0,1-1.878,1.706A2.328,2.328,0,0,0,49,12.083q-.015,1.091-.113,2.468t-.369,2.974a35.458,35.458,0,0,1-.836,3.613,32.85,32.85,0,0,1-1.376,3.933,30.64,30.64,0,0,1-1.7,3.441q-.885,1.524-1.622,2.581t-1.5,1.991q-.762.934-1.927,2.1t-1.278,1.278q-.113.108-.964.806T35.5,38.678a21.038,21.038,0,0,1-1.78,1.165q-.811.467-1.957,1.067A23.278,23.278,0,0,1,29.3,42.03q-1.327.516-2.8.959a25.593,25.593,0,0,1-2.851.688q-1.376.246-3.122.418l-1.745.172v.025h-3.2v-.025l-.418-.025q-.418-.025-.688-.049t-2.04-.27q-1.77-.246-2.777-.492t-3-.934a29.176,29.176,0,0,1-3.407-1.391q-1.411-.7-1.77-.885t-.8-.452L.246,39.5l-.01-.015-.015-.01-.015-.01L.2,39.45l-.049-.025L.1,39.4l-.01-.015-.015-.01-.015-.01-.01-.015-.01-.015-.015-.01H0v-.1l.049.01.049.015.221.025q.221.025,1.2.074t2.089,0a21.982,21.982,0,0,0,2.261-.221A25.476,25.476,0,0,0,8.6,38.54a20.158,20.158,0,0,0,2.891-.993q1.313-.58,1.868-.865a18.189,18.189,0,0,0,1.681-1.042l1.131-.762.01-.015.015-.01.015-.01.01-.015.01-.015.015-.01.015-.01.01-.015.049-.015.049-.01.01-.049.015-.049.015-.01.01-.015-.393-.025-.762-.049a7.389,7.389,0,0,1-1.155-.221,11.087,11.087,0,0,1-1.7-.59,13.074,13.074,0,0,1-1.77-.934,8.709,8.709,0,0,1-1.244-.9q-.378-.354-.983-1a9.946,9.946,0,0,1-1.042-1.342,12.058,12.058,0,0,1-.845-1.588l-.408-.895L6.1,27.013l-.025-.074-.015-.049-.01-.049.074.01.074.015.541.074a12.016,12.016,0,0,0,1.7.049,13.13,13.13,0,0,0,1.6-.1q.442-.074.541-.1l.1-.025.123-.025.123-.025.01-.015.015-.01.015-.01.01-.015-.1-.025-.1-.025-.1-.025-.1-.025-.1-.025q-.1-.025-.344-.1T8.8,25.907A10.15,10.15,0,0,1,7.079,25a11.883,11.883,0,0,1-1.219-.968A13.912,13.912,0,0,1,4.6,22.662,9.833,9.833,0,0,1,3.367,20.72a11.809,11.809,0,0,1-.811-2.114,11.412,11.412,0,0,1-.354-2.04l-.089-1.032.049.01.049.015.049.025.049.025.049.025.049.025L3.171,16a9.613,9.613,0,0,0,1.893.59q1.131.246,1.352.27l.221.025h.442l-.01-.015-.015-.01-.015-.01-.01-.015-.01-.015-.015-.01L6.99,16.8l-.01-.015-.049-.025-.049-.025-.01-.015-.015-.01-.015-.01-.01-.015-.049-.025-.049-.025-.01-.015L6.3,16.311a6.447,6.447,0,0,1-.846-.8q-.442-.492-.885-1.032a7.971,7.971,0,0,1-.787-1.155,14,14,0,0,1-.728-1.563,11.1,11.1,0,0,1-.575-1.9,10.829,10.829,0,0,1-.221-1.893,11.918,11.918,0,0,1,.049-1.6,10.442,10.442,0,0,1,.295-1.5A11.683,11.683,0,0,1,3.244,3.1l.418-.934.025-.074.025-.074.015-.01.01-.015.01-.015.015-.01.015.01.01.015.01.015.015.01.015.01.01.015.01.015.015.01.025.049.025.049.015.01.01.015.664.737q.664.737,1.573,1.647a9.244,9.244,0,0,0,1.008.944.72.72,0,0,1,.246.226,10.035,10.035,0,0,0,.983.87q.836.688,2.188,1.6t3,1.794a29.259,29.259,0,0,0,3.539,1.6q1.893.713,2.655.934t2.605.565q1.843.344,2.777.442t1.278.113l.344.01-.01-.074-.015-.074-.1-.614a11.552,11.552,0,0,1-.1-1.721,11.282,11.282,0,0,1,.172-2.04,12.085,12.085,0,0,1,.516-1.893,10.11,10.11,0,0,1,.673-1.539A15.136,15.136,0,0,1,28.807,4.4a10.6,10.6,0,0,1,1.4-1.524,10.338,10.338,0,0,1,1.966-1.4,12.783,12.783,0,0,1,2.04-.934A9.506,9.506,0,0,1,35.787.123,5.467,5.467,0,0,0,36.426.01Z" transform="translate(-404.702 -174.947)" fill="#5da8dc" stroke="#5da8dc" stroke-width="0.5"/>
  </g>
</svg>
