<svg id="upload-button" xmlns="http://www.w3.org/2000/svg" width="51.501" height="51.501" viewBox="0 0 51.501 51.501">
  <g id="Group_17" data-name="Group 17" transform="translate(0 0)">
    <path id="Path_24" data-name="Path 24" d="M48.048,12.825a25.642,25.642,0,0,0-9.371-9.371A25.188,25.188,0,0,0,25.751,0,25.188,25.188,0,0,0,12.825,3.454a25.636,25.636,0,0,0-9.372,9.371A25.188,25.188,0,0,0,0,25.75,25.193,25.193,0,0,0,3.454,38.676a25.642,25.642,0,0,0,9.371,9.371A25.191,25.191,0,0,0,25.751,51.5a25.191,25.191,0,0,0,12.926-3.454,25.636,25.636,0,0,0,9.371-9.371A25.193,25.193,0,0,0,51.5,25.75,25.194,25.194,0,0,0,48.048,12.825ZM41.543,34.9A18.19,18.19,0,0,1,34.9,41.543a17.828,17.828,0,0,1-9.154,2.447A17.83,17.83,0,0,1,16.6,41.543,18.19,18.19,0,0,1,9.959,34.9,17.825,17.825,0,0,1,7.511,25.75,17.829,17.829,0,0,1,9.959,16.6,18.181,18.181,0,0,1,16.6,9.958a17.827,17.827,0,0,1,9.154-2.447A17.828,17.828,0,0,1,34.9,9.958,18.182,18.182,0,0,1,41.543,16.6,17.827,17.827,0,0,1,43.99,25.75,17.827,17.827,0,0,1,41.543,34.9Z" transform="translate(0 0)" fill="#fff"/>
    <path id="Path_25" data-name="Path 25" d="M131.346,109.936a1.136,1.136,0,0,0-1.542,0l-10.7,10.7a1.259,1.259,0,0,0-.335.8,1.033,1.033,0,0,0,1.073,1.073h6.438v11.8a1.033,1.033,0,0,0,1.073,1.072h6.438a1.033,1.033,0,0,0,1.073-1.072v-11.8H141.3a.994.994,0,0,0,1.006-.671,1.018,1.018,0,0,0-.235-1.173Z" transform="translate(-104.824 -96.759)" fill="#fff"/>
  </g>
</svg>
